<?xml version="1.0" encoding="utf-8"?>
<!-- Generator: Adobe Illustrator 16.0.0, SVG Export Plug-In . SVG Version: 6.00 Build 0)  -->
<!DOCTYPE svg PUBLIC "-//W3C//DTD SVG 1.1//EN" "http://www.w3.org/Graphics/SVG/1.1/DTD/svg11.dtd">
<svg version="1.1" id="Layer_1" xmlns="http://www.w3.org/2000/svg" xmlns:xlink="http://www.w3.org/1999/xlink" x="0px" y="0px"
	 width="157.333px" height="106.667px" viewBox="0 0 157.333 106.667" enable-background="new 0 0 157.333 106.667"
	 xml:space="preserve">
<g>
	<g>
		<path fill="#FFFFFF" d="M150.342,38.573c-2.225-4.378-6.962-8.254-10.407-11.627c-3.947-3.947-7.966-7.823-12.488-11.197
			c-0.574-0.431-1.148-0.215-1.507,0.215c-0.143-0.072-0.287-0.215-0.502-0.215c-16.22-2.153-33.159-0.646-49.523-1.077
			c-16.507-0.431-33.015-0.574-49.522-0.718c-0.359,0-0.718,0.144-0.933,0.359c-0.287-0.574-0.933-0.933-1.579-0.574
			c-1.292,0.79-2.656,1.651-3.947,2.44c-1.22,0.718-2.871,1.364-3.732,2.512c-0.071,0-0.071,0.071-0.071,0.071
			c-0.288,0.144-0.431,0.503-0.431,0.934c0.287,16.651-0.574,33.158-0.216,49.595c0.072,0.861,1.076,1.292,1.723,0.933
			c0,0.072,0.071,0.072,0.143,0.072c16.938,1.435,34.667,3.588,51.748,3.014c0,0,0,0.072,0.072,0.144
			c-0.646,2.727-1.148,5.526-1.651,8.326c-0.071,0.144-0.071,0.359-0.071,0.502c-0.909,5.246-1.636,10.597-2.174,15.976
			c1.151-0.214,2.302-0.43,3.453-0.647c0.072-0.951,0.135-1.91,0.228-2.84c0.359-0.215,0.646-0.431,0.934-0.79
			c0.646-0.502,1.292-1.005,1.866-1.579c-0.072,1.579-0.215,3.086-0.287,4.666c-0.216-0.144-0.575-0.215-0.861,0.071
			c-0.043,0.048-0.089,0.094-0.134,0.142c1.715-0.325,3.43-0.648,5.146-0.967c0.163-7.908,0.134-15.81,0.01-23.577
			c0.933-0.646,1.722-1.364,2.512-2.082c0.431,0,0.861,0,1.292-0.072c-0.79,0.718-1.651,1.364-2.512,2.081
			c-0.215,0.144,0.071,0.502,0.287,0.359c1.077-0.79,2.082-1.651,3.086-2.584c0.718-0.144,1.436-0.431,2.153-0.718
			c-1.148,1.077-2.368,2.153-3.516,3.229c-0.215,0.215,0.072,0.574,0.287,0.431c1.148-0.861,2.225-1.866,3.301-2.871
			c-0.072,0.287-0.072,0.502-0.072,0.718c0,0.144,0,0.287,0.072,0.431v0.502c-1.076,0.933-2.225,1.794-3.373,2.583
			c-0.144,0.144,0,0.502,0.215,0.359c1.148-0.646,2.153-1.507,3.158-2.368v1.794c-1.148,0.79-2.297,1.651-3.301,2.584
			c-0.215,0.143,0.072,0.502,0.287,0.358c1.077-0.646,2.082-1.436,3.015-2.225v1.723c-1.005,0.861-2.01,1.65-3.015,2.512
			c-0.215,0.143,0.072,0.502,0.288,0.358c0.933-0.574,1.866-1.364,2.727-2.153v1.005c-1.004,0.861-2.01,1.723-2.942,2.584
			c-0.215,0.215,0.072,0.574,0.287,0.431c1.005-0.646,1.866-1.436,2.655-2.225v1.435c-1.005,0.79-1.938,1.651-2.799,2.584
			c-0.215,0.144,0.072,0.502,0.288,0.359c0.861-0.718,1.723-1.507,2.512-2.297v2.082c-1.076,0.718-2.082,1.363-3.229,1.938
			c-0.216,0.071-0.072,0.574,0.215,0.431c1.077-0.502,2.082-1.077,3.015-1.794c0.072,0.79,0.072,1.579,0.072,2.369
			c-0.718,0.789-1.507,1.507-2.297,2.225c-0.287,0.288,0.144,0.646,0.431,0.431c0.718-0.502,1.292-1.077,1.938-1.723
			c0.072,0.574,0.072,1.076,0.072,1.579c-0.646,0.502-1.292,1.004-1.866,1.579c-0.287,0.215,0.072,0.718,0.359,0.502
			c0.502-0.431,1.005-0.861,1.507-1.292c0,0.79,0.072,1.508,0.072,2.297c-0.933,0.862-1.866,1.651-2.799,2.512
			c-0.215,0.216,0.072,0.575,0.288,0.431c0.861-0.574,1.722-1.22,2.512-2.01c0.072,0.359,0.072,0.79,0.072,1.22
			c-0.274,0.274-0.562,0.548-0.855,0.823c1.345-0.231,2.691-0.455,4.039-0.668c-0.1-7.611-0.165-15.223-0.599-22.834h0.287
			c0.215,0,0.358-0.072,0.574-0.144c8.182,0.718,17.082,0.861,25.264-0.718c0.215,0.144,0.502,0.215,0.861,0.144
			c2.081-0.431,4.091-2.153,5.885-3.302c2.081-1.292,4.09-2.655,6.172-3.947c0,0,0-0.072,0.072-0.072
			c0.144,0,0.359-0.072,0.502-0.215c4.809-3.804,9.474-7.967,14.139-12.058c3.661-3.229,7.321-6.531,10.048-10.622
			C150.055,40.583,150.844,39.506,150.342,38.573z M28.545,16.827c-0.574,0.574-1.148,1.148-1.651,1.794
			c-0.071-0.574-0.071-1.22-0.143-1.794H28.545z M23.952,53.861c-0.646,1.004-1.364,2.009-2.153,2.942
			c-1.005,1.148-2.153,2.082-3.086,3.229c0.143-1.794,0.288-3.66,0.431-5.526c1.364-0.933,2.368-2.368,3.373-3.588
			c0.43-0.502,0.79-1.077,1.22-1.579C23.809,50.846,23.88,52.354,23.952,53.861z M19.502,44.961c0.072-1.507,0-3.015,0-4.522
			c1.651-1.292,3.014-3.086,4.234-4.809c0,1.579-0.072,3.23-0.072,4.88C22.373,42.09,20.938,43.525,19.502,44.961z M23.665,43.023
			v4.234c-0.79,0.933-1.579,1.938-2.44,2.871c-0.575,0.718-1.292,1.364-1.938,2.082c0.071-1.651,0.143-3.302,0.143-4.953
			C21.009,46.038,22.444,44.602,23.665,43.023z M23.665,34.913c-0.79,0.933-1.651,1.794-2.512,2.656
			c-0.502,0.502-1.077,1.005-1.651,1.507c-0.072-1.364-0.144-2.727-0.144-4.02c1.077-0.861,1.938-1.866,2.871-2.799
			c0.502-0.575,1.076-1.077,1.579-1.651c0,1.364-0.072,2.799-0.072,4.234C23.736,34.913,23.665,34.913,23.665,34.913z
			 M23.808,28.597c-0.862,0.861-1.794,1.722-2.655,2.583c-0.646,0.646-1.292,1.292-1.938,1.938c0-1.005-0.072-2.082-0.144-3.086
			c1.794-1.292,3.445-3.086,4.809-4.737C23.808,26.372,23.808,27.521,23.808,28.597z M23.521,24.075
			c-0.933,1.148-2.01,2.225-3.158,3.23c-0.502,0.431-0.933,0.79-1.435,1.148c-0.072-1.22-0.215-2.369-0.287-3.589
			c0.861-0.646,1.579-1.435,2.368-2.225c1.005-1.004,1.938-2.009,2.871-3.014v4.306C23.736,23.932,23.593,23.932,23.521,24.075z
			 M21.368,18.477c0.861-0.646,1.65-1.292,2.512-1.938c0,0.503,0,0.934,0,1.364c-0.143,0-0.215,0.072-0.359,0.144
			c-1.22,0.933-2.44,1.938-3.66,2.942c-0.502,0.431-0.933,0.79-1.364,1.148c-0.071-0.43-0.071-0.933-0.144-1.364
			C19.502,20.2,20.363,19.267,21.368,18.477z M18.641,61.253c0.215,0.287,0.646,0.431,1.004,0.215
			c1.507-0.862,2.728-2.44,3.732-3.804c0.288-0.359,0.575-0.79,0.862-1.148c0.072,1.005,0.143,2.082,0.287,3.086
			c-0.215-0.072-0.431-0.072-0.646,0.144c-1.22,1.292-2.512,2.583-3.804,3.875c-0.646,0.646-1.436,1.364-2.01,2.081
			C18.282,64.268,18.497,62.76,18.641,61.253z M21.799,67.856v0.215C20.578,68,19.358,68,18.138,68
			c1.365-0.718,2.369-2.153,3.374-3.302c1.077-1.22,2.082-2.512,3.158-3.732c0,0.288,0,0.646,0.072,0.934
			c0.071,0.358,0.502,0.43,0.789,0.215c0.071,0.071,0.071,0.071,0.144,0.071c0.502,0.072,0.933,0.072,1.364,0.144
			c-0.79,0.718-1.579,1.364-2.297,2.082C23.736,65.344,22.014,66.421,21.799,67.856z M26.966,68.215
			c-1.076,0-2.153-0.072-3.229-0.072c0.933-0.646,1.651-1.722,2.297-2.44c1.004-1.076,1.937-2.081,2.871-3.158
			c1.148,0.144,2.296,0.287,3.445,0.431c-0.789,0.646-1.507,1.292-2.225,1.938C29.048,65.847,27.54,66.78,26.966,68.215z
			 M33.426,68.358c0,0,0,0.072,0,0.144c-1.148-0.072-2.296-0.072-3.445-0.215c0.646-0.574,1.149-1.22,1.723-1.794
			c0.79-0.718,1.651-1.507,2.369-2.369c0.072,0,0.215,0,0.287-0.071c0.287-0.287,0.431-0.502,0.574-0.79
			c0.933,0.071,1.867,0.215,2.871,0.287c-0.502,0.358-1.004,0.718-1.507,1.148C35.22,65.703,33.784,66.923,33.426,68.358z
			 M39.096,68.717c-1.148-0.072-2.297-0.072-3.445-0.215c0.718-0.718,1.364-1.579,2.01-2.297c0.861-0.861,1.723-1.723,2.728-2.512
			c0.933,0.072,1.866,0.144,2.799,0.215c-0.502,0.503-0.933,0.934-1.436,1.436c-1.005,1.005-1.938,1.938-2.584,3.23
			C39.096,68.646,39.096,68.646,39.096,68.717z M43.33,68.933c-0.646-0.072-1.292-0.072-2.081-0.072
			c1.579-1.364,2.871-3.158,4.091-4.809c0.79,0.071,1.579,0.071,2.368,0.144c-0.574,0.717-1.22,1.507-1.866,2.225
			C45.052,67.21,44.12,68.071,43.33,68.933z M46.058,69.076c0.359-0.431,0.79-0.933,1.148-1.364
			c0.933-1.148,1.794-2.296,2.655-3.445c1.077,0.072,2.226,0.072,3.374,0.144c-1.292,1.794-2.799,3.229-4.235,4.88
			C47.995,69.22,46.99,69.148,46.058,69.076z M53.02,69.65c-0.431-0.072-0.861-0.072-1.436-0.072
			c1.507-1.435,2.655-3.301,3.588-5.024c1.077,0,2.153,0.072,3.23,0.072c-0.646,0.861-1.363,1.65-2.224,2.368
			C55.173,67.928,53.737,68.502,53.02,69.65z M58.546,70.225c-1.005-0.144-2.01-0.215-2.943-0.359
			c0.646-0.502,1.292-1.077,1.866-1.65c1.077-1.077,2.009-2.297,2.799-3.589c1.148,0,2.296,0.072,3.444,0.072
			c-0.718,0.933-1.435,1.794-2.225,2.656C60.556,68.287,59.335,69.148,58.546,70.225z M63.713,70.871
			c-0.718-0.072-1.507-0.144-2.152-0.287c0.574-0.646,1.148-1.364,1.65-1.938c1.077-1.292,2.01-2.583,2.871-3.947
			c1.148,0.072,2.296,0.072,3.445,0.072c-1.005,1.004-2.01,1.938-3.015,2.942C65.507,68.646,64.359,69.65,63.713,70.871z
			 M71.896,90.249c-0.072,0-0.144,0-0.216,0.072c-0.861,0.574-1.651,1.292-2.512,1.938c0.072-1.507,0.215-3.014,0.359-4.522
			c0.933-0.502,1.794-1.076,2.655-1.651C72.11,87.449,71.967,88.885,71.896,90.249z M72.326,84.004c-0.144-0.072-0.43,0-0.646,0.144
			c-0.646,0.431-1.292,0.861-1.938,1.292c0.071-1.077,0.215-2.153,0.287-3.23c1.005-0.646,1.867-1.507,2.656-2.368
			C72.541,81.277,72.397,82.641,72.326,84.004z M72.9,77.473c-0.072,0.072-0.215,0.144-0.288,0.215
			c-0.717,0.718-1.507,1.436-2.368,2.01c0.072-0.574,0.072-1.22,0.144-1.794c1.077-0.502,1.938-1.363,2.656-2.297
			C72.972,76.253,72.972,76.827,72.9,77.473z M73.115,73.957c-0.215,0-0.431,0.072-0.574,0.287
			c-0.574,0.861-1.292,1.507-2.082,1.938c0.072-0.79,0.144-1.651,0.215-2.44c0.861-0.359,1.651-1.22,2.297-1.866
			c0.144-0.072,0.215-0.215,0.359-0.359C73.259,72.306,73.187,73.167,73.115,73.957z M70.459,70.153c0,0.072,0,0.072,0,0.144
			c-0.502,0.502-0.933,0.933-1.292,1.507c-1.148-0.215-2.296-0.431-3.516-0.646c0.718-0.646,1.436-1.436,2.081-2.153
			c1.292-1.364,2.584-2.727,3.876-4.091c0.071,0,0.143-0.072,0.143-0.144h4.091c-0.718,0.717-1.507,1.435-2.297,2.153
			C72.541,67.856,71.105,68.861,70.459,70.153z M75.34,71.875v-1.363c0-0.287-0.071-0.502-0.287-0.646
			c0.072,0,0.216,0.072,0.287,0.144c0.575,0.215,1.149,0.359,1.723,0.431C76.489,70.942,75.914,71.445,75.34,71.875z M77.924,67.785
			c-0.718-0.072-1.435-0.072-2.225-0.144c-0.143-0.072-0.215,0-0.43,0.072c0.934-0.933,1.866-1.866,2.727-2.799h2.871
			C79.79,65.774,78.713,66.708,77.924,67.785z M83.164,67.712c-0.215-0.287-0.575-0.502-1.005-0.358
			c-0.646,0.215-1.22,0.287-1.866,0.358c0.144-0.143,0.359-0.358,0.502-0.502c0.789-0.861,1.651-1.579,2.512-2.297h2.655
			l-0.646,0.646C84.599,66.205,83.881,66.923,83.164,67.712z M85.675,70.081h-0.287c-0.072,0-0.072,0.071-0.144,0.071V69.65
			c0-0.718-0.359-1.077-0.861-1.148c0.718-0.574,1.292-1.22,1.938-1.866c0.502-0.502,0.933-1.077,1.436-1.579
			c1.292,0.072,2.583,0.072,3.875,0.072c-0.79,0.789-1.579,1.65-2.44,2.368C88.115,68.358,86.751,69.147,85.675,70.081z
			 M93.211,69.22c-1.364,0.072-2.656,0.287-4.019,0.431c0.358-0.359,0.718-0.646,1.004-0.933c1.22-1.148,2.297-2.369,3.302-3.732
			c1.292,0.072,2.655,0.072,3.947,0.072c-0.646,0.718-1.363,1.436-2.081,2.082C94.646,67.856,93.857,68.502,93.211,69.22z
			 M95.938,69.076c1.292-1.148,2.369-2.512,3.374-3.66c0.072-0.072,0.143-0.215,0.143-0.287h4.522
			c-1.651,1.005-3.445,2.225-4.953,3.66C98.02,68.861,96.943,68.933,95.938,69.076z M101.034,68.717
			c0.144-0.072,0.216-0.144,0.288-0.215c1.148-1.005,2.44-1.938,3.732-2.799c0.215-0.143,0.287-0.358,0.215-0.574h2.584
			c-1.651,1.076-3.374,2.225-4.881,3.517C102.326,68.646,101.752,68.717,101.034,68.717z M108.283,68.717
			c-0.718,0-1.363-0.072-2.082-0.072c1.579-1.148,3.086-2.44,4.594-3.589h2.512c-0.861,0.574-1.651,1.148-2.513,1.723
			C109.934,67.425,109.001,67.928,108.283,68.717z M111.585,68.861c-0.431,0-0.933,0-1.436-0.072
			c0.502-0.431,0.933-0.789,1.436-1.148c1.148-0.79,2.225-1.65,3.302-2.44c0.071-0.072,0.143-0.072,0.143-0.144
			c0.502,0.072,1.005,0.072,1.507,0.072C114.887,66.134,112.805,67.282,111.585,68.861z M123.283,61.684
			c-0.071,0.072-0.071,0.143-0.143,0.215c-6.675,2.081-17.871,0.287-24.618,0.861c-7.823,0-15.718-0.072-23.542-0.287
			c-16.22-0.431-32.656-2.153-48.876-1.866c2.799-12.775,1.938-27.129,0.861-40.264c0.789-1.005,1.579-2.082,2.44-3.014h2.584
			c-1.364,1.436-2.728,2.727-4.02,4.163c-0.215,0.287,0.072,0.718,0.359,0.502c1.722-1.22,3.158-2.943,4.521-4.593h2.082
			c-1.794,1.65-3.517,3.445-4.953,5.383c-0.215,0.359,0.287,0.717,0.575,0.431c1.793-1.938,3.517-3.876,5.454-5.742h1.364
			c-1.507,1.722-3.158,3.301-4.666,5.024c-0.287,0.287,0.144,0.718,0.431,0.431c1.866-1.507,3.445-3.517,4.953-5.455h1.076
			c-1.148,1.22-2.296,2.368-3.301,3.66c-0.144,0.287,0.144,0.574,0.358,0.359c1.221-1.292,2.297-2.584,3.445-3.947h2.584
			c-1.22,1.148-2.44,2.296-3.588,3.445c-0.215,0.287,0.143,0.646,0.431,0.431c1.363-1.148,2.655-2.44,3.875-3.804h1.65
			c-1.363,1.004-2.512,2.296-3.517,3.517c-0.287,0.215,0.072,0.574,0.359,0.359c1.507-1.148,2.655-2.727,4.163-3.875h2.656
			c-1.149,0.789-2.296,1.65-3.086,2.799c-0.215,0.287,0.215,0.574,0.431,0.359c1.077-1.005,2.082-2.009,3.302-2.871
			c0.143-0.072,0.143-0.215,0.143-0.287h2.512c-1.148,0.861-2.368,1.722-3.445,2.583c-0.287,0.287,0.072,0.79,0.431,0.574
			c1.435-0.79,2.727-1.938,4.019-3.014c0-0.072,0-0.072,0-0.072h0.861c-0.933,0.646-1.723,1.435-2.369,2.296
			c-0.215,0.359,0.288,0.718,0.575,0.431c1.005-0.933,1.938-1.866,3.014-2.727h1.507c-0.718,0.646-1.436,1.363-2.081,2.153
			c-0.145,0.215,0.071,0.646,0.358,0.431c1.077-0.646,2.01-1.651,2.871-2.583c2.368,0.072,4.736,0.072,7.105,0.072
			c-1.363,1.005-2.727,1.938-3.948,3.086c-0.215,0.215,0.072,0.574,0.359,0.431c1.723-0.79,3.229-2.225,4.665-3.517h1.723
			c-1.077,0.933-2.296,1.722-3.373,2.655c-0.359,0.287,0.072,0.718,0.431,0.574c1.363-0.646,2.512-1.723,3.588-2.728
			c0.143-0.143,0.143-0.358,0-0.502h1.722c-1.076,0.933-2.225,1.866-2.942,3.014c-0.215,0.287,0.216,0.574,0.502,0.359
			c1.149-1.005,2.082-2.225,3.23-3.229c0.072,0,0.072-0.072,0.072-0.144h1.579c-1.005,0.717-2.082,1.507-2.943,2.368
			c-0.287,0.287,0.072,0.79,0.431,0.574c1.292-0.861,2.368-1.938,3.517-2.942h2.871c0.073,0,0.073,0,0.073,0
			c-0.934,0.79-2.01,1.507-3.015,2.296c-0.359,0.215-0.072,0.79,0.359,0.574c1.363-0.718,2.583-1.794,3.732-2.871h2.153
			c-1.221,0.933-2.369,1.938-3.445,3.014c-0.287,0.287,0.071,0.718,0.358,0.502c1.436-1.077,2.728-2.296,4.02-3.517
			c0.79,0.071,1.579,0.071,2.368,0.071c-1.22,1.005-2.583,1.866-3.732,2.943c-0.215,0.215,0,0.646,0.287,0.502
			c1.651-0.718,3.086-2.153,4.378-3.373c0-0.072,0-0.072,0-0.072h2.225c-1.292,0.934-2.584,1.866-3.804,2.943
			c-0.287,0.215,0.072,0.574,0.287,0.431c1.507-1.077,2.942-2.225,4.378-3.374c1.22,0,2.512,0,3.732,0.072
			c-1.22,0.933-2.512,1.794-3.732,2.799c-0.287,0.215,0.072,0.574,0.287,0.431c1.507-0.718,2.943-2.01,4.234-3.158
			c1.077,0,2.153,0.072,3.23,0.072c-1.077,0.79-2.154,1.651-3.23,2.512c-0.215,0.215,0.072,0.646,0.359,0.431
			c1.292-0.933,2.512-1.938,3.731-2.943c0.718,0,1.436,0.072,2.153,0.072c-1.363,0.789-2.727,1.65-4.091,2.583
			c-0.358,0.215-0.071,0.718,0.288,0.502c1.651-0.933,3.229-2.01,4.88-3.086c0.502,0.071,1.005,0.071,1.507,0.071
			c-1.292,0.861-2.583,1.794-3.732,2.799c-0.144,0.144,0.072,0.502,0.288,0.359c1.507-0.933,2.871-2.082,4.306-3.158
			c1.938,0.072,3.947,0.144,5.886,0.144c-1.723,1.004-3.445,2.009-4.952,3.229c-0.288,0.287,0.072,0.646,0.358,0.502
			c2.082-1.077,4.02-2.44,5.957-3.732h1.221c-1.579,1.004-3.23,2.081-4.809,3.158c-0.288,0.144,0,0.574,0.286,0.431
			c1.938-1.077,3.732-2.369,5.455-3.661h0.861c-1.507,1.005-3.015,2.01-4.521,3.015c-0.216,0.144,0,0.574,0.287,0.431
			c1.866-1.077,3.588-2.297,5.239-3.517h1.364c-1.579,1.22-3.301,2.225-5.024,3.23c-0.287,0.144,0,0.574,0.287,0.431
			c2.153-0.933,4.02-2.225,5.814-3.732c1.22-0.072,2.44-0.072,3.66-0.144c-2.01,1.436-4.163,2.656-6.316,3.876
			c-0.288,0.144-0.072,0.574,0.215,0.431c2.512-1.22,4.737-2.728,6.89-4.378c1.48-0.071,2.96-0.142,4.44-0.28
			c-2.222,1.647-4.515,3.082-6.809,4.658c-0.287,0.215,0,0.718,0.287,0.502c2.368-1.436,4.594-3.086,6.818-4.809
			c0.215-0.071,0.071-0.287-0.072-0.358c0.646-0.072,1.22-0.072,1.866-0.144c0.143,0,0.215-0.072,0.287-0.072
			c0,0.072,0.072,0.215,0.144,0.287h-0.072c-2.153,1.507-4.235,3.086-6.173,4.809c-0.287,0.215,0.072,0.574,0.359,0.359
			c2.009-1.651,4.019-3.23,6.101-4.737c0,0,0.071-0.072,0.071-0.144c0.359,0.287,0.646,0.646,0.933,0.933
			c-2.009,1.723-4.091,3.445-6.172,5.024c-0.287,0.215-0.071,0.646,0.215,0.431c2.225-1.507,4.235-3.301,6.245-5.096
			c0.502,0.502,1.004,1.077,1.507,1.579c-0.072,0.072-0.072,0.072-0.144,0.072c-1.866,1.507-3.804,2.943-5.598,4.521
			c-0.215,0.144,0.072,0.502,0.287,0.359c2.01-1.436,3.875-3.014,5.742-4.521c0.072,0,0.072-0.072,0.072-0.072
			c0.287,0.215,0.502,0.502,0.79,0.79c-1.579,1.436-3.23,2.871-4.809,4.378c-0.216,0.215,0.144,0.574,0.358,0.359
			c1.723-1.364,3.374-2.799,4.952-4.306c0.718,0.79,1.507,1.579,2.297,2.368c-1.363,1.148-2.727,2.225-4.019,3.445
			c-0.215,0.215,0.072,0.646,0.287,0.431c1.364-1.077,2.727-2.225,4.091-3.374c0.431,0.431,0.79,0.861,1.22,1.22
			c-1.22,1.148-2.512,2.225-3.804,3.301c-0.144,0.144,0.071,0.502,0.287,0.359c1.507-0.933,2.799-2.01,4.019-3.23
			c0.359,0.359,0.718,0.718,1.077,1.077c-1.22,1.005-2.44,2.01-3.661,3.014c-0.287,0.216,0.072,0.574,0.359,0.359
			c1.221-1.004,2.44-2.01,3.661-3.014c0.502,0.431,0.933,0.861,1.363,1.292c-1.292,1.004-2.655,2.01-4.019,3.014
			c-0.287,0.215-0.072,0.574,0.216,0.431c1.507-0.861,2.871-1.938,4.163-3.086c0.431,0.431,0.79,0.79,1.148,1.148
			c-1.077,0.861-2.153,1.723-3.229,2.584c-0.215,0.144,0,0.502,0.215,0.359c1.22-0.79,2.297-1.723,3.373-2.656
			c0.215,0.287,0.502,0.502,0.79,0.79c-1.077,0.861-2.153,1.722-3.229,2.512c-0.216,0.144-0.072,0.431,0.143,0.287
			c1.221-0.718,2.297-1.579,3.374-2.512c0.431,0.359,0.79,0.79,1.22,1.22c-0.933,0.574-1.938,1.22-2.871,1.794
			c-0.216,0.144,0,0.503,0.215,0.359c1.005-0.574,2.01-1.22,2.943-1.866c0.574,0.502,1.077,1.077,1.579,1.579
			c-0.933,0.574-1.938,1.148-2.799,1.866c-0.144,0.144,0.071,0.359,0.216,0.287c1.004-0.574,2.009-1.22,2.942-1.866
			c0.358,0.431,0.789,0.79,1.148,1.22c-0.861,0.431-1.722,0.933-2.512,1.436c-0.215,0.072-0.072,0.359,0.144,0.287
			c0.861-0.431,1.722-1.005,2.512-1.507c0.359,0.43,0.718,0.789,1.077,1.148c-0.789,0.646-1.579,1.148-2.368,1.794
			c-0.144,0.144,0.071,0.359,0.215,0.287c0.861-0.574,1.651-1.22,2.44-1.794c0.215,0.287,0.503,0.502,0.718,0.79
			C140.006,47.473,131.107,54.076,123.283,61.684z"/>
		<g>
			<path fill="none" d="M150.342,38.573c-2.225-4.378-6.962-8.254-10.407-11.627c-3.947-3.947-7.966-7.823-12.488-11.197
				c-0.574-0.431-1.148-0.215-1.507,0.215c-0.143-0.072-0.287-0.215-0.502-0.215c-16.22-2.153-33.159-0.646-49.523-1.077
				c-16.507-0.431-33.015-0.574-49.522-0.718c-0.359,0-0.718,0.144-0.933,0.359c-0.287-0.574-0.933-0.933-1.579-0.574
				c-1.292,0.79-2.656,1.651-3.947,2.44c-1.22,0.718-2.871,1.364-3.732,2.512c-0.071,0-0.071,0.071-0.071,0.071
				c-0.288,0.144-0.431,0.503-0.431,0.934c0.287,16.651-0.574,33.158-0.216,49.595c0.072,0.861,1.076,1.292,1.723,0.933
				c0,0.072,0.071,0.072,0.143,0.072c16.938,1.435,34.667,3.588,51.748,3.014c0,0,0,0.072,0.072,0.144
				c-0.646,2.727-1.148,5.526-1.651,8.326c-0.071,0.144-0.071,0.359-0.071,0.502c-0.909,5.246-1.636,10.597-2.174,15.976
				c1.151-0.214,2.302-0.43,3.453-0.647c0.072-0.951,0.135-1.91,0.228-2.84c0.359-0.215,0.646-0.431,0.934-0.79
				c0.646-0.502,1.292-1.005,1.866-1.579c-0.072,1.579-0.215,3.086-0.287,4.666c-0.216-0.144-0.575-0.215-0.861,0.071
				c-0.043,0.048-0.089,0.094-0.134,0.142c1.715-0.325,3.43-0.648,5.146-0.967c0.163-7.908,0.134-15.81,0.01-23.577
				c0.933-0.646,1.722-1.364,2.512-2.082c0.431,0,0.861,0,1.292-0.072c-0.79,0.718-1.651,1.364-2.512,2.081
				c-0.215,0.144,0.071,0.502,0.287,0.359c1.077-0.79,2.082-1.651,3.086-2.584c0.718-0.144,1.436-0.431,2.153-0.718
				c-1.148,1.077-2.368,2.153-3.516,3.229c-0.215,0.215,0.072,0.574,0.287,0.431c1.148-0.861,2.225-1.866,3.301-2.871
				c-0.072,0.287-0.072,0.502-0.072,0.718c0,0.144,0,0.287,0.072,0.431v0.502c-1.076,0.933-2.225,1.794-3.373,2.583
				c-0.144,0.144,0,0.502,0.215,0.359c1.148-0.646,2.153-1.507,3.158-2.368v1.794c-1.148,0.79-2.297,1.651-3.301,2.584
				c-0.215,0.143,0.072,0.502,0.287,0.358c1.077-0.646,2.082-1.436,3.015-2.225v1.723c-1.005,0.861-2.01,1.65-3.015,2.512
				c-0.215,0.143,0.072,0.502,0.288,0.358c0.933-0.574,1.866-1.364,2.727-2.153v1.005c-1.004,0.861-2.01,1.723-2.942,2.584
				c-0.215,0.215,0.072,0.574,0.287,0.431c1.005-0.646,1.866-1.436,2.655-2.225v1.435c-1.005,0.79-1.938,1.651-2.799,2.584
				c-0.215,0.144,0.072,0.502,0.288,0.359c0.861-0.718,1.723-1.507,2.512-2.297v2.082c-1.076,0.718-2.082,1.363-3.229,1.938
				c-0.216,0.071-0.072,0.574,0.215,0.431c1.077-0.502,2.082-1.077,3.015-1.794c0.072,0.79,0.072,1.579,0.072,2.369
				c-0.718,0.789-1.507,1.507-2.297,2.225c-0.287,0.288,0.144,0.646,0.431,0.431c0.718-0.502,1.292-1.077,1.938-1.723
				c0.072,0.574,0.072,1.076,0.072,1.579c-0.646,0.502-1.292,1.004-1.866,1.579c-0.287,0.215,0.072,0.718,0.359,0.502
				c0.502-0.431,1.005-0.861,1.507-1.292c0,0.79,0.072,1.508,0.072,2.297c-0.933,0.862-1.866,1.651-2.799,2.512
				c-0.215,0.216,0.072,0.575,0.288,0.431c0.861-0.574,1.722-1.22,2.512-2.01c0.072,0.359,0.072,0.79,0.072,1.22
				c-0.274,0.274-0.562,0.548-0.855,0.823c1.345-0.231,2.691-0.455,4.039-0.668c-0.1-7.611-0.165-15.223-0.599-22.834h0.287
				c0.215,0,0.358-0.072,0.574-0.144c8.182,0.718,17.082,0.861,25.264-0.718c0.215,0.144,0.502,0.215,0.861,0.144
				c2.081-0.431,4.091-2.153,5.885-3.302c2.081-1.292,4.09-2.655,6.172-3.947c0,0,0-0.072,0.072-0.072
				c0.144,0,0.359-0.072,0.502-0.215c4.809-3.804,9.474-7.967,14.139-12.058c3.661-3.229,7.321-6.531,10.048-10.622
				C150.055,40.583,150.844,39.506,150.342,38.573z M28.545,16.827c-0.574,0.574-1.148,1.148-1.651,1.794
				c-0.071-0.574-0.071-1.22-0.143-1.794H28.545z M23.952,53.861c-0.646,1.004-1.364,2.009-2.153,2.942
				c-1.005,1.148-2.153,2.082-3.086,3.229c0.143-1.794,0.288-3.66,0.431-5.526c1.364-0.933,2.368-2.368,3.373-3.588
				c0.43-0.502,0.79-1.077,1.22-1.579C23.809,50.846,23.88,52.354,23.952,53.861z M19.502,44.961c0.072-1.507,0-3.015,0-4.522
				c1.651-1.292,3.014-3.086,4.234-4.809c0,1.579-0.072,3.23-0.072,4.88C22.373,42.09,20.938,43.525,19.502,44.961z M23.665,43.023
				v4.234c-0.79,0.933-1.579,1.938-2.44,2.871c-0.575,0.718-1.292,1.364-1.938,2.082c0.071-1.651,0.143-3.302,0.143-4.953
				C21.009,46.038,22.444,44.602,23.665,43.023z M23.665,34.913c-0.79,0.933-1.651,1.794-2.512,2.656
				c-0.502,0.502-1.077,1.005-1.651,1.507c-0.072-1.364-0.144-2.727-0.144-4.02c1.077-0.861,1.938-1.866,2.871-2.799
				c0.502-0.575,1.076-1.077,1.579-1.651c0,1.364-0.072,2.799-0.072,4.234C23.736,34.913,23.665,34.913,23.665,34.913z
				 M23.808,28.597c-0.862,0.861-1.794,1.722-2.655,2.583c-0.646,0.646-1.292,1.292-1.938,1.938c0-1.005-0.072-2.082-0.144-3.086
				c1.794-1.292,3.445-3.086,4.809-4.737C23.808,26.372,23.808,27.521,23.808,28.597z M23.521,24.075
				c-0.933,1.148-2.01,2.225-3.158,3.23c-0.502,0.431-0.933,0.79-1.435,1.148c-0.072-1.22-0.215-2.369-0.287-3.589
				c0.861-0.646,1.579-1.435,2.368-2.225c1.005-1.004,1.938-2.009,2.871-3.014v4.306C23.736,23.932,23.593,23.932,23.521,24.075z
				 M21.368,18.477c0.861-0.646,1.65-1.292,2.512-1.938c0,0.503,0,0.934,0,1.364c-0.143,0-0.215,0.072-0.359,0.144
				c-1.22,0.933-2.44,1.938-3.66,2.942c-0.502,0.431-0.933,0.79-1.364,1.148c-0.071-0.43-0.071-0.933-0.144-1.364
				C19.502,20.2,20.363,19.267,21.368,18.477z M18.641,61.253c0.215,0.287,0.646,0.431,1.004,0.215
				c1.507-0.862,2.728-2.44,3.732-3.804c0.288-0.359,0.575-0.79,0.862-1.148c0.072,1.005,0.143,2.082,0.287,3.086
				c-0.215-0.072-0.431-0.072-0.646,0.144c-1.22,1.292-2.512,2.583-3.804,3.875c-0.646,0.646-1.436,1.364-2.01,2.081
				C18.282,64.268,18.497,62.76,18.641,61.253z M21.799,67.856v0.215C20.578,68,19.358,68,18.138,68
				c1.365-0.718,2.369-2.153,3.374-3.302c1.077-1.22,2.082-2.512,3.158-3.732c0,0.288,0,0.646,0.072,0.934
				c0.071,0.358,0.502,0.43,0.789,0.215c0.071,0.071,0.071,0.071,0.144,0.071c0.502,0.072,0.933,0.072,1.364,0.144
				c-0.79,0.718-1.579,1.364-2.297,2.082C23.736,65.344,22.014,66.421,21.799,67.856z M26.966,68.215
				c-1.076,0-2.153-0.072-3.229-0.072c0.933-0.646,1.651-1.722,2.297-2.44c1.004-1.076,1.937-2.081,2.871-3.158
				c1.148,0.144,2.296,0.287,3.445,0.431c-0.789,0.646-1.507,1.292-2.225,1.938C29.048,65.847,27.54,66.78,26.966,68.215z
				 M33.426,68.358c0,0,0,0.072,0,0.144c-1.148-0.072-2.296-0.072-3.445-0.215c0.646-0.574,1.149-1.22,1.723-1.794
				c0.79-0.718,1.651-1.507,2.369-2.369c0.072,0,0.215,0,0.287-0.071c0.287-0.287,0.431-0.502,0.574-0.79
				c0.933,0.071,1.867,0.215,2.871,0.287c-0.502,0.358-1.004,0.718-1.507,1.148C35.22,65.703,33.784,66.923,33.426,68.358z
				 M39.096,68.717c-1.148-0.072-2.297-0.072-3.445-0.215c0.718-0.718,1.364-1.579,2.01-2.297c0.861-0.861,1.723-1.723,2.728-2.512
				c0.933,0.072,1.866,0.144,2.799,0.215c-0.502,0.503-0.933,0.934-1.436,1.436c-1.005,1.005-1.938,1.938-2.584,3.23
				C39.096,68.646,39.096,68.646,39.096,68.717z M43.33,68.933c-0.646-0.072-1.292-0.072-2.081-0.072
				c1.579-1.364,2.871-3.158,4.091-4.809c0.79,0.071,1.579,0.071,2.368,0.144c-0.574,0.717-1.22,1.507-1.866,2.225
				C45.052,67.21,44.12,68.071,43.33,68.933z M46.058,69.076c0.359-0.431,0.79-0.933,1.148-1.364
				c0.933-1.148,1.794-2.296,2.655-3.445c1.077,0.072,2.226,0.072,3.374,0.144c-1.292,1.794-2.799,3.229-4.235,4.88
				C47.995,69.22,46.99,69.148,46.058,69.076z M53.02,69.65c-0.431-0.072-0.861-0.072-1.436-0.072
				c1.507-1.435,2.655-3.301,3.588-5.024c1.077,0,2.153,0.072,3.23,0.072c-0.646,0.861-1.363,1.65-2.224,2.368
				C55.173,67.928,53.737,68.502,53.02,69.65z M58.546,70.225c-1.005-0.144-2.01-0.215-2.943-0.359
				c0.646-0.502,1.292-1.077,1.866-1.65c1.077-1.077,2.009-2.297,2.799-3.589c1.148,0,2.296,0.072,3.444,0.072
				c-0.718,0.933-1.435,1.794-2.225,2.656C60.556,68.287,59.335,69.148,58.546,70.225z M63.713,70.871
				c-0.718-0.072-1.507-0.144-2.152-0.287c0.574-0.646,1.148-1.364,1.65-1.938c1.077-1.292,2.01-2.583,2.871-3.947
				c1.148,0.072,2.296,0.072,3.445,0.072c-1.005,1.004-2.01,1.938-3.015,2.942C65.507,68.646,64.359,69.65,63.713,70.871z
				 M71.896,90.249c-0.072,0-0.144,0-0.216,0.072c-0.861,0.574-1.651,1.292-2.512,1.938c0.072-1.507,0.215-3.014,0.359-4.522
				c0.933-0.502,1.794-1.076,2.655-1.651C72.11,87.449,71.967,88.885,71.896,90.249z M72.326,84.004
				c-0.144-0.072-0.43,0-0.646,0.144c-0.646,0.431-1.292,0.861-1.938,1.292c0.071-1.077,0.215-2.153,0.287-3.23
				c1.005-0.646,1.867-1.507,2.656-2.368C72.541,81.277,72.397,82.641,72.326,84.004z M72.9,77.473
				c-0.072,0.072-0.215,0.144-0.288,0.215c-0.717,0.718-1.507,1.436-2.368,2.01c0.072-0.574,0.072-1.22,0.144-1.794
				c1.077-0.502,1.938-1.363,2.656-2.297C72.972,76.253,72.972,76.827,72.9,77.473z M73.115,73.957
				c-0.215,0-0.431,0.072-0.574,0.287c-0.574,0.861-1.292,1.507-2.082,1.938c0.072-0.79,0.144-1.651,0.215-2.44
				c0.861-0.359,1.651-1.22,2.297-1.866c0.144-0.072,0.215-0.215,0.359-0.359C73.259,72.306,73.187,73.167,73.115,73.957z
				 M70.459,70.153c0,0.072,0,0.072,0,0.144c-0.502,0.502-0.933,0.933-1.292,1.507c-1.148-0.215-2.296-0.431-3.516-0.646
				c0.718-0.646,1.436-1.436,2.081-2.153c1.292-1.364,2.584-2.727,3.876-4.091c0.071,0,0.143-0.072,0.143-0.144h4.091
				c-0.718,0.717-1.507,1.435-2.297,2.153C72.541,67.856,71.105,68.861,70.459,70.153z M75.34,71.875v-1.363
				c0-0.287-0.071-0.502-0.287-0.646c0.072,0,0.216,0.072,0.287,0.144c0.575,0.215,1.149,0.359,1.723,0.431
				C76.489,70.942,75.914,71.445,75.34,71.875z M77.924,67.785c-0.718-0.072-1.435-0.072-2.225-0.144
				c-0.143-0.072-0.215,0-0.43,0.072c0.934-0.933,1.866-1.866,2.727-2.799h2.871C79.79,65.774,78.713,66.708,77.924,67.785z
				 M83.164,67.712c-0.215-0.287-0.575-0.502-1.005-0.358c-0.646,0.215-1.22,0.287-1.866,0.358c0.144-0.143,0.359-0.358,0.502-0.502
				c0.789-0.861,1.651-1.579,2.512-2.297h2.655l-0.646,0.646C84.599,66.205,83.881,66.923,83.164,67.712z M85.675,70.081h-0.287
				c-0.072,0-0.072,0.071-0.144,0.071V69.65c0-0.718-0.359-1.077-0.861-1.148c0.718-0.574,1.292-1.22,1.938-1.866
				c0.502-0.502,0.933-1.077,1.436-1.579c1.292,0.072,2.583,0.072,3.875,0.072c-0.79,0.789-1.579,1.65-2.44,2.368
				C88.115,68.358,86.751,69.147,85.675,70.081z M93.211,69.22c-1.364,0.072-2.656,0.287-4.019,0.431
				c0.358-0.359,0.718-0.646,1.004-0.933c1.22-1.148,2.297-2.369,3.302-3.732c1.292,0.072,2.655,0.072,3.947,0.072
				c-0.646,0.718-1.363,1.436-2.081,2.082C94.646,67.856,93.857,68.502,93.211,69.22z M95.938,69.076
				c1.292-1.148,2.369-2.512,3.374-3.66c0.072-0.072,0.143-0.215,0.143-0.287h4.522c-1.651,1.005-3.445,2.225-4.953,3.66
				C98.02,68.861,96.943,68.933,95.938,69.076z M101.034,68.717c0.144-0.072,0.216-0.144,0.288-0.215
				c1.148-1.005,2.44-1.938,3.732-2.799c0.215-0.143,0.287-0.358,0.215-0.574h2.584c-1.651,1.076-3.374,2.225-4.881,3.517
				C102.326,68.646,101.752,68.717,101.034,68.717z M108.283,68.717c-0.718,0-1.363-0.072-2.082-0.072
				c1.579-1.148,3.086-2.44,4.594-3.589h2.512c-0.861,0.574-1.651,1.148-2.513,1.723C109.934,67.425,109.001,67.928,108.283,68.717z
				 M111.585,68.861c-0.431,0-0.933,0-1.436-0.072c0.502-0.431,0.933-0.789,1.436-1.148c1.148-0.79,2.225-1.65,3.302-2.44
				c0.071-0.072,0.143-0.072,0.143-0.144c0.502,0.072,1.005,0.072,1.507,0.072C114.887,66.134,112.805,67.282,111.585,68.861z
				 M123.283,61.684c-0.071,0.072-0.071,0.143-0.143,0.215c-6.675,2.081-17.871,0.287-24.618,0.861
				c-7.823,0-15.718-0.072-23.542-0.287c-16.22-0.431-32.656-2.153-48.876-1.866c2.799-12.775,1.938-27.129,0.861-40.264
				c0.789-1.005,1.579-2.082,2.44-3.014h2.584c-1.364,1.436-2.728,2.727-4.02,4.163c-0.215,0.287,0.072,0.718,0.359,0.502
				c1.722-1.22,3.158-2.943,4.521-4.593h2.082c-1.794,1.65-3.517,3.445-4.953,5.383c-0.215,0.359,0.287,0.717,0.575,0.431
				c1.793-1.938,3.517-3.876,5.454-5.742h1.364c-1.507,1.722-3.158,3.301-4.666,5.024c-0.287,0.287,0.144,0.718,0.431,0.431
				c1.866-1.507,3.445-3.517,4.953-5.455h1.076c-1.148,1.22-2.296,2.368-3.301,3.66c-0.144,0.287,0.144,0.574,0.358,0.359
				c1.221-1.292,2.297-2.584,3.445-3.947h2.584c-1.22,1.148-2.44,2.296-3.588,3.445c-0.215,0.287,0.143,0.646,0.431,0.431
				c1.363-1.148,2.655-2.44,3.875-3.804h1.65c-1.363,1.004-2.512,2.296-3.517,3.517c-0.287,0.215,0.072,0.574,0.359,0.359
				c1.507-1.148,2.655-2.727,4.163-3.875h2.656c-1.149,0.789-2.296,1.65-3.086,2.799c-0.215,0.287,0.215,0.574,0.431,0.359
				c1.077-1.005,2.082-2.009,3.302-2.871c0.143-0.072,0.143-0.215,0.143-0.287h2.512c-1.148,0.861-2.368,1.722-3.445,2.583
				c-0.287,0.287,0.072,0.79,0.431,0.574c1.435-0.79,2.727-1.938,4.019-3.014c0-0.072,0-0.072,0-0.072h0.861
				c-0.933,0.646-1.723,1.435-2.369,2.296c-0.215,0.359,0.288,0.718,0.575,0.431c1.005-0.933,1.938-1.866,3.014-2.727h1.507
				c-0.718,0.646-1.436,1.363-2.081,2.153c-0.145,0.215,0.071,0.646,0.358,0.431c1.077-0.646,2.01-1.651,2.871-2.583
				c2.368,0.072,4.736,0.072,7.105,0.072c-1.363,1.005-2.727,1.938-3.948,3.086c-0.215,0.215,0.072,0.574,0.359,0.431
				c1.723-0.79,3.229-2.225,4.665-3.517h1.723c-1.077,0.933-2.296,1.722-3.373,2.655c-0.359,0.287,0.072,0.718,0.431,0.574
				c1.363-0.646,2.512-1.723,3.588-2.728c0.143-0.143,0.143-0.358,0-0.502h1.722c-1.076,0.933-2.225,1.866-2.942,3.014
				c-0.215,0.287,0.216,0.574,0.502,0.359c1.149-1.005,2.082-2.225,3.23-3.229c0.072,0,0.072-0.072,0.072-0.144h1.579
				c-1.005,0.717-2.082,1.507-2.943,2.368c-0.287,0.287,0.072,0.79,0.431,0.574c1.292-0.861,2.368-1.938,3.517-2.942h2.871
				c0.073,0,0.073,0,0.073,0c-0.934,0.79-2.01,1.507-3.015,2.296c-0.359,0.215-0.072,0.79,0.359,0.574
				c1.363-0.718,2.583-1.794,3.732-2.871h2.153c-1.221,0.933-2.369,1.938-3.445,3.014c-0.287,0.287,0.071,0.718,0.358,0.502
				c1.436-1.077,2.728-2.296,4.02-3.517c0.79,0.071,1.579,0.071,2.368,0.071c-1.22,1.005-2.583,1.866-3.732,2.943
				c-0.215,0.215,0,0.646,0.287,0.502c1.651-0.718,3.086-2.153,4.378-3.373c0-0.072,0-0.072,0-0.072h2.225
				c-1.292,0.934-2.584,1.866-3.804,2.943c-0.287,0.215,0.072,0.574,0.287,0.431c1.507-1.077,2.942-2.225,4.378-3.374
				c1.22,0,2.512,0,3.732,0.072c-1.22,0.933-2.512,1.794-3.732,2.799c-0.287,0.215,0.072,0.574,0.287,0.431
				c1.507-0.718,2.943-2.01,4.234-3.158c1.077,0,2.153,0.072,3.23,0.072c-1.077,0.79-2.154,1.651-3.23,2.512
				c-0.215,0.215,0.072,0.646,0.359,0.431c1.292-0.933,2.512-1.938,3.731-2.943c0.718,0,1.436,0.072,2.153,0.072
				c-1.363,0.789-2.727,1.65-4.091,2.583c-0.358,0.215-0.071,0.718,0.288,0.502c1.651-0.933,3.229-2.01,4.88-3.086
				c0.502,0.071,1.005,0.071,1.507,0.071c-1.292,0.861-2.583,1.794-3.732,2.799c-0.144,0.144,0.072,0.502,0.288,0.359
				c1.507-0.933,2.871-2.082,4.306-3.158c1.938,0.072,3.947,0.144,5.886,0.144c-1.723,1.004-3.445,2.009-4.952,3.229
				c-0.288,0.287,0.072,0.646,0.358,0.502c2.082-1.077,4.02-2.44,5.957-3.732h1.221c-1.579,1.004-3.23,2.081-4.809,3.158
				c-0.288,0.144,0,0.574,0.286,0.431c1.938-1.077,3.732-2.369,5.455-3.661h0.861c-1.507,1.005-3.015,2.01-4.521,3.015
				c-0.216,0.144,0,0.574,0.287,0.431c1.866-1.077,3.588-2.297,5.239-3.517h1.364c-1.579,1.22-3.301,2.225-5.024,3.23
				c-0.287,0.144,0,0.574,0.287,0.431c2.153-0.933,4.02-2.225,5.814-3.732c1.22-0.072,2.44-0.072,3.66-0.144
				c-2.01,1.436-4.163,2.656-6.316,3.876c-0.288,0.144-0.072,0.574,0.215,0.431c2.512-1.22,4.737-2.728,6.89-4.378
				c1.48-0.071,2.96-0.142,4.44-0.28c-2.222,1.647-4.515,3.082-6.809,4.658c-0.287,0.215,0,0.718,0.287,0.502
				c2.368-1.436,4.594-3.086,6.818-4.809c0.215-0.071,0.071-0.287-0.072-0.358c0.646-0.072,1.22-0.072,1.866-0.144
				c0.143,0,0.215-0.072,0.287-0.072c0,0.072,0.072,0.215,0.144,0.287h-0.072c-2.153,1.507-4.235,3.086-6.173,4.809
				c-0.287,0.215,0.072,0.574,0.359,0.359c2.009-1.651,4.019-3.23,6.101-4.737c0,0,0.071-0.072,0.071-0.144
				c0.359,0.287,0.646,0.646,0.933,0.933c-2.009,1.723-4.091,3.445-6.172,5.024c-0.287,0.215-0.071,0.646,0.215,0.431
				c2.225-1.507,4.235-3.301,6.245-5.096c0.502,0.502,1.004,1.077,1.507,1.579c-0.072,0.072-0.072,0.072-0.144,0.072
				c-1.866,1.507-3.804,2.943-5.598,4.521c-0.215,0.144,0.072,0.502,0.287,0.359c2.01-1.436,3.875-3.014,5.742-4.521
				c0.072,0,0.072-0.072,0.072-0.072c0.287,0.215,0.502,0.502,0.79,0.79c-1.579,1.436-3.23,2.871-4.809,4.378
				c-0.216,0.215,0.144,0.574,0.358,0.359c1.723-1.364,3.374-2.799,4.952-4.306c0.718,0.79,1.507,1.579,2.297,2.368
				c-1.363,1.148-2.727,2.225-4.019,3.445c-0.215,0.215,0.072,0.646,0.287,0.431c1.364-1.077,2.727-2.225,4.091-3.374
				c0.431,0.431,0.79,0.861,1.22,1.22c-1.22,1.148-2.512,2.225-3.804,3.301c-0.144,0.144,0.071,0.502,0.287,0.359
				c1.507-0.933,2.799-2.01,4.019-3.23c0.359,0.359,0.718,0.718,1.077,1.077c-1.22,1.005-2.44,2.01-3.661,3.014
				c-0.287,0.216,0.072,0.574,0.359,0.359c1.221-1.004,2.44-2.01,3.661-3.014c0.502,0.431,0.933,0.861,1.363,1.292
				c-1.292,1.004-2.655,2.01-4.019,3.014c-0.287,0.215-0.072,0.574,0.216,0.431c1.507-0.861,2.871-1.938,4.163-3.086
				c0.431,0.431,0.79,0.79,1.148,1.148c-1.077,0.861-2.153,1.723-3.229,2.584c-0.215,0.144,0,0.502,0.215,0.359
				c1.22-0.79,2.297-1.723,3.373-2.656c0.215,0.287,0.502,0.502,0.79,0.79c-1.077,0.861-2.153,1.722-3.229,2.512
				c-0.216,0.144-0.072,0.431,0.143,0.287c1.221-0.718,2.297-1.579,3.374-2.512c0.431,0.359,0.79,0.79,1.22,1.22
				c-0.933,0.574-1.938,1.22-2.871,1.794c-0.216,0.144,0,0.503,0.215,0.359c1.005-0.574,2.01-1.22,2.943-1.866
				c0.574,0.502,1.077,1.077,1.579,1.579c-0.933,0.574-1.938,1.148-2.799,1.866c-0.144,0.144,0.071,0.359,0.216,0.287
				c1.004-0.574,2.009-1.22,2.942-1.866c0.358,0.431,0.789,0.79,1.148,1.22c-0.861,0.431-1.722,0.933-2.512,1.436
				c-0.215,0.072-0.072,0.359,0.144,0.287c0.861-0.431,1.722-1.005,2.512-1.507c0.359,0.43,0.718,0.789,1.077,1.148
				c-0.789,0.646-1.579,1.148-2.368,1.794c-0.144,0.144,0.071,0.359,0.215,0.287c0.861-0.574,1.651-1.22,2.44-1.794
				c0.215,0.287,0.503,0.502,0.718,0.79C140.006,47.473,131.107,54.076,123.283,61.684z"/>

				<path fill="#FFFFFF" d="M144.838,40.852c0,0-20.711-16.928-25.005-18.219c-4.294-1.292-34.314-2.357-36.661-2.065
		c-2.347,0.292-20.601,0.19-24.491,0c-3.89-0.19-18.354,0.292-21.005,0.533c-2.652,0.241-7.542,1.164-7.542,1.164l-2.213,0.737
		l-3.263-0.455c0,0,1.959,32.212-1.311,38.886c0,0,92.913,4.746,98.939,1.853c6.026-2.893,24.588-20.972,24.588-20.972
		L144.838,40.852z"></path>


			
		</g>
	</g>
	<text transform="matrix(1 0 0 1 30.0439 50.9258)" fill="#1D1D1D" font-family="'Kraftstoff-Regular'" font-size="20.376">Cabalgata</text>
</g>
</svg>