<?xml version="1.0" encoding="utf-8"?>
<!-- Generator: Adobe Illustrator 16.0.0, SVG Export Plug-In . SVG Version: 6.00 Build 0)  -->
<!DOCTYPE svg PUBLIC "-//W3C//DTD SVG 1.1//EN" "http://www.w3.org/Graphics/SVG/1.1/DTD/svg11.dtd">
<svg version="1.1" id="Layer_1" xmlns="http://www.w3.org/2000/svg" xmlns:xlink="http://www.w3.org/1999/xlink" x="0px" y="0px"
	 width="157.333px" height="106.667px" viewBox="0 0 157.333 106.667" enable-background="new 0 0 157.333 106.667"
	 xml:space="preserve">
<g>
	<g>
	<path fill="#FFFFFF" d="M7.771,40.167c2.868,4.301,6.716,7.773,10.565,11.168c4.905,4.302,9.811,8.679,14.866,12.679
		c0.151,0.15,0.377,0.226,0.528,0.226c0.076,0,0.076,0.075,0.076,0.075c2.189,1.358,4.301,2.792,6.49,4.151
		c1.886,1.207,4,3.019,6.188,3.471c0.377,0.076,0.679,0,0.905-0.151c8.603,1.661,17.961,1.509,26.564,0.755
		c0.227,0.075,0.377,0.15,0.604,0.15h0.302c-0.458,8.003-0.525,16.006-0.63,24.01c1.417,0.224,2.832,0.459,4.246,0.702
		c-0.309-0.289-0.611-0.577-0.899-0.865c0-0.453,0-0.905,0.076-1.283c0.83,0.83,1.736,1.509,2.641,2.113
		c0.227,0.151,0.528-0.226,0.302-0.453c-0.981-0.905-1.962-1.735-2.943-2.641c0-0.83,0.075-1.584,0.075-2.415
		c0.528,0.454,1.057,0.906,1.585,1.359c0.302,0.227,0.679-0.302,0.377-0.528c-0.604-0.604-1.283-1.132-1.962-1.66
		c0-0.528,0-1.057,0.076-1.66c0.68,0.679,1.283,1.283,2.038,1.812c0.302,0.226,0.754-0.151,0.453-0.453
		c-0.831-0.755-1.661-1.51-2.416-2.339c0-0.83,0-1.66,0.076-2.49c0.981,0.755,2.037,1.358,3.169,1.886
		c0.302,0.151,0.453-0.377,0.227-0.453c-1.208-0.604-2.265-1.283-3.396-2.038v-2.188c0.83,0.83,1.735,1.66,2.641,2.415
		c0.227,0.15,0.529-0.227,0.303-0.377c-0.906-0.981-1.887-1.887-2.943-2.717v-1.509c0.83,0.83,1.735,1.66,2.792,2.339
		c0.227,0.15,0.528-0.227,0.302-0.453c-0.981-0.906-2.038-1.811-3.094-2.716v-1.057c0.905,0.83,1.886,1.66,2.868,2.264
		c0.226,0.151,0.528-0.227,0.302-0.377c-1.057-0.906-2.113-1.736-3.169-2.641v-1.812c0.981,0.83,2.037,1.66,3.169,2.339
		c0.227,0.151,0.528-0.227,0.302-0.377c-1.057-0.981-2.264-1.886-3.471-2.717v-1.886c1.057,0.906,2.113,1.811,3.32,2.491
		c0.226,0.15,0.377-0.227,0.226-0.378c-1.207-0.83-2.415-1.735-3.546-2.716v-0.528c0.076-0.151,0.076-0.302,0.076-0.453
		c0-0.227,0-0.453-0.076-0.755c1.132,1.057,2.264,2.113,3.471,3.019c0.226,0.151,0.528-0.227,0.302-0.453
		c-1.208-1.132-2.49-2.264-3.697-3.396c0.754,0.302,1.509,0.604,2.264,0.755c1.056,0.98,2.112,1.886,3.245,2.716
		c0.227,0.151,0.528-0.226,0.302-0.377c-0.906-0.754-1.811-1.434-2.641-2.188c0.453,0.075,0.906,0.075,1.358,0.075
		c0.83,0.754,1.661,1.509,2.641,2.188c-0.13,8.167-0.16,16.476,0.011,24.791c1.805,0.335,3.608,0.676,5.411,1.017
		c-0.046-0.05-0.095-0.098-0.14-0.149c-0.302-0.302-0.679-0.227-0.906-0.076c-0.075-1.66-0.226-3.245-0.302-4.905
		c0.603,0.604,1.283,1.132,1.962,1.66c0.302,0.377,0.604,0.604,0.981,0.831c0.098,0.978,0.165,1.986,0.24,2.986
		c1.21,0.229,2.42,0.456,3.631,0.681c-0.566-5.655-1.33-11.282-2.286-16.797c0-0.151,0-0.377-0.075-0.528
		c-0.528-2.943-1.057-5.887-1.735-8.754c0.075-0.075,0.075-0.151,0.075-0.151c17.96,0.604,36.601-1.66,54.411-3.169
		c0.076,0,0.151,0,0.151-0.076c0.679,0.377,1.735-0.075,1.811-0.981c0.377-17.282-0.528-34.639-0.227-52.147
		c0-0.453-0.15-0.83-0.453-0.981c0,0,0-0.076-0.075-0.076c-0.906-1.207-2.642-1.886-3.924-2.641c-1.358-0.83-2.792-1.736-4.15-2.565
		c-0.68-0.377-1.358,0-1.661,0.604c-0.227-0.227-0.604-0.377-0.981-0.377c-17.357,0.151-34.714,0.302-52.071,0.755
		c-17.207,0.453-35.016-1.132-52.071,1.132c-0.227,0-0.377,0.151-0.528,0.226c-0.377-0.453-0.981-0.679-1.585-0.226
		c-4.754,3.547-8.98,7.622-13.131,11.773C13.959,29.225,8.978,33.3,6.639,37.903C6.111,38.884,6.94,40.016,7.771,40.167z
		 M136.589,15.038c-0.075,0.604-0.075,1.283-0.15,1.887c-0.529-0.679-1.131-1.283-1.735-1.887H136.589z M139.759,49.223
		c0.453,0.528,0.831,1.132,1.283,1.66c1.057,1.283,2.113,2.792,3.547,3.773c0.15,1.962,0.302,3.924,0.453,5.811
		c-0.981-1.207-2.188-2.188-3.245-3.396c-0.83-0.981-1.584-2.037-2.264-3.094C139.608,52.393,139.684,50.808,139.759,49.223z
		 M139.835,39.94c0-1.735-0.076-3.471-0.076-5.131c1.283,1.811,2.717,3.698,4.453,5.056c0,1.585-0.075,3.169,0,4.754
		C142.702,43.11,141.193,41.601,139.835,39.94z M144.287,47.034c0,1.736,0.076,3.472,0.151,5.208
		c-0.679-0.755-1.434-1.434-2.038-2.188c-0.905-0.981-1.736-2.038-2.565-3.019v-4.452C141.117,44.243,142.627,45.751,144.287,47.034
		z M139.759,33.979c0-1.509-0.075-3.019-0.075-4.453c0.528,0.604,1.132,1.132,1.66,1.736c0.98,0.98,1.887,2.037,3.019,2.943
		c0,1.358-0.075,2.792-0.151,4.226c-0.604-0.528-1.208-1.057-1.736-1.585c-0.905-0.906-1.811-1.812-2.641-2.792
		C139.835,34.054,139.759,34.054,139.759,33.979z M139.608,23.942c1.434,1.736,3.169,3.622,5.056,4.98
		c-0.076,1.057-0.151,2.189-0.151,3.245c-0.68-0.679-1.359-1.358-2.038-2.038c-0.905-0.905-1.886-1.811-2.792-2.717
		C139.684,26.282,139.684,25.074,139.608,23.942z M139.608,22.508v-4.527c0.981,1.056,1.962,2.113,3.019,3.169
		c0.83,0.831,1.584,1.661,2.49,2.34c-0.076,1.283-0.227,2.49-0.302,3.773c-0.528-0.377-0.981-0.754-1.509-1.207
		c-1.208-1.057-2.34-2.189-3.321-3.396C139.91,22.508,139.759,22.508,139.608,22.508z M145.419,19.188
		c-0.076,0.453-0.076,0.981-0.151,1.434c-0.453-0.377-0.905-0.755-1.434-1.208c-1.283-1.056-2.565-2.113-3.849-3.094
		c-0.15-0.075-0.226-0.151-0.377-0.151c0-0.452,0-0.905,0-1.434c0.905,0.679,1.735,1.358,2.641,2.038
		C143.306,17.603,144.211,18.584,145.419,19.188z M145.721,66.429c-0.604-0.754-1.434-1.509-2.113-2.188
		c-1.358-1.358-2.717-2.717-4-4.075c-0.227-0.227-0.453-0.227-0.679-0.151c0.151-1.057,0.227-2.188,0.302-3.245
		c0.302,0.377,0.604,0.83,0.906,1.208c1.056,1.434,2.339,3.094,3.923,4c0.377,0.226,0.83,0.075,1.057-0.227
		C145.268,63.335,145.494,64.92,145.721,66.429z M138.703,65.07c-0.755-0.754-1.584-1.434-2.415-2.188
		c0.453-0.075,0.906-0.075,1.434-0.151c0.076,0,0.076,0,0.151-0.075c0.302,0.226,0.755,0.151,0.83-0.227
		c0.076-0.302,0.076-0.679,0.076-0.981c1.132,1.283,2.188,2.642,3.321,3.924c1.056,1.208,2.112,2.717,3.547,3.472
		c-1.283,0-2.566,0-3.849,0.075v-0.226C141.57,67.184,139.759,66.052,138.703,65.07z M133.042,65.599
		c-0.754-0.679-1.509-1.358-2.339-2.038c1.208-0.151,2.415-0.302,3.622-0.453c0.981,1.132,1.962,2.188,3.019,3.32
		c0.679,0.755,1.434,1.887,2.415,2.566c-1.132,0-2.264,0.076-3.396,0.076C135.76,67.562,134.175,66.58,133.042,65.599z
		 M126.553,65.373c-0.529-0.453-1.057-0.831-1.585-1.208c1.056-0.075,2.038-0.227,3.019-0.302c0.151,0.302,0.302,0.529,0.604,0.831
		c0.076,0.075,0.227,0.075,0.302,0.075c0.754,0.906,1.66,1.736,2.491,2.49c0.603,0.604,1.132,1.283,1.811,1.887
		c-1.208,0.151-2.415,0.151-3.623,0.227c0-0.076,0-0.151,0-0.151C129.194,67.712,127.685,66.429,126.553,65.373z M123.534,69.448
		c-0.679-1.359-1.66-2.339-2.717-3.396c-0.528-0.528-0.981-0.981-1.509-1.51c0.981-0.075,1.962-0.15,2.943-0.226
		c1.057,0.83,1.963,1.736,2.868,2.641c0.679,0.755,1.359,1.66,2.114,2.415c-1.208,0.151-2.416,0.151-3.623,0.227
		C123.609,69.523,123.609,69.523,123.534,69.448z M116.516,67.184c-0.679-0.755-1.358-1.585-1.962-2.339
		c0.83-0.076,1.66-0.076,2.49-0.151c1.283,1.735,2.641,3.622,4.301,5.056c-0.83,0-1.509,0-2.188,0.075
		C118.327,68.919,117.346,68.014,116.516,67.184z M113.195,70.202c-1.509-1.735-3.094-3.245-4.453-5.132
		c1.208-0.075,2.415-0.075,3.547-0.15c0.905,1.207,1.811,2.415,2.792,3.622c0.377,0.453,0.83,0.981,1.208,1.434
		C115.308,70.051,114.252,70.127,113.195,70.202z M105.648,67.788c-0.905-0.755-1.66-1.585-2.339-2.49
		c1.132,0,2.264-0.076,3.396-0.076c0.981,1.811,2.188,3.773,3.773,5.282c-0.604,0-1.057,0-1.509,0.076
		C108.214,69.372,106.705,68.768,105.648,67.788z M100.064,68.165c-0.83-0.906-1.584-1.812-2.339-2.792
		c1.208,0,2.415-0.075,3.622-0.075c0.83,1.358,1.811,2.641,2.943,3.773c0.604,0.604,1.283,1.208,1.962,1.736
		c-0.981,0.151-2.037,0.226-3.094,0.377C102.329,70.052,101.045,69.146,100.064,68.165z M94.782,68.542
		c-1.057-1.056-2.113-2.038-3.17-3.094c1.208,0,2.415,0,3.623-0.075c0.906,1.434,1.886,2.792,3.019,4.151
		c0.528,0.604,1.132,1.358,1.735,2.037c-0.679,0.151-1.508,0.227-2.263,0.302C97.046,70.58,95.839,69.523,94.782,68.542z
		 M88.821,87.861c0.905,0.604,1.811,1.208,2.791,1.736c0.152,1.585,0.303,3.17,0.378,4.754c-0.906-0.679-1.736-1.434-2.642-2.038
		c-0.076-0.076-0.151-0.076-0.227-0.076C89.046,90.804,88.896,89.294,88.821,87.861z M88.292,81.296
		c0.83,0.905,1.735,1.811,2.792,2.49c0.075,1.132,0.227,2.264,0.301,3.396c-0.679-0.453-1.358-0.906-2.037-1.359
		c-0.227-0.151-0.528-0.226-0.679-0.151C88.594,84.239,88.443,82.805,88.292,81.296z M87.914,76.843
		c0.755,0.981,1.661,1.886,2.792,2.415c0.076,0.604,0.076,1.283,0.151,1.887c-0.905-0.604-1.735-1.358-2.49-2.113
		c-0.076-0.076-0.227-0.151-0.303-0.227C87.99,78.126,87.99,77.522,87.914,76.843z M87.613,72.542
		c0.151,0.151,0.227,0.302,0.377,0.377c0.679,0.679,1.509,1.585,2.415,1.962c0.075,0.83,0.15,1.736,0.226,2.566
		c-0.83-0.453-1.585-1.132-2.188-2.038c-0.151-0.226-0.377-0.302-0.604-0.302C87.764,74.277,87.688,73.372,87.613,72.542z
		 M87.387,67.712c-0.831-0.754-1.661-1.509-2.415-2.264h4.301c0,0.076,0.076,0.151,0.15,0.151c1.359,1.434,2.717,2.868,4.076,4.301
		c0.679,0.755,1.434,1.585,2.188,2.264c-1.283,0.227-2.49,0.453-3.697,0.679c-0.378-0.604-0.831-1.057-1.359-1.585
		c0-0.075,0-0.075,0-0.151C89.952,69.75,88.443,68.693,87.387,67.712z M83.688,71.41c0.604-0.075,1.208-0.226,1.812-0.453
		c0.075-0.076,0.226-0.151,0.302-0.151c-0.227,0.151-0.302,0.377-0.302,0.679v1.434C84.896,72.466,84.292,71.938,83.688,71.41z
		 M79.688,65.599h3.019c0.905,0.981,1.886,1.962,2.868,2.943c-0.226-0.075-0.303-0.151-0.453-0.075
		c-0.831,0.075-1.585,0.075-2.339,0.151C81.953,67.486,80.821,66.504,79.688,65.599z M75.01,66.278l-0.679-0.679h2.792
		c0.905,0.754,1.812,1.509,2.641,2.415c0.151,0.151,0.377,0.377,0.529,0.528c-0.68-0.075-1.284-0.151-1.962-0.377
		c-0.453-0.151-0.831,0.075-1.057,0.377C76.519,67.712,75.765,66.957,75.01,66.278z M70.935,68.315
		c-0.906-0.754-1.736-1.66-2.566-2.49c1.358,0,2.717,0,4.075-0.075c0.528,0.528,0.981,1.132,1.509,1.66
		c0.679,0.679,1.283,1.358,2.038,1.962c-0.528,0.076-0.905,0.453-0.905,1.208v0.528c-0.076,0-0.076-0.075-0.151-0.075h-0.302
		C73.501,70.051,72.067,69.221,70.935,68.315z M64.445,67.938c-0.755-0.679-1.51-1.434-2.188-2.188c1.358,0,2.792,0,4.15-0.076
		c1.057,1.434,2.189,2.717,3.472,3.924c0.302,0.302,0.679,0.604,1.057,0.981c-1.434-0.151-2.792-0.377-4.226-0.453
		C66.03,69.372,65.2,68.693,64.445,67.938z M60.596,69.674c-1.585-1.509-3.471-2.792-5.207-3.848h4.754
		c0,0.075,0.075,0.226,0.15,0.301c1.057,1.208,2.189,2.642,3.547,3.849C62.785,69.825,61.653,69.75,60.596,69.674z M56.446,69.523
		c-1.584-1.358-3.396-2.566-5.132-3.698h2.717c-0.075,0.226,0,0.453,0.226,0.603c1.359,0.906,2.717,1.887,3.924,2.944
		c0.076,0.075,0.151,0.151,0.302,0.226C57.729,69.599,57.125,69.523,56.446,69.523z M48.22,67.561
		c-0.906-0.604-1.736-1.208-2.642-1.811h2.641c1.585,1.207,3.17,2.565,4.83,3.773c-0.755,0-1.434,0.076-2.188,0.076
		C50.106,68.768,49.125,68.24,48.22,67.561z M42.183,65.826c0.528,0,1.057,0,1.585-0.076c0,0.076,0.076,0.076,0.151,0.151
		c1.131,0.83,2.264,1.736,3.471,2.566c0.529,0.377,0.981,0.754,1.51,1.207c-0.528,0.076-1.057,0.076-1.51,0.076
		C46.107,68.089,43.918,66.882,42.183,65.826z M9.657,38.96c0.227-0.302,0.528-0.528,0.755-0.831c0.83,0.604,1.66,1.284,2.566,1.887
		c0.151,0.076,0.377-0.15,0.227-0.302c-0.831-0.679-1.661-1.207-2.491-1.886c0.377-0.378,0.754-0.755,1.132-1.208
		c0.83,0.528,1.735,1.132,2.641,1.584c0.226,0.076,0.377-0.227,0.151-0.302c-0.83-0.528-1.736-1.057-2.642-1.509
		c0.377-0.453,0.831-0.83,1.208-1.283c0.98,0.68,2.037,1.359,3.094,1.962c0.151,0.076,0.377-0.151,0.226-0.302
		c-0.905-0.755-1.962-1.358-2.943-1.962c0.528-0.528,1.057-1.132,1.66-1.661c0.981,0.679,2.038,1.358,3.094,1.962
		c0.226,0.151,0.453-0.226,0.226-0.377c-0.981-0.604-2.038-1.283-3.018-1.887c0.452-0.453,0.83-0.906,1.283-1.283
		c1.132,0.981,2.264,1.887,3.547,2.641c0.227,0.151,0.377-0.151,0.151-0.302c-1.132-0.83-2.264-1.736-3.396-2.641
		c0.302-0.302,0.604-0.528,0.83-0.83c1.132,0.98,2.264,1.962,3.547,2.792c0.227,0.151,0.453-0.227,0.227-0.377
		c-1.132-0.906-2.264-1.811-3.396-2.717c0.377-0.377,0.754-0.754,1.207-1.208c1.358,1.208,2.792,2.34,4.377,3.245
		c0.302,0.151,0.528-0.227,0.226-0.453c-1.434-1.057-2.868-2.113-4.226-3.169c0.453-0.453,0.906-0.906,1.434-1.358
		c1.283,1.056,2.566,2.113,3.849,3.169c0.302,0.227,0.679-0.151,0.377-0.377c-1.283-1.057-2.566-2.113-3.849-3.169
		c0.377-0.377,0.754-0.754,1.132-1.132c1.283,1.283,2.641,2.415,4.226,3.396c0.227,0.151,0.453-0.227,0.302-0.378
		c-1.358-1.132-2.717-2.264-4-3.471c0.453-0.378,0.83-0.831,1.283-1.283c1.434,1.208,2.868,2.415,4.301,3.547
		c0.227,0.227,0.529-0.227,0.302-0.453c-1.358-1.283-2.792-2.415-4.226-3.623c0.83-0.83,1.66-1.66,2.415-2.49
		c1.66,1.584,3.396,3.094,5.207,4.528c0.227,0.227,0.604-0.151,0.378-0.377c-1.661-1.584-3.396-3.094-5.057-4.603
		c0.302-0.302,0.528-0.604,0.831-0.83c0,0,0,0.075,0.075,0.075c1.962,1.584,3.924,3.245,6.037,4.754
		c0.226,0.151,0.528-0.226,0.302-0.377c-1.886-1.66-3.924-3.169-5.886-4.754c-0.076,0-0.076,0-0.151-0.075
		c0.528-0.528,1.057-1.132,1.585-1.661c2.113,1.887,4.226,3.773,6.565,5.358c0.302,0.226,0.528-0.227,0.227-0.453
		c-2.189-1.66-4.377-3.472-6.49-5.283c0.302-0.301,0.604-0.679,0.981-0.98c0,0.075,0.075,0.151,0.075,0.151
		c2.189,1.585,4.302,3.245,6.415,4.98c0.302,0.227,0.679-0.151,0.377-0.377c-2.038-1.812-4.226-3.472-6.49-5.056h-0.076
		c0.076-0.076,0.151-0.227,0.151-0.302c0.075,0,0.15,0.076,0.302,0.076c0.679,0.075,1.283,0.075,1.962,0.151
		c-0.151,0.076-0.302,0.302-0.075,0.377c2.339,1.811,4.679,3.547,7.169,5.056c0.302,0.227,0.604-0.301,0.302-0.528
		c-2.412-1.658-4.823-3.166-7.159-4.898c1.557,0.146,3.113,0.221,4.669,0.295c2.264,1.735,4.604,3.32,7.245,4.604
		c0.302,0.151,0.528-0.302,0.226-0.453c-2.264-1.284-4.527-2.566-6.641-4.075c1.283,0.075,2.566,0.075,3.849,0.151
		c1.887,1.585,3.849,2.943,6.113,3.924c0.302,0.151,0.604-0.302,0.302-0.453c-1.811-1.057-3.623-2.113-5.283-3.396h1.434
		c1.736,1.283,3.547,2.565,5.509,3.698c0.302,0.151,0.529-0.302,0.302-0.453c-1.585-1.057-3.169-2.113-4.754-3.17h0.906
		c1.811,1.358,3.697,2.717,5.735,3.849c0.301,0.151,0.604-0.302,0.301-0.453c-1.66-1.132-3.396-2.264-5.056-3.32h1.283
		c2.038,1.358,4.075,2.792,6.264,3.924c0.302,0.151,0.679-0.226,0.377-0.528c-1.584-1.283-3.396-2.339-5.207-3.396
		c2.038,0,4.151-0.076,6.188-0.151c1.509,1.132,2.943,2.339,4.528,3.321c0.227,0.151,0.453-0.227,0.302-0.377
		c-1.208-1.057-2.565-2.038-3.924-2.943c0.528,0,1.056,0,1.584-0.075c1.736,1.132,3.396,2.264,5.131,3.245
		c0.377,0.226,0.68-0.302,0.303-0.528c-1.434-0.981-2.868-1.887-4.302-2.717c0.755,0,1.509-0.076,2.264-0.076
		c1.283,1.057,2.565,2.113,3.924,3.094c0.302,0.227,0.604-0.227,0.377-0.453c-1.132-0.905-2.264-1.811-3.396-2.641
		c1.133,0,2.265-0.075,3.396-0.075c1.358,1.207,2.868,2.565,4.453,3.32c0.226,0.151,0.604-0.227,0.302-0.453
		c-1.283-1.057-2.642-1.962-3.924-2.943c1.282-0.076,2.641-0.076,3.924-0.076c1.509,1.208,3.018,2.415,4.603,3.547
		c0.226,0.151,0.604-0.227,0.302-0.453c-1.283-1.132-2.641-2.113-4-3.094h2.339c0,0,0,0,0,0.076
		c1.358,1.283,2.868,2.792,4.604,3.547c0.302,0.151,0.528-0.302,0.302-0.528c-1.208-1.132-2.642-2.038-3.924-3.094
		c0.83,0,1.66,0,2.49-0.075c1.359,1.283,2.717,2.565,4.226,3.698c0.302,0.227,0.679-0.227,0.377-0.528
		c-1.132-1.132-2.339-2.188-3.622-3.169h2.264c1.208,1.132,2.491,2.264,3.924,3.018c0.453,0.227,0.755-0.377,0.377-0.603
		c-1.056-0.831-2.188-1.585-3.17-2.415c0,0,0,0,0.077,0h3.019c1.207,1.057,2.339,2.188,3.697,3.094
		c0.377,0.226,0.754-0.302,0.453-0.604c-0.906-0.906-2.038-1.736-3.094-2.49h1.66c0,0.075,0,0.151,0.076,0.151
		c1.208,1.056,2.188,2.339,3.396,3.396c0.302,0.227,0.755-0.076,0.528-0.377c-0.754-1.207-1.962-2.188-3.094-3.169h1.811
		c-0.151,0.151-0.151,0.377,0,0.528c1.132,1.057,2.339,2.189,3.773,2.868c0.377,0.151,0.83-0.302,0.453-0.604
		C96.442,17.83,95.16,17,94.028,16.019h1.811c1.51,1.358,3.094,2.868,4.905,3.698c0.302,0.151,0.604-0.227,0.377-0.453
		c-1.283-1.208-2.717-2.188-4.15-3.245c2.49,0,4.98,0,7.471-0.075c0.906,0.981,1.887,2.038,3.019,2.716
		c0.302,0.227,0.528-0.226,0.377-0.453c-0.679-0.83-1.434-1.584-2.188-2.264h1.585c1.132,0.905,2.112,1.886,3.169,2.867
		c0.302,0.302,0.831-0.075,0.604-0.453c-0.679-0.906-1.51-1.735-2.491-2.415h0.906c0,0,0,0,0,0.075
		c1.358,1.132,2.717,2.339,4.226,3.169c0.377,0.227,0.754-0.302,0.453-0.604c-1.132-0.905-2.415-1.811-3.623-2.716h2.642
		c0,0.076,0,0.226,0.151,0.302c1.283,0.906,2.339,1.962,3.472,3.019c0.227,0.227,0.679-0.075,0.453-0.377
		c-0.831-1.208-2.038-2.113-3.245-2.943h2.792c1.584,1.208,2.792,2.868,4.376,4.075c0.302,0.227,0.68-0.151,0.377-0.377
		c-1.056-1.283-2.264-2.641-3.698-3.698h1.736c1.283,1.434,2.641,2.792,4.075,4c0.302,0.227,0.679-0.151,0.453-0.453
		c-1.208-1.208-2.491-2.415-3.773-3.623h2.717c1.207,1.434,2.339,2.792,3.622,4.151c0.227,0.227,0.528-0.076,0.377-0.377
		c-1.056-1.358-2.264-2.566-3.471-3.849h1.132c1.585,2.038,3.245,4.15,5.208,5.735c0.301,0.302,0.754-0.151,0.453-0.453
		c-1.585-1.812-3.321-3.472-4.906-5.283h1.434c2.038,1.962,3.849,4,5.735,6.037c0.303,0.302,0.83-0.076,0.604-0.453
		c-1.509-2.037-3.321-3.924-5.207-5.66h2.188c1.434,1.736,2.944,3.547,4.754,4.83c0.302,0.226,0.604-0.227,0.377-0.528
		c-1.359-1.509-2.792-2.868-4.227-4.377h2.717c0.905,0.98,1.736,2.113,2.565,3.169c-1.132,13.81-2.038,28.903,0.906,42.336
		c-17.055-0.302-34.336,1.509-51.392,1.962c-8.226,0.226-16.527,0.302-24.753,0.302c-7.094-0.604-18.866,1.283-25.885-0.906
		c-0.076-0.076-0.076-0.151-0.15-0.227C26.863,54.204,17.506,47.261,9.657,38.96z"/>
	<g>
		<path fill="none" d="M7.771,40.167c2.868,4.301,6.716,7.773,10.565,11.168c4.905,4.302,9.811,8.679,14.866,12.679
			c0.151,0.15,0.377,0.226,0.528,0.226c0.076,0,0.076,0.075,0.076,0.075c2.189,1.358,4.301,2.792,6.49,4.151
			c1.886,1.207,4,3.019,6.188,3.471c0.377,0.076,0.679,0,0.905-0.151c8.603,1.661,17.961,1.509,26.564,0.755
			c0.227,0.075,0.377,0.15,0.604,0.15h0.302c-0.458,8.003-0.525,16.006-0.63,24.01c1.417,0.224,2.832,0.459,4.246,0.702
			c-0.309-0.289-0.611-0.577-0.899-0.865c0-0.453,0-0.905,0.076-1.283c0.83,0.83,1.736,1.509,2.641,2.113
			c0.227,0.151,0.528-0.226,0.302-0.453c-0.981-0.905-1.962-1.735-2.943-2.641c0-0.83,0.075-1.584,0.075-2.415
			c0.528,0.454,1.057,0.906,1.585,1.359c0.302,0.227,0.679-0.302,0.377-0.528c-0.604-0.604-1.283-1.132-1.962-1.66
			c0-0.528,0-1.057,0.076-1.66c0.68,0.679,1.283,1.283,2.038,1.812c0.302,0.226,0.754-0.151,0.453-0.453
			c-0.831-0.755-1.661-1.51-2.416-2.339c0-0.83,0-1.66,0.076-2.49c0.981,0.755,2.037,1.358,3.169,1.886
			c0.302,0.151,0.453-0.377,0.227-0.453c-1.208-0.604-2.265-1.283-3.396-2.038v-2.188c0.83,0.83,1.735,1.66,2.641,2.415
			c0.227,0.15,0.529-0.227,0.303-0.377c-0.906-0.981-1.887-1.887-2.943-2.717v-1.509c0.83,0.83,1.735,1.66,2.792,2.339
			c0.227,0.15,0.528-0.227,0.302-0.453c-0.981-0.906-2.038-1.811-3.094-2.716v-1.057c0.905,0.83,1.886,1.66,2.868,2.264
			c0.226,0.151,0.528-0.227,0.302-0.377c-1.057-0.906-2.113-1.736-3.169-2.641v-1.812c0.981,0.83,2.037,1.66,3.169,2.339
			c0.227,0.151,0.528-0.227,0.302-0.377c-1.057-0.981-2.264-1.886-3.471-2.717v-1.886c1.057,0.906,2.113,1.811,3.32,2.491
			c0.226,0.15,0.377-0.227,0.226-0.378c-1.207-0.83-2.415-1.735-3.546-2.716v-0.528c0.076-0.151,0.076-0.302,0.076-0.453
			c0-0.227,0-0.453-0.076-0.755c1.132,1.057,2.264,2.113,3.471,3.019c0.226,0.151,0.528-0.227,0.302-0.453
			c-1.208-1.132-2.49-2.264-3.697-3.396c0.754,0.302,1.509,0.604,2.264,0.755c1.056,0.98,2.112,1.886,3.245,2.716
			c0.227,0.151,0.528-0.226,0.302-0.377c-0.906-0.754-1.811-1.434-2.641-2.188c0.453,0.075,0.906,0.075,1.358,0.075
			c0.83,0.754,1.661,1.509,2.641,2.188c-0.13,8.167-0.16,16.476,0.011,24.791c1.805,0.335,3.608,0.676,5.411,1.017
			c-0.046-0.05-0.095-0.098-0.14-0.149c-0.302-0.302-0.679-0.227-0.906-0.076c-0.075-1.66-0.226-3.245-0.302-4.905
			c0.603,0.604,1.283,1.132,1.962,1.66c0.302,0.377,0.604,0.604,0.981,0.831c0.098,0.978,0.165,1.986,0.24,2.986
			c1.21,0.229,2.42,0.456,3.631,0.681c-0.566-5.655-1.33-11.282-2.286-16.797c0-0.151,0-0.377-0.075-0.528
			c-0.528-2.943-1.057-5.887-1.735-8.754c0.075-0.075,0.075-0.151,0.075-0.151c17.96,0.604,36.601-1.66,54.411-3.169
			c0.076,0,0.151,0,0.151-0.076c0.679,0.377,1.735-0.075,1.811-0.981c0.377-17.282-0.528-34.639-0.227-52.147
			c0-0.453-0.15-0.83-0.453-0.981c0,0,0-0.076-0.075-0.076c-0.906-1.207-2.642-1.886-3.924-2.641
			c-1.358-0.83-2.792-1.736-4.15-2.565c-0.68-0.377-1.358,0-1.661,0.604c-0.227-0.227-0.604-0.377-0.981-0.377
			c-17.357,0.151-34.714,0.302-52.071,0.755c-17.207,0.453-35.016-1.132-52.071,1.132c-0.227,0-0.377,0.151-0.528,0.226
			c-0.377-0.453-0.981-0.679-1.585-0.226c-4.754,3.547-8.98,7.622-13.131,11.773C13.959,29.225,8.978,33.3,6.639,37.903
			C6.111,38.884,6.94,40.016,7.771,40.167z M136.589,15.038c-0.075,0.604-0.075,1.283-0.15,1.887
			c-0.529-0.679-1.131-1.283-1.735-1.887H136.589z M139.759,49.223c0.453,0.528,0.831,1.132,1.283,1.66
			c1.057,1.283,2.113,2.792,3.547,3.773c0.15,1.962,0.302,3.924,0.453,5.811c-0.981-1.207-2.188-2.188-3.245-3.396
			c-0.83-0.981-1.584-2.037-2.264-3.094C139.608,52.393,139.684,50.808,139.759,49.223z M139.835,39.94
			c0-1.735-0.076-3.471-0.076-5.131c1.283,1.811,2.717,3.698,4.453,5.056c0,1.585-0.075,3.169,0,4.754
			C142.702,43.11,141.193,41.601,139.835,39.94z M144.287,47.034c0,1.736,0.076,3.472,0.151,5.208
			c-0.679-0.755-1.434-1.434-2.038-2.188c-0.905-0.981-1.736-2.038-2.565-3.019v-4.452
			C141.117,44.243,142.627,45.751,144.287,47.034z M139.759,33.979c0-1.509-0.075-3.019-0.075-4.453
			c0.528,0.604,1.132,1.132,1.66,1.736c0.98,0.98,1.887,2.037,3.019,2.943c0,1.358-0.075,2.792-0.151,4.226
			c-0.604-0.528-1.208-1.057-1.736-1.585c-0.905-0.906-1.811-1.812-2.641-2.792C139.835,34.054,139.759,34.054,139.759,33.979z
			 M139.608,23.942c1.434,1.736,3.169,3.622,5.056,4.98c-0.076,1.057-0.151,2.189-0.151,3.245c-0.68-0.679-1.359-1.358-2.038-2.038
			c-0.905-0.905-1.886-1.811-2.792-2.717C139.684,26.282,139.684,25.074,139.608,23.942z M139.608,22.508v-4.527
			c0.981,1.056,1.962,2.113,3.019,3.169c0.83,0.831,1.584,1.661,2.49,2.34c-0.076,1.283-0.227,2.49-0.302,3.773
			c-0.528-0.377-0.981-0.754-1.509-1.207c-1.208-1.057-2.34-2.189-3.321-3.396C139.91,22.508,139.759,22.508,139.608,22.508z
			 M145.419,19.188c-0.076,0.453-0.076,0.981-0.151,1.434c-0.453-0.377-0.905-0.755-1.434-1.208
			c-1.283-1.056-2.565-2.113-3.849-3.094c-0.15-0.075-0.226-0.151-0.377-0.151c0-0.452,0-0.905,0-1.434
			c0.905,0.679,1.735,1.358,2.641,2.038C143.306,17.603,144.211,18.584,145.419,19.188z M145.721,66.429
			c-0.604-0.754-1.434-1.509-2.113-2.188c-1.358-1.358-2.717-2.717-4-4.075c-0.227-0.227-0.453-0.227-0.679-0.151
			c0.151-1.057,0.227-2.188,0.302-3.245c0.302,0.377,0.604,0.83,0.906,1.208c1.056,1.434,2.339,3.094,3.923,4
			c0.377,0.226,0.83,0.075,1.057-0.227C145.268,63.335,145.494,64.92,145.721,66.429z M138.703,65.07
			c-0.755-0.754-1.584-1.434-2.415-2.188c0.453-0.075,0.906-0.075,1.434-0.151c0.076,0,0.076,0,0.151-0.075
			c0.302,0.226,0.755,0.151,0.83-0.227c0.076-0.302,0.076-0.679,0.076-0.981c1.132,1.283,2.188,2.642,3.321,3.924
			c1.056,1.208,2.112,2.717,3.547,3.472c-1.283,0-2.566,0-3.849,0.075v-0.226C141.57,67.184,139.759,66.052,138.703,65.07z
			 M133.042,65.599c-0.754-0.679-1.509-1.358-2.339-2.038c1.208-0.151,2.415-0.302,3.622-0.453c0.981,1.132,1.962,2.188,3.019,3.32
			c0.679,0.755,1.434,1.887,2.415,2.566c-1.132,0-2.264,0.076-3.396,0.076C135.76,67.562,134.175,66.58,133.042,65.599z
			 M126.553,65.373c-0.529-0.453-1.057-0.831-1.585-1.208c1.056-0.075,2.038-0.227,3.019-0.302c0.151,0.302,0.302,0.529,0.604,0.831
			c0.076,0.075,0.227,0.075,0.302,0.075c0.754,0.906,1.66,1.736,2.491,2.49c0.603,0.604,1.132,1.283,1.811,1.887
			c-1.208,0.151-2.415,0.151-3.623,0.227c0-0.076,0-0.151,0-0.151C129.194,67.712,127.685,66.429,126.553,65.373z M123.534,69.448
			c-0.679-1.359-1.66-2.339-2.717-3.396c-0.528-0.528-0.981-0.981-1.509-1.51c0.981-0.075,1.962-0.15,2.943-0.226
			c1.057,0.83,1.963,1.736,2.868,2.641c0.679,0.755,1.359,1.66,2.114,2.415c-1.208,0.151-2.416,0.151-3.623,0.227
			C123.609,69.523,123.609,69.523,123.534,69.448z M116.516,67.184c-0.679-0.755-1.358-1.585-1.962-2.339
			c0.83-0.076,1.66-0.076,2.49-0.151c1.283,1.735,2.641,3.622,4.301,5.056c-0.83,0-1.509,0-2.188,0.075
			C118.327,68.919,117.346,68.014,116.516,67.184z M113.195,70.202c-1.509-1.735-3.094-3.245-4.453-5.132
			c1.208-0.075,2.415-0.075,3.547-0.15c0.905,1.207,1.811,2.415,2.792,3.622c0.377,0.453,0.83,0.981,1.208,1.434
			C115.308,70.051,114.252,70.127,113.195,70.202z M105.648,67.788c-0.905-0.755-1.66-1.585-2.339-2.49
			c1.132,0,2.264-0.076,3.396-0.076c0.981,1.811,2.188,3.773,3.773,5.282c-0.604,0-1.057,0-1.509,0.076
			C108.214,69.372,106.705,68.768,105.648,67.788z M100.064,68.165c-0.83-0.906-1.584-1.812-2.339-2.792
			c1.208,0,2.415-0.075,3.622-0.075c0.83,1.358,1.811,2.641,2.943,3.773c0.604,0.604,1.283,1.208,1.962,1.736
			c-0.981,0.151-2.037,0.226-3.094,0.377C102.329,70.052,101.045,69.146,100.064,68.165z M94.782,68.542
			c-1.057-1.056-2.113-2.038-3.17-3.094c1.208,0,2.415,0,3.623-0.075c0.906,1.434,1.886,2.792,3.019,4.151
			c0.528,0.604,1.132,1.358,1.735,2.037c-0.679,0.151-1.508,0.227-2.263,0.302C97.046,70.58,95.839,69.523,94.782,68.542z
			 M88.821,87.861c0.905,0.604,1.811,1.208,2.791,1.736c0.152,1.585,0.303,3.17,0.378,4.754c-0.906-0.679-1.736-1.434-2.642-2.038
			c-0.076-0.076-0.151-0.076-0.227-0.076C89.046,90.804,88.896,89.294,88.821,87.861z M88.292,81.296
			c0.83,0.905,1.735,1.811,2.792,2.49c0.075,1.132,0.227,2.264,0.301,3.396c-0.679-0.453-1.358-0.906-2.037-1.359
			c-0.227-0.151-0.528-0.226-0.679-0.151C88.594,84.239,88.443,82.805,88.292,81.296z M87.914,76.843
			c0.755,0.981,1.661,1.886,2.792,2.415c0.076,0.604,0.076,1.283,0.151,1.887c-0.905-0.604-1.735-1.358-2.49-2.113
			c-0.076-0.076-0.227-0.151-0.303-0.227C87.99,78.126,87.99,77.522,87.914,76.843z M87.613,72.542
			c0.151,0.151,0.227,0.302,0.377,0.377c0.679,0.679,1.509,1.585,2.415,1.962c0.075,0.83,0.15,1.736,0.226,2.566
			c-0.83-0.453-1.585-1.132-2.188-2.038c-0.151-0.226-0.377-0.302-0.604-0.302C87.764,74.277,87.688,73.372,87.613,72.542z
			 M87.387,67.712c-0.831-0.754-1.661-1.509-2.415-2.264h4.301c0,0.076,0.076,0.151,0.15,0.151c1.359,1.434,2.717,2.868,4.076,4.301
			c0.679,0.755,1.434,1.585,2.188,2.264c-1.283,0.227-2.49,0.453-3.697,0.679c-0.378-0.604-0.831-1.057-1.359-1.585
			c0-0.075,0-0.075,0-0.151C89.952,69.75,88.443,68.693,87.387,67.712z M83.688,71.41c0.604-0.075,1.208-0.226,1.812-0.453
			c0.075-0.076,0.226-0.151,0.302-0.151c-0.227,0.151-0.302,0.377-0.302,0.679v1.434C84.896,72.466,84.292,71.938,83.688,71.41z
			 M79.688,65.599h3.019c0.905,0.981,1.886,1.962,2.868,2.943c-0.226-0.075-0.303-0.151-0.453-0.075
			c-0.831,0.075-1.585,0.075-2.339,0.151C81.953,67.486,80.821,66.504,79.688,65.599z M75.01,66.278l-0.679-0.679h2.792
			c0.905,0.754,1.812,1.509,2.641,2.415c0.151,0.151,0.377,0.377,0.529,0.528c-0.68-0.075-1.284-0.151-1.962-0.377
			c-0.453-0.151-0.831,0.075-1.057,0.377C76.519,67.712,75.765,66.957,75.01,66.278z M70.935,68.315
			c-0.906-0.754-1.736-1.66-2.566-2.49c1.358,0,2.717,0,4.075-0.075c0.528,0.528,0.981,1.132,1.509,1.66
			c0.679,0.679,1.283,1.358,2.038,1.962c-0.528,0.076-0.905,0.453-0.905,1.208v0.528c-0.076,0-0.076-0.075-0.151-0.075h-0.302
			C73.501,70.051,72.067,69.221,70.935,68.315z M64.445,67.938c-0.755-0.679-1.51-1.434-2.188-2.188c1.358,0,2.792,0,4.15-0.076
			c1.057,1.434,2.189,2.717,3.472,3.924c0.302,0.302,0.679,0.604,1.057,0.981c-1.434-0.151-2.792-0.377-4.226-0.453
			C66.03,69.372,65.2,68.693,64.445,67.938z M60.596,69.674c-1.585-1.509-3.471-2.792-5.207-3.848h4.754
			c0,0.075,0.075,0.226,0.15,0.301c1.057,1.208,2.189,2.642,3.547,3.849C62.785,69.825,61.653,69.75,60.596,69.674z M56.446,69.523
			c-1.584-1.358-3.396-2.566-5.132-3.698h2.717c-0.075,0.226,0,0.453,0.226,0.603c1.359,0.906,2.717,1.887,3.924,2.944
			c0.076,0.075,0.151,0.151,0.302,0.226C57.729,69.599,57.125,69.523,56.446,69.523z M48.22,67.561
			c-0.906-0.604-1.736-1.208-2.642-1.811h2.641c1.585,1.207,3.17,2.565,4.83,3.773c-0.755,0-1.434,0.076-2.188,0.076
			C50.106,68.768,49.125,68.24,48.22,67.561z M42.183,65.826c0.528,0,1.057,0,1.585-0.076c0,0.076,0.076,0.076,0.151,0.151
			c1.131,0.83,2.264,1.736,3.471,2.566c0.529,0.377,0.981,0.754,1.51,1.207c-0.528,0.076-1.057,0.076-1.51,0.076
			C46.107,68.089,43.918,66.882,42.183,65.826z M9.657,38.96c0.227-0.302,0.528-0.528,0.755-0.831
			c0.83,0.604,1.66,1.284,2.566,1.887c0.151,0.076,0.377-0.15,0.227-0.302c-0.831-0.679-1.661-1.207-2.491-1.886
			c0.377-0.378,0.754-0.755,1.132-1.208c0.83,0.528,1.735,1.132,2.641,1.584c0.226,0.076,0.377-0.227,0.151-0.302
			c-0.83-0.528-1.736-1.057-2.642-1.509c0.377-0.453,0.831-0.83,1.208-1.283c0.98,0.68,2.037,1.359,3.094,1.962
			c0.151,0.076,0.377-0.151,0.226-0.302c-0.905-0.755-1.962-1.358-2.943-1.962c0.528-0.528,1.057-1.132,1.66-1.661
			c0.981,0.679,2.038,1.358,3.094,1.962c0.226,0.151,0.453-0.226,0.226-0.377c-0.981-0.604-2.038-1.283-3.018-1.887
			c0.452-0.453,0.83-0.906,1.283-1.283c1.132,0.981,2.264,1.887,3.547,2.641c0.227,0.151,0.377-0.151,0.151-0.302
			c-1.132-0.83-2.264-1.736-3.396-2.641c0.302-0.302,0.604-0.528,0.83-0.83c1.132,0.98,2.264,1.962,3.547,2.792
			c0.227,0.151,0.453-0.227,0.227-0.377c-1.132-0.906-2.264-1.811-3.396-2.717c0.377-0.377,0.754-0.754,1.207-1.208
			c1.358,1.208,2.792,2.34,4.377,3.245c0.302,0.151,0.528-0.227,0.226-0.453c-1.434-1.057-2.868-2.113-4.226-3.169
			c0.453-0.453,0.906-0.906,1.434-1.358c1.283,1.056,2.566,2.113,3.849,3.169c0.302,0.227,0.679-0.151,0.377-0.377
			c-1.283-1.057-2.566-2.113-3.849-3.169c0.377-0.377,0.754-0.754,1.132-1.132c1.283,1.283,2.641,2.415,4.226,3.396
			c0.227,0.151,0.453-0.227,0.302-0.378c-1.358-1.132-2.717-2.264-4-3.471c0.453-0.378,0.83-0.831,1.283-1.283
			c1.434,1.208,2.868,2.415,4.301,3.547c0.227,0.227,0.529-0.227,0.302-0.453c-1.358-1.283-2.792-2.415-4.226-3.623
			c0.83-0.83,1.66-1.66,2.415-2.49c1.66,1.584,3.396,3.094,5.207,4.528c0.227,0.227,0.604-0.151,0.378-0.377
			c-1.661-1.584-3.396-3.094-5.057-4.603c0.302-0.302,0.528-0.604,0.831-0.83c0,0,0,0.075,0.075,0.075
			c1.962,1.584,3.924,3.245,6.037,4.754c0.226,0.151,0.528-0.226,0.302-0.377c-1.886-1.66-3.924-3.169-5.886-4.754
			c-0.076,0-0.076,0-0.151-0.075c0.528-0.528,1.057-1.132,1.585-1.661c2.113,1.887,4.226,3.773,6.565,5.358
			c0.302,0.226,0.528-0.227,0.227-0.453c-2.189-1.66-4.377-3.472-6.49-5.283c0.302-0.301,0.604-0.679,0.981-0.98
			c0,0.075,0.075,0.151,0.075,0.151c2.189,1.585,4.302,3.245,6.415,4.98c0.302,0.227,0.679-0.151,0.377-0.377
			c-2.038-1.812-4.226-3.472-6.49-5.056h-0.076c0.076-0.076,0.151-0.227,0.151-0.302c0.075,0,0.15,0.076,0.302,0.076
			c0.679,0.075,1.283,0.075,1.962,0.151c-0.151,0.076-0.302,0.302-0.075,0.377c2.339,1.811,4.679,3.547,7.169,5.056
			c0.302,0.227,0.604-0.301,0.302-0.528c-2.412-1.658-4.823-3.166-7.159-4.898c1.557,0.146,3.113,0.221,4.669,0.295
			c2.264,1.735,4.604,3.32,7.245,4.604c0.302,0.151,0.528-0.302,0.226-0.453c-2.264-1.284-4.527-2.566-6.641-4.075
			c1.283,0.075,2.566,0.075,3.849,0.151c1.887,1.585,3.849,2.943,6.113,3.924c0.302,0.151,0.604-0.302,0.302-0.453
			c-1.811-1.057-3.623-2.113-5.283-3.396h1.434c1.736,1.283,3.547,2.565,5.509,3.698c0.302,0.151,0.529-0.302,0.302-0.453
			c-1.585-1.057-3.169-2.113-4.754-3.17h0.906c1.811,1.358,3.697,2.717,5.735,3.849c0.301,0.151,0.604-0.302,0.301-0.453
			c-1.66-1.132-3.396-2.264-5.056-3.32h1.283c2.038,1.358,4.075,2.792,6.264,3.924c0.302,0.151,0.679-0.226,0.377-0.528
			c-1.584-1.283-3.396-2.339-5.207-3.396c2.038,0,4.151-0.076,6.188-0.151c1.509,1.132,2.943,2.339,4.528,3.321
			c0.227,0.151,0.453-0.227,0.302-0.377c-1.208-1.057-2.565-2.038-3.924-2.943c0.528,0,1.056,0,1.584-0.075
			c1.736,1.132,3.396,2.264,5.131,3.245c0.377,0.226,0.68-0.302,0.303-0.528c-1.434-0.981-2.868-1.887-4.302-2.717
			c0.755,0,1.509-0.076,2.264-0.076c1.283,1.057,2.565,2.113,3.924,3.094c0.302,0.227,0.604-0.227,0.377-0.453
			c-1.132-0.905-2.264-1.811-3.396-2.641c1.133,0,2.265-0.075,3.396-0.075c1.358,1.207,2.868,2.565,4.453,3.32
			c0.226,0.151,0.604-0.227,0.302-0.453c-1.283-1.057-2.642-1.962-3.924-2.943c1.282-0.076,2.641-0.076,3.924-0.076
			c1.509,1.208,3.018,2.415,4.603,3.547c0.226,0.151,0.604-0.227,0.302-0.453c-1.283-1.132-2.641-2.113-4-3.094h2.339
			c0,0,0,0,0,0.076c1.358,1.283,2.868,2.792,4.604,3.547c0.302,0.151,0.528-0.302,0.302-0.528c-1.208-1.132-2.642-2.038-3.924-3.094
			c0.83,0,1.66,0,2.49-0.075c1.359,1.283,2.717,2.565,4.226,3.698c0.302,0.227,0.679-0.227,0.377-0.528
			c-1.132-1.132-2.339-2.188-3.622-3.169h2.264c1.208,1.132,2.491,2.264,3.924,3.018c0.453,0.227,0.755-0.377,0.377-0.603
			c-1.056-0.831-2.188-1.585-3.17-2.415c0,0,0,0,0.077,0h3.019c1.207,1.057,2.339,2.188,3.697,3.094
			c0.377,0.226,0.754-0.302,0.453-0.604c-0.906-0.906-2.038-1.736-3.094-2.49h1.66c0,0.075,0,0.151,0.076,0.151
			c1.208,1.056,2.188,2.339,3.396,3.396c0.302,0.227,0.755-0.076,0.528-0.377c-0.754-1.207-1.962-2.188-3.094-3.169h1.811
			c-0.151,0.151-0.151,0.377,0,0.528c1.132,1.057,2.339,2.189,3.773,2.868c0.377,0.151,0.83-0.302,0.453-0.604
			C96.442,17.83,95.16,17,94.028,16.019h1.811c1.51,1.358,3.094,2.868,4.905,3.698c0.302,0.151,0.604-0.227,0.377-0.453
			c-1.283-1.208-2.717-2.188-4.15-3.245c2.49,0,4.98,0,7.471-0.075c0.906,0.981,1.887,2.038,3.019,2.716
			c0.302,0.227,0.528-0.226,0.377-0.453c-0.679-0.83-1.434-1.584-2.188-2.264h1.585c1.132,0.905,2.112,1.886,3.169,2.867
			c0.302,0.302,0.831-0.075,0.604-0.453c-0.679-0.906-1.51-1.735-2.491-2.415h0.906c0,0,0,0,0,0.075
			c1.358,1.132,2.717,2.339,4.226,3.169c0.377,0.227,0.754-0.302,0.453-0.604c-1.132-0.905-2.415-1.811-3.623-2.716h2.642
			c0,0.076,0,0.226,0.151,0.302c1.283,0.906,2.339,1.962,3.472,3.019c0.227,0.227,0.679-0.075,0.453-0.377
			c-0.831-1.208-2.038-2.113-3.245-2.943h2.792c1.584,1.208,2.792,2.868,4.376,4.075c0.302,0.227,0.68-0.151,0.377-0.377
			c-1.056-1.283-2.264-2.641-3.698-3.698h1.736c1.283,1.434,2.641,2.792,4.075,4c0.302,0.227,0.679-0.151,0.453-0.453
			c-1.208-1.208-2.491-2.415-3.773-3.623h2.717c1.207,1.434,2.339,2.792,3.622,4.151c0.227,0.227,0.528-0.076,0.377-0.377
			c-1.056-1.358-2.264-2.566-3.471-3.849h1.132c1.585,2.038,3.245,4.15,5.208,5.735c0.301,0.302,0.754-0.151,0.453-0.453
			c-1.585-1.812-3.321-3.472-4.906-5.283h1.434c2.038,1.962,3.849,4,5.735,6.037c0.303,0.302,0.83-0.076,0.604-0.453
			c-1.509-2.037-3.321-3.924-5.207-5.66h2.188c1.434,1.736,2.944,3.547,4.754,4.83c0.302,0.226,0.604-0.227,0.377-0.528
			c-1.359-1.509-2.792-2.868-4.227-4.377h2.717c0.905,0.98,1.736,2.113,2.565,3.169c-1.132,13.81-2.038,28.903,0.906,42.336
			c-17.055-0.302-34.336,1.509-51.392,1.962c-8.226,0.226-16.527,0.302-24.753,0.302c-7.094-0.604-18.866,1.283-25.885-0.906
			c-0.076-0.076-0.076-0.151-0.15-0.227C26.863,54.204,17.506,47.261,9.657,38.96z"/>     
 
<path fill="#FFFFFF" d="M12.978,40.016c0,0,21.189-17.318,25.583-18.64c4.393-1.321,35.105-2.412,37.506-2.113
		c2.4,0.298,21.076,0.194,25.055,0c3.98-0.195,18.777,0.298,21.49,0.545S130.327,21,130.327,21l2.264,0.754l3.338-0.465
		c0,0-2.005,32.954,1.34,39.783c0,0-95.055,4.855-101.22,1.896c-6.166-2.959-25.155-21.456-25.155-21.456L12.978,40.016z"></path>


			
		</g>
	</g>
	<text transform="matrix(1 0 0 1 30.0439 50.9258)" fill="#1D1D1D" font-family="'Kraftstoff-Regular'" font-size="20.376">Ciclismo</text>
</g>
</svg>