<?xml version="1.0" encoding="utf-8"?>
<!-- Generator: Adobe Illustrator 16.0.0, SVG Export Plug-In . SVG Version: 6.00 Build 0)  -->
<!DOCTYPE svg PUBLIC "-//W3C//DTD SVG 1.1//EN" "http://www.w3.org/Graphics/SVG/1.1/DTD/svg11.dtd">
<svg version="1.1" id="Layer_1" xmlns="http://www.w3.org/2000/svg" xmlns:xlink="http://www.w3.org/1999/xlink" x="0px" y="0px"
	 width="348px" height="308px" viewBox="0 0 348 308" enable-background="new 0 0 348 308" xml:space="preserve">
<g>
	<path fill="#504B4D" d="M141.345,116.93c0,0,0.099-0.2,0.216-0.398c0.112-0.196,0.224-0.392,0.224-0.392
							c0.546,1.012,0.382,1.646,0.917,0.945c-0.696-0.068-0.668-0.847-0.646-1.625c0.066-0.78,0.134-1.561-0.509-1.735l0.381-0.489
							c-0.042,0.151,0.033,0.191-0.009,0.34c0.824-0.911-0.818-0.968-0.309-2.312c0.235-0.451,0.518-0.725,0.582-0.361
							c0,0-0.007-0.285-0.014-0.57c-0.011-0.288-0.004-0.574-0.004-0.575c0.125-0.297,0.325-0.15,0.202,0.143
							c0,0,0.104-0.406,0.208-0.812c0.097-0.408,0.224-0.811,0.224-0.811l0.034,0.025c-0.117-0.295-0.241-0.929-0.27-1.232
							c0.346-0.332,0.052,0.255,0.252,0.213l0.052-1c0.471-0.22,0.488,0.633,0.204,1.211c1.592-0.299-0.05-0.861,1.448-2.267
							l-0.198,0.871c0.927-0.203,0.953-0.931,1.814-1.595c-0.32,0.082-1.945,1.254-1.815,0.201c0.221-0.215,0.416-0.536,0.424-1.149
							c0.437,0.213,0.565-0.319,0.86-0.924l0.542,0.342c0.183-0.717-0.134-0.828-0.174-1.341c0.461-0.675,0.97-0.57,1.428-0.516
							c0.751-1.048-1.144,0.357-0.455-1.018c0.778-0.791,0.959-1.563,1.391-2.85c0.617-0.492,0.243,0.333,0.549,0.217l-0.025-0.84
							c0.106-0.125,0.201,0.01,0.25,0.079c0.175-0.566-0.49-0.42-0.09-1.231c-0.105-0.154-0.027-0.288,0.122-0.396
							c0.189-0.181,0.484-0.384,0.803-0.648c0.608-0.522,1.188-1.461,0.895-2.301c0.25-0.357,0.354,0.241,0.619,0.167
							c0.005-0.587-0.159-0.996-0.208-1.304c-0.064-0.31-0.135-0.524-0.24-0.72c-0.207-0.379-0.341-0.756-1.002-1.377
							c0,0-0.008-0.09-0.021-0.227c-0.018-0.134-0.019-0.329-0.079-0.499c-0.107-0.361-0.213-0.722-0.213-0.722
							c0.099,0.591-0.186,0.637-0.573,0.517c-0.362-0.147-0.952-0.352-1.429-0.505c0.052,0.384,0.061,0.685,0.094,0.854
							c0,0-0.288-0.171-0.575-0.343c-0.134-0.088-0.31-0.116-0.418-0.162c-0.113-0.038-0.188-0.063-0.188-0.063
							c-0.064-0.172,0.142-0.295,0.485-0.386c-0.109-0.01-0.211-0.016-0.292-0.014c-0.277-0.475,0.072-0.679,0.624-0.74
							c0.096,0.217,0.173,0.434,0.234,0.637c0.514-0.049,1.116-0.038,1.328-0.359c-0.139-0.038-0.345-0.157-0.546-0.306
							c0.153,0.003,0.273-0.01,0.276-0.097c-0.003-0.091-0.227-0.148-0.581-0.178c0,0,0.018-0.204,0.036-0.408
							c0.007-0.21,0.015-0.421,0.015-0.421l-0.246,0.176c0,0-0.12-0.112-0.3-0.28c-0.187-0.16-0.472-0.325-0.756-0.508
							c-0.284-0.189-0.586-0.347-0.83-0.426c-0.242-0.092-0.403-0.153-0.403-0.153c-1.026,0.166-1.88,0.675-2.638,1.247
							c-0.382,0.279-0.727,0.649-1.085,0.969c-0.326,0.393-0.693,0.729-1.005,1.197c0.041-0.771-0.488-0.716-0.908-1.173
							c0.482-0.052,0.844-0.386,1.318-0.833c0.221-0.246,0.523-0.407,0.831-0.607c0.308-0.205,0.668-0.32,1.048-0.348
							c-0.783,0.082-0.708-0.227-0.52-0.374c-0.008-0.03-0.656,0.348-1.222,0.758c-0.282,0.206-0.517,0.48-0.7,0.656
							c-0.175,0.183-0.292,0.306-0.292,0.306c-0.278-0.458-0.67,0.077-1.343,0.465c0.968,0.359-0.526,1.678-0.742,2.534
							c-0.294-0.154-0.479-0.527,0.221-1.296c-1.303,0.459,0.081,1.867-1.075,2.379c0.128-0.21,0.254-0.285,0.17-0.464
							c-0.094,0.639-1.06,1.677-1.124,1.239l0.132-0.209c-1.051,1.279-2.655,4.254-2.005,4.886
							c-0.104-0.039-0.791-0.688-0.891-0.861c0,0,0.272,0.982,0.544,1.964c0.134,0.481,0.29,0.965,0.415,1.328
							c0.123,0.36,0.204,0.6,0.204,0.6c-0.537-0.563-2.53-0.452-2.293-1.869c-0.266,0.305-0.592,0.693-0.727,1.553
							c0.213-0.199,1.242-0.133,1.143,0.221c-1.163,0.544-0.711,0.417-1.852,1.259c0.298-0.307,1.169,0.578,0.896,1.135
							c-0.119-0.159-1.058-0.401-1.077-0.664l0.429,1.889c-0.038-0.436-0.855-0.425-1.289-0.212c0.26-0.076-0.547,1.265-0.561,1.716
							l0.469-0.546c-0.745,1.647,0.871,2.169,0.342,3.802c-0.165-0.262-1.22-0.917-1.613-0.084c0.411,0.57,2.198,2.478,2.323,3.971
							l-0.372,0.213l0.17,1.177c-0.362-0.412-0.919-1.196-1.409-2.063c-0.467-0.858-0.894-1.803-1.101-2.461
							c-0.41,0.595-0.42,0.087-0.628,1.089c-0.385,0.284-0.326-0.654-0.272-0.957c0,0-0.188,0.575-0.375,1.15
							c-0.094,0.289-0.188,0.578-0.258,0.794c-0.059,0.221-0.098,0.368-0.098,0.368c0.677,0.03,0.339,1.937,0.909,1.93
							c0,0-0.059-0.664-0.118-1.327c-0.069-0.671-0.085-1.34-0.086-1.34c0.659,0.054,1.556,1.833,1.2,3.404
							c-0.314,0.38-1.148-0.478-1.374-0.482c0.202,0.255,0.25,1.642,0.07,1.777l-0.274-0.75c-0.181,0.455-0.005,0.863,0.123,1.281
							c0.15,0.423,0.251,0.853-0.1,1.4c-0.071,0.381-0.924,1.148-0.513,1.227c0.758-0.643,3.166-0.652,3.713-0.257
							c-0.042,0.113-0.735,1.87-1.074,2.32c-0.568,0.653-1.481-0.865-1.97-0.318c0.177,0.017,0.428,0.358,0.513,0.499
							c-0.126,0.413-0.581-0.138-0.432,0.745c0.69,0.094,0.078,1.796,0.605,0.369c0.249,0.833-0.046,0.919,0.12,1.918
							c0.399-0.372,1.581,0.659,1.971,1.392c-0.18-0.012-0.362,0.215-0.443,0.326c0.13,0.841,0.231,1.49,0.33,2.127
							c0.081,0.646,0.217,1.266,0.5,2.016c-0.104,0.194-0.018,1.003-0.406,0.799c0.188,0.179,0.493,0.285,0.713,0.732
							c-0.138,1.125-0.546-0.987-0.892-0.032c0.398-0.095,1.03,0.986,1.569,1.508c0.433-0.46-0.574-1.523-1.1-2.09
							c0.798-0.319,2.048,0.467,3.129,1.666c0.779,1.002-0.217,0.746-0.008,0.879c1.118,2.147,2.262,0.938,2.901,2.843
							c0.03,0.952-0.828,0.679-1.036,1.052c-0.782-0.744-0.708-1.494-1.085-2.089c0,0,0.064,0.22,0.128,0.44
							c0.061,0.224,0.147,0.433,0.147,0.433c-0.359-0.158-0.831-0.705-0.914-1.109c-0.14,0.892,2.411,3.425,2.98,5.263
							c0.325,0.188,0.79,0.596,0.835,0.253l-0.378-0.479c0.077-0.71,1.116,0.685,0.886-0.086c0.359,0.275,0.736,0.581,1.068,0.969
							c0.329,0.388,0.656,0.842,0.756,1.456l-0.48,0.446c0.151-0.086,0.058-0.87-0.28-1.082c0.487,0.343-0.06,1.971,0.881,2.182
							c0.019-0.002,0.092-0.928,0.092-0.928c0.315,0.336,0.709,0.707,1.026,1.146c0.319,0.436,0.63,0.922,0.653,1.482
							c0.458-0.647-0.111-0.222,0.323-1.178c-0.316,0.456-0.524-0.222-0.725-0.845c-0.203-0.625-0.461-1.17-0.679-0.503
							c0.451-1.042-0.166-1.42-0.036-2.672c-0.166,0.121-0.176,0.511-0.511-0.375c-0.071-0.011-0.183-0.064-0.25-0.101
							c-0.007-0.028-0.009-0.039-0.016-0.063l0.002,0.058c-0.045-0.022-0.052-0.022,0.001,0.021c0.022,0.241,0.009,0.45-0.059,0.565
							c-0.588-0.215-1.325-1.45-1.783-1.733c-0.197-0.509,0.312,0.067,0.341-0.3c0,0-0.172-0.106-0.343-0.213
							c-0.181-0.097-0.361-0.195-0.361-0.195c0.335-0.303-0.242-1.612,0.735-0.706l-0.674-0.968
							c-0.212-0.722-0.537-1.333-0.994-1.637c-0.206-0.409-1.042-0.692-0.546-0.543l-1.055-1.144l0.09-0.069
							c-0.658-1.319-2.164-2.448-1.968-4.381c-0.14-0.217-0.292-0.437-0.424-0.71c-0.114-0.278-0.212-0.609-0.27-1.034l0.329-0.262
							c-0.35-0.58-0.048-1.958-0.522-2.141c0.43-0.435,0.408-1.198,0.229-2.002c-0.12-0.812-0.357-1.684-0.276-2.25l-0.507-0.026
							c0.034-0.79-0.16-1.54-0.282-2.544l-0.451,0.039c-0.342-0.899,0.483-2.206,0.641-3.554c0.15,0.119,0.046,0.452-0.078,0.683
							c0.606-0.738,0.598-1.593,0.529-2.472c-0.01-0.865-0.084-1.754,0.477-2.38c-0.051-0.402,0.08-0.649,0.262-0.868
							c-0.009,0.034-0.01,0.066-0.003,0.095c0.016-0.035,0.033-0.089,0.048-0.146c0.121-0.136,0.254-0.272,0.375-0.427
							c-0.148,0.117-0.276,0.234-0.353,0.347c0.078-0.277,0.13-0.717,0.169-1.159l0.518-0.021c0.007-0.035,0.013-0.062,0.02-0.098
							c0.307-0.337-0.103-0.393-0.521-0.296c-0.002-0.23-0.026-0.451-0.084-0.636c0.853-0.06,0.116-1.176,1.091-1.31
							c-0.264-0.416,0.556-2.12-0.13-2.685c0.107,0.031,0.206-0.067,0.12,0.155c0.267-0.419,0.577-0.812,0.555-1.311l0.645,0.077
							l-0.268-1.324c0.622-0.421,0.929-0.555,1.067,0.233c0.041-1.723,0.348-1.229,0.351-2.747l0.313,0.251
							c0.218-0.418,0.123-1.358,0.566-1.43c0.616-0.251,1.279-1.38,2.162-2.612c0.422-0.63,0.901-1.278,1.404-1.883
							c0.246-0.309,0.516-0.579,0.778-0.844c0.261-0.26,0.543-0.505,0.741-0.545c-0.55-0.283-0.289-0.341,0.002-0.412
							c0.307-0.053,0.646,0.006,0.451-0.425c0.221,0.159,0.484,0.254,0.368,0.555c0.137-0.135,0.301-0.188,0.438-0.244
							c0.152-0.02,0.295,0.011,0.417,0.002c0.123-0.025,0.24,0.025,0.357-0.028c0.118-0.04,0.246-0.169,0.413-0.305
							c0.04,0.295-0.214,0.359-0.159,0.541c0.053-0.043,0.257-0.182,0.293-0.012c0.026,0.168-0.155,0.213-0.26,0.306
							c0.298,0.011,0.515-0.103,0.769-0.35c0.25-0.245,0.496-0.595,0.718-0.915c0.136,0.33,0.241,0.496,0.415,0.567
							c0.148,0.102,0.349,0.114,0.696,0.089c-0.044,0.331-0.071,0.681-0.573,0.313c0.126,0.124,0.378,0.585,0.542,1.015
							c0.203,0.419,0.281,0.844,0.626,0.827c-0.107,0.128-0.047,0.507,0.045,0.614c-0.025,0.417-0.157,0.623-0.184,0.842
							c-0.118,0.192-0.151,0.413-0.338,0.774c0,0,0.223-0.137,0.209-0.146c0.279,0.33,0.17,0.516,0.011,0.693
							c-0.135,0.155-0.499,0.39-0.736,0.781l-0.047-0.069c-1.708,1.392-0.337,0.878-2.041,2.249l0.461,0.17
							c0.756,0.722-1.522,1.208-1.803,2.474l0.46-0.234c-0.033,0.73-2.143,0.896-2.584,1.45c-0.15,0.088-0.015-0.274,0.026-0.489
							c-1.387,1.288,0.438,0.5-0.042,1.736c-0.414,0.064-0.624-0.675-1.089,0.099c-0.453,0.301-0.133,2.804-1.157,3.693
							c0.345-0.154,0.685-0.298,0.637,0.341c-0.265,0.881-1.815,2.075-1.284,3.149c-0.101,0.095-0.179,0.12-0.243,0.106
							c-0.015,0.756-0.27,2.379,0.081,2.894c-0.865,0.152-0.923,1.322-0.818,2.391c0.056,1.065,0.279,2.029-0.501,1.98
							c0,0-0.005,0.143-0.012,0.356c0.005,0.215,0.012,0.501,0.018,0.788c0.007,0.286,0.015,0.572,0.021,0.787
							c0.017,0.214,0.028,0.357,0.028,0.357l-0.159-0.055c-0.04,1.486,0.417,1.977,0.845,2.426c-0.06,0.346-0.232,0.125-0.315,0.108
							c0.038,2.158,0.208,2.43,1.464,3.871l-0.401,0.339c0.244,0.17,0.266,0.988,0.583,1.936c0.26,0.969,0.783,2.087,1.607,2.813
							c-0.059,0.015-0.164,0.033-0.321-0.067c0.468,0.406,0.844,0.953,1.167,1.523c0.277,0.509,0.508,1.053,0.742,1.536
							c0.486,0.959,0.852,1.758,1.849,1.608c0,0,0.276,0.238,0.553,0.476c0.258,0.253,0.517,0.507,0.517,0.507
							c-0.719-1.673,0.812-0.138,0.726-0.948c0.438,0.606,0.392,1.917-0.104,1.174l0.016-0.164c-0.49,0.078-0.304,0.613-0.069,1.157
							c0.222,0.551,0.445,1.136,0.148,1.24c1.457,3.205,1.808,6.66,2.075,9.875l0.694-0.458l0.061,1.156
							c-0.143,0.316-0.535,0.446-0.577-0.364c-0.379,0.458,0.477,1.329,0.621,1.352c-0.243,1.619-0.873-0.579-0.874-0.083
							l0.076,0.655l0.081-0.153c0.315,0.522,0.638,0.563,0.63,1.552c-0.158,0.627-0.457,0.32-0.49,0.564
							c-0.052-0.002-0.078,0.08-0.027,0.373c0,0-0.022,0.359-0.044,0.718c-0.013,0.358-0.064,0.717-0.064,0.717l0.608-0.552
							c0.256,0.657-0.118,1.372,0.584,0.731c-0.527,0.475-0.712,1.819-0.883,3.126c-0.179,1.305-0.305,2.576-0.529,2.845
							c0.252,0.975,0.049,1.866-0.262,2.944c0.176-0.243,0.858-0.256,0.542,0.678c-1.212-0.678-1.007,1.582-2.177,2.045
							c0.405-0.239,0.25,0.426,0.13,1.055c-0.131,0.624-0.217,1.219,0.388,0.84c-0.359,0.735-0.492-0.111-0.983,0.367
							c-0.135,1.99-1.774,3.834-2.591,6.037c0.143,0.107,0.554-0.144,0.579,0.43l-1.329,0.755c-0.128,0.451,0.721,0.835-0.208,1.326
							c0.188-0.039,0.468-0.102,0.375,0.205c-0.72,0.941-1.334,1.939-1.925,2.95c-0.282,0.473-0.625,1.091-0.817,1.349
							c-0.245,0.313-0.521,0.62-0.878,0.83c-0.693,0.445-1.613,0.582-2.382,0.289c-0.77-0.254-1.347-1.022-1.354-1.752
							c-0.045,0.235-0.077,0.313-0.16,0.308c-0.088,0-0.175-0.111-0.24-0.247c0.021,0.22-0.375,0.219-0.564,0.372
							c0,0-0.008-0.101-0.02-0.252c-0.005-0.071-0.011-0.154-0.018-0.244c0.014-0.092,0.028-0.189,0.042-0.288
							c0.023-0.374,0.182-0.7,0.182-0.7c-0.169-0.036-0.275-0.147-0.336-0.295c-0.027-0.148-0.015-0.329-0.011-0.506
							c0.049-0.35,0.163-0.663-0.123-0.86l-0.015,0.486c-0.276-0.393-0.722-0.341-1.262-0.049c-0.488,0.277-0.982,0.827-1.46,0.752
							c0.419,0.59,0.159,1.32,0.226,2.287c-0.013,0.488,0.178,0.964,0.404,1.428c0.284,0.421,0.711,0.795,1.275,0.913
							c0.214,0.431-0.507-0.02-0.477,0.292c0.721,0.038,1.148,0.405,2.128,1.059c0,0-0.166,0.045-0.164,0.04
							c1.549,0.616,2.769,0.714,4.031,0.607c1.242-0.137,2.668-0.526,4.123-1.992c0,0-0.138-0.02-0.276-0.039
							c-0.138-0.026-0.276-0.052-0.276-0.052c0.563-0.566,0.807-0.699,1.062-0.872c-0.055-0.252-0.145-0.282-0.251-0.204
							c-0.101,0.072-0.236,0.27-0.43,0.511c-0.343,0.475-0.803,0.832-0.797,0.275c0.35,0.01,0.769-0.362,1.104-0.75
							c0.305-0.367,0.591-0.828,0.865-1.285c0.551-0.912,1.062-1.798,1.678-1.79c0.447-0.85-0.614-0.007-0.169-0.851l0.38-0.09
							l-0.231-0.388c0.333-0.529,0.806-0.649,1.042-0.562c-0.095,0.124-0.13,0.421-0.184,0.577c0.685-0.577,0.893-2.128,1.107-2.335
							l-0.553,0.76c0.872-2.465,2.412-5.304,2.629-7.896l-0.272,0.109c0.203-1.941,0.714-1.383,1.108-3.466l0.032,0.089
							c-0.109-0.468-0.062-1.033,0.095-1.587c0.133,0.584,0.722-0.858,0.845-0.108c0.039-2.142-0.093-1.093-0.642-2.603l0.424-0.239
							c-0.247-0.521-0.391-0.586-0.333-1.63c0.184,0.898,0.66-0.575,0.928,0.448c0.577-1.035,0.494-1.895,0.399-2.584
							c-0.082-0.692-0.128-1.214,0.488-1.683c-0.478-0.552-0.652-0.078-0.729,0.451c-0.095,0.528-0.105,1.12-0.182,0.826
							c-0.392,0.432-0.653-0.901-0.526-1.573c0.064-0.688,1.416-1.106,1.412-2.927c-0.008,0.18,0.069,0.192,0.062,0.372
							c0.285-0.68-0.339-1.32,0.048-2.162c-0.64-0.439,0.006-1.084-0.805-1.168c0,0,0.07,0.405,0.128,0.813
							c0.06,0.409,0.119,0.817,0.119,0.817c-0.119-0.463-0.417-0.902-0.636-1.408c-0.242-0.508-0.417-1.079-0.259-1.855
							c0.169,0.1,0.418,0.529,0.563,0.832c0.191-0.469-0.228-0.843-0.037-1.331c0.789,0.044,0.39,1.974,1.006,2.949
							c0.341-0.513-0.705-1.875,0.197-1.43c-1.146-0.632-0.013-1.823-1.043-2.932l0.481,0.008c-0.104-0.184-0.383-0.548-0.426-0.904
							l0.705,0.544c-0.649-0.905,0.067-2.01-0.402-2.917c0.442,2-0.461,0.576-0.622,1.484c-0.559-1.139-0.341-1.544-0.107-2.019
							c0.23-0.468,0.547-1.021-0.006-2.343c0.215,0.34,0.142,1.465-0.225,0.951c-0.037-0.546-0.135-1.262-0.002-1.664
							c-0.726-1.74-0.362,0.438-0.904-0.213c0.337-0.803-0.53-0.775-1.025-1.429l0.441-0.195c-0.586-2.055-1.087-0.117-1.608-1.938
							l0.968,0.407l-0.613-0.799l0.583-0.07c-0.876-0.771-0.898-1.128-1.343-2.104c-0.162,0.384-0.823,0.333-1.318-0.434
							c-0.099-0.685,0.588,0.039-0.197-1.015c0.43,0.061,0.913,0.147,0.848,0.875c0.164-0.035,0.412,0.089,0.576,0.06
							c-0.043-0.382-0.26-0.766-0.498-1.103c-0.25-0.328-0.536-0.597-0.678-0.793c0.095,0.162,0.205,0.357,0.215,0.488l-1.669-1.159
							c-0.034-0.353,0.221-0.25,0.476-0.144c-0.136-0.142-0.288-0.233-0.45-0.342c-0.144-0.087-0.3-0.192-0.458-0.376
							c0.402-0.114,0.667-0.433,1.252,0.062c0,0-0.087-0.074-0.219-0.185c-0.113-0.088-0.264-0.206-0.414-0.324
							c-0.307-0.241-0.615-0.481-0.615-0.481c0.063-0.171-0.009-0.896,0.21-0.808c-0.21-0.772-1.667-1.352-1.774-2.512
							c-0.091-0.025-0.199-0.104-0.336-0.302c-0.28-1.014-0.021-1.971-0.779-3.068l0.61-0.782c-0.28-0.928-0.759,1.057-1.226-0.529
							c-0.288-1.159,0.575-0.475,0.748-0.886c-0.203-0.27-0.478-0.655-0.618-1.119c-0.161-0.46-0.171-1,0.163-1.518
							C141.438,116.323,141.299,116.596,141.345,116.93z M144.308,104.724c-0.023,0.269,0.065,0.853-0.27,0.903
							C143.652,105.142,143.975,105.04,144.308,104.724z M146.226,85.568c0.269-0.065,0.606,0.159,0.893,0.483
							C146.829,85.968,146.538,85.826,146.226,85.568z M136.958,134.339l-0.034-0.007
							C136.753,133.78,136.807,133.98,136.958,134.339z M137.526,135.478c0.132,0.068,0.181,0.022,0.202-0.064
							c-0.153-0.004-0.335-0.241-0.508-0.538C137.176,135.03,137.207,135.22,137.526,135.478z M148.361,152.236l0.13-0.227
							C148.621,152.525,148.498,152.38,148.361,152.236z"></path>
							<path fill="#504B4D" d="M173.342,114.602l0.443-0.908c0.555,1.149,0.375,1.888,0.91,1.075
							c-0.673-0.076-0.673-0.966-0.63-1.858c0.056-0.894,0.147-1.788-0.498-1.963l0.385-0.569c-0.042,0.174,0.032,0.216-0.011,0.387
							c0.833-1.069-0.805-1.067-0.279-2.604c0.244-0.519,0.533-0.843,0.593-0.436c0,0-0.002-0.321-0.005-0.642
							c-0.008-0.323,0.007-0.645,0.007-0.645c0.132-0.341,0.332-0.188,0.202,0.149c0,0,0.113-0.462,0.225-0.923
							c0.105-0.464,0.244-0.922,0.244-0.922l0.033,0.026c-0.112-0.324-0.224-1.022-0.25-1.359c0.359-0.392,0.046,0.28,0.252,0.22
							l0.074-1.116c0.486-0.277,0.481,0.669,0.183,1.336c1.627-0.443-0.04-0.958,1.526-2.63l-0.225,0.983
							c0.955-0.295,0.994-1.11,1.896-1.918c-0.334,0.12-2.021,1.55-1.866,0.368c0.229-0.255,0.444-0.624,0.46-1.307
							c0.44,0.2,0.596-0.396,0.904-1.092l0.549,0.332c0.207-0.808-0.111-0.899-0.146-1.465c0.489-0.783,1.019-0.71,1.484-0.696
							c0.806-1.221-1.195,0.494-0.443-1.076c0.818-0.943,1.03-1.806,1.506-3.253c0.652-0.6,0.245,0.339,0.566,0.181l-0.007-0.914
							c0.113-0.148,0.209-0.011,0.258,0.059c0.198-0.637-0.503-0.403-0.066-1.333c-0.203-0.335,0.289-0.553,0.89-0.986
							c0.704-0.551,1.426-1.559,1.169-2.511c0.253-0.396,0.35,0.282,0.613,0.205c-0.006-0.667-0.044-1.116-0.144-1.468
							c-0.079-0.349-0.14-0.594-0.215-0.819c-0.103-0.221-0.21-0.424-0.362-0.673c-0.077-0.12-0.164-0.253-0.266-0.411
							c-0.119-0.146-0.272-0.302-0.441-0.477c0,0-0.016-0.1-0.038-0.25c-0.03-0.147-0.041-0.364-0.119-0.55
							c-0.145-0.395-0.29-0.79-0.29-0.79c0.16,0.644-0.131,0.69-0.542,0.553c-0.386-0.166-1.049-0.379-1.569-0.536
							c0.119,0.387,0.146,0.732,0.204,0.909c0,0-0.081-0.049-0.204-0.122c-0.128-0.063-0.266-0.184-0.445-0.239
							c-0.342-0.115-0.682-0.229-0.682-0.229c-0.096-0.174,0.111-0.318,0.46-0.406c-0.117-0.011-0.225-0.02-0.312-0.016
							c-0.412-0.393-0.031-0.689,0.561-0.782c0.131,0.229,0.241,0.458,0.334,0.676c0.589-0.122,1.178-0.052,1.375-0.413
							c-0.156-0.033-0.367-0.188-0.621-0.314c0.176-0.017,0.298-0.026,0.29-0.12c-0.015-0.098-0.294-0.109-0.665-0.152
							c0,0-0.01-0.216-0.018-0.432c-0.021-0.222-0.043-0.443-0.043-0.443l-0.237,0.188c0,0-0.146-0.105-0.386-0.241
							c-0.238-0.133-0.56-0.332-0.902-0.485c-0.7-0.26-1.463-0.458-1.464-0.426c-0.556,0.191-1.055,0.376-1.497,0.713
							c-0.224,0.154-0.438,0.306-0.643,0.464c-0.186,0.187-0.375,0.375-0.568,0.569c-0.19,0.178-0.364,0.375-0.519,0.607
							c-0.158,0.222-0.331,0.425-0.483,0.652c-0.274,0.498-0.572,0.963-0.854,1.502c-0.054-0.797-0.603-0.619-1.08-1.015
							c0.238-0.041,0.4-0.161,0.578-0.359c0.2-0.206,0.381-0.472,0.582-0.771c0.42-0.559,1.026-1.226,1.856-1.462
							c-0.836,0.287-0.808-0.04-0.628-0.237c0,0-0.175,0.108-0.409,0.3c-0.223,0.212-0.51,0.498-0.778,0.783
							c-0.269,0.284-0.453,0.639-0.613,0.871c-0.147,0.24-0.245,0.4-0.245,0.4c-0.371-0.352-0.625,0.178-1.148,0.544
							c1.069,0.222-0.47,1.785-0.715,2.734c-0.309-0.136-0.482-0.519,0.236-1.414c-1.344,0.622,0.065,1.995-1.127,2.671
							c0.142-0.237,0.265-0.334,0.18-0.519c-0.104,0.699-1.123,1.917-1.18,1.45l0.139-0.239c-1.095,1.489-2.78,4.875-2.125,5.504
							c-0.107-0.033-0.807-0.681-0.905-0.859c0,0,0.264,1.067,0.547,2.104c0.284,1.041,0.61,2.06,0.61,2.061
							c-0.541-0.569-2.592-0.283-2.321-1.847c-0.273,0.358-0.636,0.797-0.764,1.759c0.215-0.238,1.26-0.256,1.161,0.144
							c-1.181,0.701-0.713,0.527-1.88,1.547c0.311-0.36,1.187,0.54,0.898,1.173c-0.119-0.165-1.075-0.357-1.09-0.643
							c0,0,0.1,0.513,0.2,1.026c0.113,0.51,0.227,1.02,0.227,1.02c-0.044-0.48-0.869-0.402-1.302-0.131
							c0.267-0.103-0.539,1.446-0.56,1.943l0.475-0.64c-0.775,1.87,0.911,2.345,0.354,4.192c-0.161-0.279-1.237-0.933-1.624,0.02
							c0.455,0.611,2.223,2.604,2.403,4.282l-0.381,0.262l0.207,1.312c-0.785-0.86-2.221-3.449-2.592-4.893
							c-0.416,0.685-0.441,0.119-0.634,1.247c-0.378,0.341-0.35-0.709-0.279-1.042c0,0-0.206,0.642-0.363,1.3
							c-0.168,0.657-0.336,1.314-0.336,1.314c0.658-0.013,0.399,2.14,0.965,2.097c0,0-0.082-0.738-0.163-1.475
							c-0.071-0.741-0.103-1.485-0.102-1.485c0.34,0.001,0.736,0.499,0.995,1.202c0.278,0.709,0.447,1.624,0.278,2.523
							c-0.305,0.442-1.162-0.469-1.378-0.458c0.188,0.27,0.302,1.82,0.121,1.98l-0.3-0.824c-0.164,0.518,0.025,0.964,0.169,1.425
							c0.167,0.465,0.285,0.941-0.045,1.571c-0.065,0.429-0.859,1.328-0.449,1.396c0.733-0.755,3.101-0.883,3.698-0.466
							c-0.031,0.129-0.667,2.141-0.944,2.656c-0.52,0.756-1.545-0.904-1.993-0.271c0.186,0.011,0.456,0.382,0.547,0.536
							c-0.104,0.468-0.588-0.129-0.392,0.852c0.672,0.08,0.226,2,0.625,0.388c0.328,0.918,0.036,1.027,0.265,2.138
							c0.183-0.221,0.597-0.044,1.007,0.281c0.437,0.322,0.885,0.784,1.095,1.201c-0.181-0.007-0.346,0.252-0.419,0.379
							c0.479,1.837,0.537,2.922,1.275,4.566c-0.085,0.218,0.089,1.108-0.326,0.894c0.215,0.19,0.549,0.292,0.825,0.779
							c-0.004,1.236-0.678-1.066-0.914-0.01c0.394-0.116,1.17,1.052,1.785,1.609c0.385-0.513-0.77-1.657-1.381-2.259
							c0.378-0.188,0.929-0.074,1.528,0.247c0.612,0.315,1.21,0.869,1.886,1.497c0.944,1.073-0.121,0.816,0.113,0.957
							c0.324,0.595,0.667,0.943,1.003,1.162c0.326,0.226,0.626,0.337,0.903,0.443c0.557,0.216,0.996,0.378,1.515,1.541
							c0.155,1.078-0.821,0.687-0.998,1.091c-0.901-0.828-0.866-1.679-1.366-2.296l0.401,0.942
							c-0.368-0.186-0.964-0.741-1.104-1.179c0.05,0.914,2.86,3.721,3.576,5.775c0.345,0.225,0.825,0.703,0.859,0.323l-0.401-0.55
							c0.045-0.772,1.16,0.807,0.896-0.051c0.716,0.648,1.701,1.34,2.029,2.673l-0.449,0.483c0.152-0.098-0.042-0.935-0.368-1.186
							c0.477,0.396,0.138,2.14,1.059,2.396c0,0,0.013-0.257,0.027-0.513c0.019-0.26,0.009-0.512,0.009-0.512
							c0.345,0.367,0.741,0.784,1.121,1.25c0.383,0.464,0.7,1,0.775,1.614c0.401-0.717-0.128-0.245,0.242-1.3
							c-0.551,1.005-1.111-2.938-1.524-1.456c0.382-1.133-0.318-1.523-0.224-2.889c-0.161,0.126-0.138,0.541-0.557-0.4
							c-0.075-0.012-0.194-0.07-0.267-0.109c-0.01-0.03-0.013-0.041-0.021-0.067l0.007,0.061c-0.048-0.023-0.056-0.023,0.003,0.022
							c0.043,0.255,0.047,0.477-0.013,0.6c-0.664-0.211-1.407-1.617-1.937-1.909c-0.247-0.542,0.332,0.08,0.334-0.306l-0.745-0.468
							c0.333-0.312-0.275-1.75,0.733-0.719c0,0-0.175-0.27-0.35-0.54c-0.176-0.269-0.375-0.519-0.375-0.519
							c-0.247-0.734-0.846-1.665-1.34-1.998c-0.235-0.469-1.188-0.735-0.634-0.591c0,0-0.319-0.302-0.638-0.603
							c-0.16-0.152-0.32-0.305-0.44-0.419c-0.109-0.122-0.183-0.203-0.183-0.203l0.084-0.077c-0.878-1.424-2.561-2.632-2.589-4.777
							c-0.33-0.476-0.727-0.961-0.898-1.92l0.306-0.304c-0.408-0.639-0.261-2.183-0.728-2.38c0.383-0.5,0.281-1.354,0.066-2.26
							c-0.232-0.899-0.444-1.889-0.444-2.524l-0.51-0.007c0.011-0.895-0.247-1.731-0.402-2.858l-0.45,0.066
							c-0.371-0.995,0.386-2.511,0.525-4.04c0.161,0.125,0.054,0.507-0.068,0.773c0.621-0.865,0.522-1.834,0.489-2.814
							c-0.023-0.489-0.056-0.979-0.019-1.441c0.059-0.46,0.188-0.893,0.46-1.263c-0.064-0.448,0.05-0.737,0.244-0.993
							c-0.009,0.038-0.011,0.074-0.005,0.106c0.017-0.04,0.034-0.102,0.051-0.166c0.124-0.161,0.261-0.323,0.385-0.504
							c-0.151,0.142-0.283,0.282-0.362,0.414c0.077-0.317,0.153-0.807,0.172-1.308l0.517-0.064c0.006-0.039,0.011-0.07,0.018-0.111
							c0.313-0.4-0.103-0.431-0.527-0.291c-0.002-0.257-0.025-0.5-0.083-0.703c0.859-0.134,0.13-1.314,1.106-1.545
							c-0.135-0.221-0.003-0.826,0.08-1.444c0.1-0.613,0.146-1.242-0.2-1.525c0.109,0.026,0.212-0.09,0.12,0.161
							c0.287-0.481,0.596-0.948,0.572-1.499l0.655,0.028c0,0-0.07-0.359-0.14-0.718c-0.062-0.36-0.123-0.72-0.123-0.72
							c0.65-0.515,0.971-0.69,1.094,0.163c0.077-1.896,0.364-1.39,0.387-3.057l0.318,0.246c0.236-0.477,0.167-1.488,0.61-1.617
							c1.192-0.688,3.056-5.123,5.453-7.126c-0.642-0.11-0.329-0.32,0.062-0.563c0.202-0.145,0.377-0.164,0.471-0.247
							c0.094-0.078,0.11-0.193-0.027-0.376c0.259,0.088,0.566,0.123,0.489,0.451c0.13-0.167,0.281-0.285,0.427-0.366
							c0.169-0.042,0.318-0.066,0.449-0.11c0.3,0.002,0.481-0.093,0.805-0.452c0.093,0.273-0.18,0.411-0.088,0.571
							c0.051-0.049,0.261-0.278,0.324-0.071c0.057,0.181-0.133,0.192-0.238,0.344c0.629-0.021,1.023-0.673,1.432-1.398
							c0.404,0.617,0.591,0.67,1.291,0.638c-0.004,0.352,0.002,0.731-0.561,0.331c0.054,0.082,0.199,0.215,0.32,0.416
							c0.088,0.225,0.282,0.424,0.345,0.687c0.048,0.122,0.104,0.236,0.167,0.341c0.032,0.115,0.069,0.22,0.119,0.308
							c0.096,0.175,0.237,0.292,0.383,0.289c-0.172,0.146-0.023,0.571,0.033,0.693c-0.051,0.229-0.09,0.406-0.124,0.556
							c-0.035,0.148-0.115,0.255-0.157,0.372c-0.055,0.112-0.083,0.235-0.148,0.368c-0.082,0.125-0.17,0.274-0.273,0.479l0.22-0.16
							c0.228,0.361,0.157,0.583-0.102,0.842c-0.234,0.246-0.569,0.497-0.827,0.949l-0.049-0.07
							c-1.788,1.664-0.361,0.981-2.146,2.621l0.476,0.143c0.762,0.711-1.592,1.449-1.903,2.849l0.474-0.297
							c-0.045,0.804-2.218,1.158-2.679,1.792c-0.156,0.107-0.009-0.297,0.037-0.534c-1.438,1.512,0.442,0.512-0.073,1.898
							c-0.422,0.102-0.63-0.692-1.112,0.19c-0.469,0.356-0.182,3.08-1.238,4.124c0.353-0.191,0.701-0.371,0.641,0.335
							c-0.284,0.991-1.868,2.39-1.345,3.549c-0.105,0.109-0.182,0.141-0.247,0.129c0,0.422-0.085,1.081-0.122,1.705
							c-0.017,0.631,0.006,1.223,0.174,1.501c-0.884,0.198-0.93,1.5-0.84,2.685c0.059,1.185,0.268,2.256-0.502,2.212
							c0,0-0.036,0.633,0.002,1.271c0.024,0.636,0.047,1.272,0.047,1.272l-0.156-0.061c-0.008,1.649,0.422,2.2,0.878,2.706
							c-0.05,0.384-0.229,0.136-0.313,0.115c0.072,2.397,0.263,2.692,1.564,4.334l-0.4,0.361c0.249,0.199,0.349,1.081,0.678,2.148
							c0.182,0.524,0.387,1.11,0.678,1.662c0.317,0.536,0.692,1.053,1.128,1.473c-0.059,0.012-0.165,0.025-0.324-0.097
							c0.476,0.492,0.938,1.052,1.321,1.697c0.395,0.639,0.658,1.184,0.968,1.737c0.623,1.056,1.114,1.937,2.122,1.78
							c0,0,0.316,0.261,0.631,0.521c0.311,0.266,0.602,0.55,0.602,0.55c-0.963-1.816,0.83-0.163,0.635-1.044
							c0.52,0.656,0.629,2.096,0.031,1.287l-0.003-0.181c-0.495,0.09-0.238,0.678,0.069,1.274c0.313,0.594,0.601,1.244,0.314,1.363
							c1.902,3.508,2.688,7.347,3.289,10.93c0,0,0.162-0.138,0.325-0.276c0.156-0.139,0.312-0.277,0.312-0.277
							c0.026-0.004,0.172,1.29,0.172,1.29c-0.116,0.364-0.497,0.534-0.605-0.372c-0.338,0.537,0.576,1.462,0.739,1.476
							c-0.029,0.917-0.286,0.763-0.482,0.455c-0.215-0.307-0.439-0.76-0.404-0.491c0,0,0.042,0.181,0.084,0.361
							c0.039,0.181,0.063,0.365,0.063,0.365l0.071-0.176c0.348,0.565,0.668,0.591,0.729,1.701c-0.087,0.708-0.413,0.384-0.428,0.659
							c-0.052,0.001-0.074,0.095-0.013,0.42l-0.025,1.611l0.562-0.652c0.308,0.72-0.004,1.541,0.643,0.783
							c-0.234,0.28-0.426,0.801-0.531,1.434c-0.113,0.632-0.147,1.38-0.245,2.112c-0.084,0.732-0.113,1.458-0.204,2.034
							c-0.093,0.576-0.182,1.01-0.286,1.165c0.276,1.079,0.031,2.077-0.292,3.29c0.185-0.276,0.859-0.317,0.543,0.739
							c-1.193-0.714-1.102,1.783-2.269,2.332c0.868-0.544-0.866,2.933,0.397,2.077c-0.404,0.821-0.492-0.113-1.016,0.424
							c-0.078,1.108-0.645,2.166-1.255,3.254c-0.579,1.104-1.332,2.186-1.851,3.403c0.137,0.118,0.576-0.157,0.552,0.475
							c0,0-0.353,0.211-0.704,0.422c-0.365,0.199-0.729,0.399-0.729,0.399c-0.182,0.491,0.646,0.916-0.359,1.445
							c0.195-0.043,0.488-0.107,0.361,0.228c-0.407,0.521-0.808,1.043-1.203,1.571c-0.394,0.528-0.738,1.094-1.123,1.629
							c-0.378,0.537-0.727,1.107-1.108,1.638c-0.187,0.266-0.373,0.552-0.56,0.8c-0.198,0.302-0.34,0.369-0.5,0.568
							c-0.645,0.656-1.647,0.969-2.544,0.786c-0.905-0.152-1.631-0.962-1.692-1.766c-0.075,0.553-0.214,0.346-0.422,0.064
							c0.057,0.229-0.37,0.229-0.549,0.388c0,0-0.023-0.105-0.058-0.264c0.002-0.162,0.004-0.378,0.007-0.595
							c0.054-0.422,0.164-0.774,0.165-0.775c-0.297-0.092-0.394-0.529-0.278-0.913c0.017-0.098,0.03-0.195,0.039-0.289
							c0.033-0.087,0.058-0.171,0.068-0.251c0.021-0.159-0.01-0.306-0.136-0.418l-0.093,0.53c-0.202-0.437-0.715-0.417-1.246-0.104
							c-0.518,0.292-1.08,0.88-1.526,0.779c0.219,0.349,0.214,0.713,0.212,1.135c0.04,0.411-0.087,0.919,0.011,1.433
							c0.03,1.06,0.708,2.285,1.946,2.582c0.134,0.223,0.005,0.225-0.157,0.202c-0.151-0.033-0.333-0.094-0.304,0.089
							c0.743,0.077,1.279,0.419,2.448,1.033l-0.176,0.056c0.901,0.25,1.701,0.375,2.443,0.341c0.373-0.023,0.731-0.046,1.084-0.067
							c0.346-0.086,0.687-0.17,1.032-0.255c0.357-0.067,0.676-0.24,1.021-0.405c0.34-0.172,0.715-0.327,1.029-0.612
							c0.312-0.251,0.723-0.58,0.995-0.86c0.268-0.273,0.522-0.559,0.796-0.871l-0.525-0.088c0.47-0.529,0.687-0.561,0.968-0.764
							c-0.107-1.07-1.2,1.581-1.404,0.51c0.673-0.077,1.392-1.091,2.08-2.065c0.662-0.99,1.303-1.947,1.941-1.93
							c0.549-0.929-0.623-0.009-0.084-0.936l0.397-0.098l-0.195-0.428c0.401-0.577,0.901-0.705,1.134-0.606
							c-0.11,0.135-0.181,0.459-0.254,0.63c0.378-0.314,0.684-0.892,0.904-1.425c0.207-0.541,0.352-1.025,0.474-1.141l-0.63,0.844
							c0.524-1.39,1.348-2.802,1.941-4.319c0.316-0.748,0.621-1.498,0.882-2.236c0.224-0.755,0.385-1.506,0.48-2.224l-0.282,0.129
							c0.313-2.168,0.851-1.539,1.302-3.891l0.028,0.098c-0.093-0.52-0.005-1.146,0.146-1.777c0.123,0.649,0.741-0.99,0.852-0.152
							c0.062-2.409-0.045-1.219-0.609-2.895l0.423-0.287c-0.249-0.575-0.41-0.645-0.326-1.813c0.179,0.999,0.668-0.675,0.928,0.46
							c0.561-1.193,0.432-2.163,0.357-2.929c-0.116-0.775-0.211-1.361,0.407-1.923c-0.979-1.177-0.656,2.144-0.85,1.49
							c-0.356,0.507-0.729-0.98-0.595-1.74c0.074-0.773,1.315-1.327,1.257-3.374c0.001,0.202,0.078,0.213,0.079,0.415
							c0.246-0.782-0.468-1.461-0.114-2.431c-0.648-0.455-0.102-1.213-0.913-1.256c0.001,0,0.131,0.447,0.215,0.901
							c0.086,0.455,0.172,0.91,0.172,0.91c-0.272-1.041-1.354-1.855-1.168-3.598c0.177,0.101,0.461,0.566,0.631,0.896
							c0.145-0.536-0.279-0.933-0.171-1.483c0.847-0.009,0.547,2.184,1.29,3.232c0.286-0.596-0.883-2.052,0.061-1.612
							c-0.604-0.327-0.639-0.823-0.672-1.401c-0.057-0.57-0.102-1.229-0.656-1.805l0.481-0.021c-0.129-0.196-0.419-0.592-0.53-0.977
							c0,0,0.197,0.137,0.396,0.275c0.189,0.142,0.378,0.284,0.378,0.284c-0.771-0.961-0.147-2.231-0.734-3.203
							c0.673,2.184-0.396,0.662-0.456,1.676c-0.677-1.235-0.53-1.688-0.344-2.225c0.173-0.525,0.446-1.159-0.284-2.571
							c0.256,0.361,0.33,1.594-0.107,1.05c-0.118-0.592-0.289-1.375-0.205-1.818c-0.935-1.87-0.315,0.494-0.938-0.195
							c0.249-0.894-0.645-0.818-1.217-1.521l0.426-0.227c-0.823-2.222-1.133-0.088-1.87-2.059l1.034,0.42l-0.716-0.852l0.588-0.088
							c-0.969-0.822-1.057-1.193-1.609-2.24c-0.127,0.415-0.811,0.366-1.4-0.461c-0.178-0.732,0.623,0.032-0.318-1.082
							c0.443,0.074,0.979,0.139,0.975,0.93c0.164-0.038,0.433,0.094,0.599,0.062c-0.15-0.837-1.069-1.609-1.407-2.021
							c0.113,0.174,0.244,0.383,0.268,0.524l-1.831-1.255c-0.028-0.34,0.2-0.272,0.479-0.149c-0.296-0.295-0.597-0.335-0.971-0.756
							c0.397-0.124,0.706-0.391,1.294,0.084c0,0-0.34-0.268-0.678-0.537c-0.174-0.136-0.346-0.273-0.476-0.375
							c-0.135-0.101-0.21-0.178-0.21-0.178c0.079-0.197-0.064-0.988,0.174-0.881c-0.148-0.443-0.613-0.809-1.027-1.275
							c-0.215-0.228-0.445-0.464-0.623-0.73c-0.159-0.274-0.283-0.568-0.328-0.882c-0.095-0.032-0.211-0.125-0.365-0.352
							c-0.151-0.571-0.164-1.146-0.276-1.708c-0.047-0.586-0.233-1.148-0.595-1.802l0.584-0.879
							c-0.305-1.064-0.749,1.192-1.226-0.625c-0.318-1.319,0.563-0.536,0.726-1.004c-0.381-0.608-1.125-1.806-0.458-3.014
							C173.435,113.909,173.312,114.221,173.342,114.602z M176.53,100.675c-0.028,0.3,0.05,0.944-0.295,1.024
							C175.853,101.188,176.188,101.053,176.53,100.675z M178.387,79.56c0.145-0.054,0.324-0.049,0.509,0.017
							c0.179,0.089,0.368,0.229,0.548,0.395C179.117,79.889,178.787,79.728,178.387,79.56z M170.896,135.458
							c-0.014-0.006-0.024-0.01-0.039-0.012C170.573,134.773,170.668,135.016,170.896,135.458z M171.618,136.734
							c0.137,0.082,0.186,0.035,0.206-0.056c-0.155-0.015-0.365-0.264-0.564-0.58C171.222,136.256,171.266,136.455,171.618,136.734z
							 M183.508,153.823l0.118-0.261C183.781,154.131,183.649,153.976,183.508,153.823z"></path>
							 <path fill="#504B4D" d="M209.779,116.929c0,0,0.102-0.2,0.217-0.398c0.112-0.195,0.224-0.392,0.224-0.392
							c0.548,1.012,0.382,1.646,0.917,0.945c-0.695-0.068-0.669-0.847-0.646-1.625c0.062-0.78,0.134-1.561-0.51-1.735l0.379-0.49
							c-0.04,0.152,0.034,0.191-0.008,0.34c0.823-0.912-0.817-0.968-0.309-2.312c0.234-0.451,0.516-0.726,0.581-0.362
							c0,0-0.007-0.285-0.015-0.57c-0.012-0.288-0.003-0.574-0.003-0.574c0.124-0.297,0.324-0.151,0.202,0.143
							c0,0,0.103-0.406,0.206-0.812c0.097-0.409,0.225-0.811,0.225-0.811l0.034,0.025c-0.116-0.295-0.244-0.93-0.271-1.232
							c0.346-0.332,0.053,0.255,0.252,0.212l0.051-1c0.47-0.22,0.49,0.633,0.204,1.211c1.593-0.299-0.049-0.86,1.447-2.267
							l-0.196,0.871c0.926-0.203,0.952-0.931,1.813-1.594c-0.322,0.081-1.943,1.255-1.815,0.201
							c0.221-0.215,0.414-0.536,0.424-1.149c0.438,0.213,0.563-0.32,0.86-0.924l0.542,0.342c0.183-0.717-0.137-0.828-0.175-1.341
							c0.46-0.676,0.971-0.57,1.428-0.516c0.75-1.049-1.143,0.358-0.455-1.018c0.778-0.791,0.96-1.563,1.391-2.85
							c0.616-0.492,0.243,0.334,0.549,0.218l-0.025-0.84c0.106-0.125,0.202,0.01,0.25,0.079c0.175-0.565-0.49-0.42-0.091-1.231
							c-0.105-0.152-0.026-0.289,0.121-0.394c0.189-0.182,0.484-0.386,0.804-0.65c0.609-0.524,1.188-1.461,0.896-2.301
							c0.25-0.357,0.354,0.241,0.619,0.167c0.005-0.587-0.159-0.995-0.207-1.304c-0.064-0.31-0.135-0.524-0.239-0.72
							c-0.207-0.379-0.341-0.756-1.002-1.377c0,0-0.008-0.09-0.021-0.227c-0.018-0.134-0.02-0.329-0.078-0.499
							c-0.106-0.361-0.213-0.722-0.213-0.722c0.098,0.59-0.187,0.636-0.573,0.517c-0.362-0.147-0.952-0.353-1.429-0.507
							c0.052,0.384,0.061,0.686,0.092,0.854c0,0-0.287-0.172-0.574-0.344c-0.134-0.088-0.31-0.116-0.418-0.162
							c-0.113-0.038-0.188-0.063-0.188-0.063c-0.064-0.171,0.142-0.295,0.485-0.385c-0.109-0.01-0.211-0.016-0.293-0.014
							c-0.276-0.475,0.072-0.68,0.624-0.74c0.097,0.217,0.173,0.434,0.235,0.637c0.514-0.049,1.115-0.037,1.327-0.359
							c-0.139-0.037-0.345-0.157-0.545-0.306c0.152,0.003,0.272-0.01,0.275-0.097c-0.003-0.091-0.228-0.148-0.581-0.178
							c0,0,0.018-0.205,0.036-0.409c0.007-0.21,0.015-0.421,0.015-0.421l-0.246,0.176c0,0-0.12-0.112-0.301-0.281
							c-0.188-0.159-0.472-0.325-0.756-0.508c-0.284-0.19-0.586-0.347-0.83-0.426c-0.242-0.092-0.403-0.153-0.403-0.153
							c-1.025,0.167-1.879,0.676-2.637,1.248c-0.381,0.28-0.727,0.648-1.085,0.969c-0.325,0.393-0.692,0.729-1.006,1.196
							c0.042-0.771-0.488-0.716-0.907-1.173c0.482-0.052,0.844-0.386,1.318-0.833c0.221-0.246,0.522-0.407,0.829-0.606
							c0.309-0.204,0.668-0.321,1.048-0.349c-0.783,0.083-0.708-0.227-0.521-0.374c-0.008-0.03-0.655,0.348-1.221,0.758
							c-0.281,0.207-0.516,0.479-0.699,0.655c-0.175,0.184-0.291,0.306-0.291,0.306c-0.277-0.458-0.67,0.077-1.345,0.465
							c0.968,0.359-0.526,1.679-0.741,2.535c-0.294-0.154-0.479-0.527,0.221-1.296c-1.303,0.459,0.082,1.867-1.073,2.38
							c0.128-0.21,0.254-0.285,0.17-0.464c-0.094,0.639-1.06,1.677-1.124,1.239l0.133-0.209c-1.051,1.279-2.654,4.255-2.004,4.886
							c-0.104-0.039-0.791-0.688-0.892-0.861c0,0,0.272,0.982,0.545,1.964c0.134,0.481,0.29,0.965,0.415,1.328
							c0.123,0.36,0.204,0.6,0.204,0.6c-0.537-0.563-2.53-0.452-2.294-1.869c-0.266,0.305-0.592,0.693-0.726,1.553
							c0.213-0.199,1.241-0.133,1.143,0.221c-1.163,0.544-0.711,0.417-1.853,1.259c0.299-0.307,1.169,0.578,0.897,1.135
							c-0.119-0.159-1.059-0.401-1.077-0.664l0.43,1.888c-0.038-0.435-0.855-0.425-1.289-0.211c0.26-0.076-0.547,1.265-0.562,1.716
							l0.47-0.547c-0.746,1.648,0.871,2.17,0.342,3.803c-0.165-0.262-1.22-0.918-1.613-0.084c0.411,0.57,2.198,2.478,2.322,3.971
							l-0.372,0.213l0.171,1.177c-0.362-0.413-0.92-1.197-1.409-2.063c-0.467-0.859-0.894-1.803-1.101-2.462
							c-0.41,0.595-0.42,0.087-0.628,1.089c-0.385,0.284-0.326-0.654-0.272-0.957c0,0-0.188,0.575-0.376,1.15
							c-0.094,0.289-0.188,0.577-0.258,0.794c-0.059,0.221-0.098,0.368-0.098,0.368c0.677,0.03,0.338,1.937,0.909,1.929
							c0,0-0.06-0.663-0.118-1.326c-0.069-0.672-0.085-1.34-0.086-1.341c0.659,0.055,1.556,1.834,1.2,3.405
							c-0.314,0.38-1.148-0.478-1.373-0.482c0.202,0.255,0.25,1.642,0.069,1.777l-0.273-0.751c-0.182,0.455-0.006,0.863,0.122,1.281
							c0.15,0.423,0.251,0.853-0.101,1.4c-0.071,0.38-0.924,1.147-0.513,1.226c0.758-0.643,3.165-0.651,3.714-0.256
							c-0.042,0.112-0.736,1.87-1.075,2.32c-0.568,0.653-1.48-0.865-1.97-0.319c0.177,0.018,0.428,0.358,0.513,0.499
							c-0.127,0.414-0.581-0.138-0.433,0.745c0.69,0.094,0.078,1.796,0.605,0.369c0.248,0.833-0.046,0.918,0.119,1.917
							c0.399-0.372,1.581,0.659,1.971,1.393c-0.18-0.012-0.362,0.214-0.443,0.325c0.13,0.841,0.23,1.49,0.329,2.127
							c0.081,0.646,0.217,1.266,0.5,2.016c-0.104,0.194-0.018,1.002-0.406,0.799c0.188,0.179,0.493,0.285,0.714,0.732
							c-0.139,1.125-0.546-0.987-0.892-0.032c0.397-0.095,1.029,0.987,1.569,1.508c0.433-0.46-0.574-1.524-1.1-2.091
							c0.798-0.318,2.048,0.468,3.129,1.667c0.778,1.002-0.218,0.746-0.009,0.879c1.118,2.147,2.262,0.938,2.9,2.842
							c0.03,0.952-0.828,0.68-1.035,1.053c-0.782-0.744-0.709-1.494-1.085-2.089c0,0,0.063,0.22,0.128,0.44
							c0.062,0.224,0.147,0.433,0.147,0.433c-0.359-0.158-0.831-0.705-0.914-1.109c-0.141,0.892,2.411,3.425,2.98,5.263
							c0.325,0.188,0.79,0.595,0.835,0.252l-0.379-0.479c0.077-0.71,1.116,0.685,0.887-0.086c0.359,0.275,0.735,0.58,1.068,0.969
							c0.329,0.388,0.656,0.842,0.756,1.456l-0.48,0.446c0.15-0.087,0.058-0.871-0.279-1.082c0.486,0.343-0.06,1.971,0.882,2.182
							c0.019-0.002,0.091-0.928,0.091-0.928c0.315,0.336,0.71,0.707,1.027,1.146c0.318,0.436,0.63,0.922,0.652,1.481
							c0.458-0.647-0.11-0.221,0.323-1.178c-0.316,0.455-0.525-0.222-0.726-0.845c-0.203-0.626-0.462-1.17-0.679-0.503
							c0.45-1.042-0.166-1.42-0.036-2.672c-0.166,0.12-0.176,0.511-0.511-0.375c-0.071-0.01-0.184-0.064-0.25-0.1
							c-0.007-0.029-0.01-0.039-0.016-0.064l0.002,0.058c-0.045-0.022-0.052-0.022,0.002,0.021c0.022,0.241,0.009,0.45-0.06,0.565
							c-0.589-0.215-1.324-1.45-1.783-1.732c-0.197-0.509,0.312,0.066,0.342-0.3c0,0-0.172-0.106-0.343-0.213
							c-0.181-0.097-0.361-0.194-0.361-0.194c0.335-0.303-0.242-1.611,0.735-0.706l-0.675-0.968
							c-0.213-0.722-0.536-1.333-0.994-1.636c-0.205-0.41-1.042-0.692-0.546-0.543l-1.055-1.144l0.09-0.069
							c-0.657-1.32-2.163-2.449-1.967-4.381c-0.141-0.217-0.292-0.437-0.425-0.71c-0.114-0.278-0.213-0.609-0.27-1.034l0.328-0.262
							c-0.35-0.58-0.047-1.958-0.521-2.141c0.43-0.435,0.408-1.198,0.23-2.002c-0.12-0.812-0.357-1.683-0.276-2.25l-0.507-0.027
							c0.033-0.79-0.16-1.54-0.281-2.544l-0.451,0.038c-0.342-0.898,0.483-2.205,0.642-3.553c0.149,0.119,0.045,0.452-0.078,0.683
							c0.605-0.738,0.599-1.593,0.529-2.472c-0.011-0.865-0.084-1.754,0.477-2.38c-0.052-0.402,0.08-0.649,0.262-0.868
							c-0.009,0.033-0.01,0.066-0.004,0.095c0.017-0.035,0.033-0.089,0.049-0.146c0.121-0.136,0.255-0.272,0.375-0.427
							c-0.148,0.117-0.276,0.234-0.353,0.347c0.078-0.277,0.13-0.717,0.169-1.159l0.519-0.021c0.007-0.035,0.012-0.062,0.02-0.098
							c0.308-0.337-0.104-0.394-0.521-0.296c-0.003-0.231-0.026-0.451-0.084-0.636c0.853-0.06,0.115-1.176,1.091-1.311
							c-0.264-0.416,0.557-2.12-0.13-2.685c0.107,0.031,0.205-0.067,0.12,0.155c0.267-0.419,0.577-0.813,0.555-1.311l0.645,0.077
							l-0.268-1.324c0.622-0.421,0.929-0.555,1.067,0.233c0.04-1.723,0.348-1.229,0.351-2.748l0.312,0.251
							c0.218-0.418,0.123-1.358,0.566-1.43c0.616-0.251,1.278-1.38,2.161-2.612c0.422-0.63,0.9-1.279,1.403-1.884
							c0.246-0.309,0.515-0.58,0.777-0.844c0.262-0.26,0.542-0.504,0.739-0.543c-0.55-0.284-0.288-0.342,0.003-0.412
							c0.306-0.053,0.647,0.006,0.451-0.425c0.222,0.159,0.484,0.253,0.368,0.555c0.138-0.135,0.302-0.189,0.439-0.244
							c0.151-0.021,0.296,0.011,0.418,0.002c0.123-0.025,0.24,0.024,0.357-0.029c0.118-0.04,0.246-0.17,0.413-0.306
							c0.039,0.295-0.215,0.359-0.159,0.541c0.054-0.043,0.257-0.181,0.293-0.012c0.026,0.168-0.154,0.213-0.26,0.306
							c0.298,0.011,0.515-0.104,0.768-0.35c0.25-0.245,0.496-0.596,0.718-0.916c0.136,0.33,0.24,0.496,0.414,0.567
							c0.148,0.101,0.349,0.114,0.696,0.089c-0.045,0.331-0.072,0.681-0.573,0.312c0.126,0.124,0.378,0.585,0.542,1.015
							c0.202,0.42,0.28,0.845,0.626,0.828c-0.108,0.129-0.048,0.508,0.044,0.614c-0.025,0.417-0.157,0.623-0.184,0.842
							c-0.118,0.192-0.152,0.414-0.337,0.773c-0.001,0,0.222-0.135,0.208-0.145c0.279,0.33,0.171,0.515,0.012,0.692
							c-0.133,0.154-0.5,0.392-0.737,0.782l-0.046-0.069c-1.709,1.392-0.339,0.878-2.042,2.249l0.462,0.17
							c0.756,0.722-1.522,1.207-1.803,2.474l0.46-0.234c-0.033,0.73-2.143,0.897-2.584,1.45c-0.149,0.088-0.015-0.274,0.026-0.489
							c-1.387,1.288,0.438,0.5-0.041,1.736c-0.414,0.064-0.623-0.674-1.09,0.099c-0.454,0.301-0.132,2.804-1.156,3.694
							c0.345-0.155,0.685-0.298,0.637,0.341c-0.266,0.88-1.813,2.075-1.283,3.149c-0.103,0.095-0.179,0.12-0.243,0.106
							c0.005,0.382-0.075,0.973-0.101,1.536c-0.013,0.568,0.014,1.102,0.184,1.358c-0.867,0.152-0.923,1.322-0.818,2.391
							c0.058,1.065,0.278,2.029-0.5,1.98c0.001,0-0.021,0.57,0.006,1.144c0.008,0.286,0.016,0.572,0.021,0.787
							c0.007,0.214,0.026,0.358,0.026,0.358l-0.159-0.055c-0.037,1.486,0.416,1.977,0.846,2.426
							c-0.06,0.346-0.232,0.125-0.315,0.108c0.038,2.158,0.21,2.43,1.465,3.871l-0.4,0.339c0.245,0.169,0.266,0.988,0.584,1.936
							c0.261,0.968,0.784,2.086,1.608,2.812c-0.059,0.015-0.164,0.033-0.32-0.067c0.468,0.406,0.844,0.952,1.167,1.522
							c0.277,0.509,0.508,1.053,0.742,1.536c0.485,0.958,0.852,1.758,1.849,1.608c0,0,0.276,0.238,0.553,0.476
							c0.258,0.253,0.517,0.506,0.517,0.506c-0.719-1.672,0.812-0.138,0.726-0.948c0.438,0.606,0.392,1.918-0.104,1.174l0.016-0.165
							c-0.49,0.078-0.304,0.614-0.069,1.157c0.222,0.55,0.445,1.136,0.147,1.24c1.457,3.204,1.809,6.659,2.075,9.875l0.694-0.458
							l0.061,1.156c-0.143,0.316-0.535,0.446-0.577-0.364c-0.379,0.458,0.477,1.329,0.621,1.352
							c-0.242,1.619-0.872-0.579-0.873-0.083l0.076,0.655l0.08-0.152c0.315,0.521,0.639,0.563,0.63,1.552
							c-0.158,0.626-0.457,0.32-0.49,0.564c-0.051-0.002-0.077,0.08-0.027,0.374c0,0-0.021,0.358-0.044,0.717
							c-0.013,0.358-0.064,0.717-0.064,0.717l0.608-0.552c0.256,0.657-0.117,1.372,0.584,0.731
							c-0.527,0.475-0.712,1.819-0.883,3.126c-0.179,1.305-0.305,2.576-0.528,2.845c0.252,0.975,0.049,1.866-0.263,2.944
							c0.176-0.243,0.858-0.256,0.543,0.678c-1.213-0.678-1.007,1.582-2.178,2.045c0.404-0.239,0.25,0.426,0.131,1.055
							c-0.132,0.624-0.218,1.219,0.387,0.84c-0.359,0.735-0.491-0.111-0.983,0.367c-0.135,1.99-1.774,3.834-2.591,6.036
							c0.143,0.107,0.554-0.144,0.578,0.43l-1.329,0.755c-0.128,0.451,0.721,0.835-0.208,1.326c0.188-0.039,0.468-0.102,0.375,0.205
							c-0.721,0.94-1.335,1.939-1.926,2.949c-0.282,0.473-0.624,1.087-0.819,1.351c-0.246,0.315-0.521,0.622-0.877,0.831
							c-0.689,0.445-1.614,0.583-2.38,0.29c-0.77-0.254-1.348-1.022-1.355-1.754c-0.045,0.235-0.076,0.314-0.16,0.309
							c-0.088,0-0.175-0.111-0.24-0.247c0.022,0.22-0.374,0.219-0.563,0.372c0,0-0.008-0.101-0.02-0.252
							c-0.005-0.071-0.012-0.154-0.018-0.244c0.014-0.092,0.027-0.19,0.042-0.288c0.022-0.375,0.181-0.701,0.181-0.701
							c-0.169-0.035-0.275-0.146-0.337-0.295c-0.026-0.148-0.016-0.329-0.011-0.506c0.048-0.349,0.161-0.662-0.125-0.859
							l-0.014,0.486c-0.276-0.393-0.723-0.341-1.263-0.047c-0.486,0.277-0.98,0.828-1.459,0.754c0.421,0.589,0.161,1.32,0.229,2.286
							c-0.012,0.488,0.179,0.964,0.405,1.427c0.283,0.421,0.711,0.794,1.275,0.912c0.214,0.431-0.507-0.02-0.478,0.292
							c0.721,0.037,1.148,0.404,2.127,1.058l-0.164,0.041c1.548,0.617,2.773,0.714,4.031,0.607c1.242-0.137,2.673-0.531,4.122-1.998
							c0,0-0.138-0.02-0.275-0.039c-0.139-0.025-0.276-0.052-0.276-0.052c0.562-0.567,0.802-0.693,1.058-0.867
							c-0.055-0.253-0.145-0.283-0.251-0.205c-0.103,0.073-0.236,0.27-0.43,0.509c-0.341,0.471-0.799,0.832-0.794,0.274
							c0.351,0.008,0.766-0.361,1.1-0.747c0.307-0.367,0.593-0.829,0.867-1.286c0.552-0.912,1.063-1.797,1.68-1.79
							c0.446-0.849-0.614-0.006-0.17-0.851l0.381-0.09l-0.231-0.388c0.333-0.529,0.807-0.649,1.042-0.561
							c-0.094,0.124-0.129,0.42-0.183,0.577c0.685-0.577,0.894-2.129,1.107-2.335l-0.554,0.76c0.872-2.465,2.412-5.303,2.63-7.896
							l-0.272,0.109c0.203-1.94,0.714-1.383,1.108-3.465l0.031,0.088c-0.109-0.468-0.062-1.033,0.096-1.587
							c0.133,0.584,0.722-0.858,0.845-0.107c0.039-2.143-0.094-1.094-0.643-2.604l0.425-0.239c-0.247-0.521-0.392-0.586-0.334-1.63
							c0.184,0.898,0.66-0.575,0.929,0.448c0.576-1.035,0.493-1.895,0.399-2.584c-0.083-0.692-0.129-1.213,0.487-1.683
							c-0.478-0.552-0.652-0.077-0.729,0.451c-0.095,0.528-0.104,1.12-0.182,0.826c-0.391,0.432-0.653-0.9-0.526-1.573
							c0.064-0.688,1.416-1.106,1.412-2.927c-0.008,0.18,0.069,0.193,0.062,0.372c0.285-0.679-0.339-1.32,0.048-2.162
							c-0.64-0.439,0.007-1.083-0.805-1.168c0,0,0.07,0.406,0.128,0.814c0.06,0.409,0.119,0.817,0.119,0.817
							c-0.119-0.464-0.417-0.902-0.636-1.409c-0.242-0.507-0.417-1.079-0.26-1.854c0.17,0.1,0.419,0.529,0.563,0.832
							c0.191-0.469-0.228-0.842-0.037-1.331c0.789,0.044,0.391,1.974,1.007,2.949c0.341-0.513-0.705-1.875,0.197-1.431
							c-1.146-0.631-0.014-1.822-1.044-2.931l0.48,0.007c-0.103-0.184-0.383-0.548-0.426-0.904l0.705,0.544
							c-0.649-0.905,0.067-2.009-0.403-2.917c0.442,2-0.461,0.576-0.622,1.484c-0.558-1.139-0.341-1.544-0.107-2.019
							c0.23-0.468,0.548-1.021-0.006-2.343c0.216,0.341,0.143,1.466-0.225,0.952c-0.037-0.546-0.136-1.262-0.002-1.664
							c-0.726-1.74-0.362,0.438-0.904-0.213c0.337-0.803-0.53-0.775-1.025-1.429l0.441-0.195c-0.587-2.055-1.088-0.116-1.608-1.937
							l0.968,0.407l-0.613-0.799l0.583-0.07c-0.876-0.771-0.898-1.128-1.343-2.104c-0.162,0.384-0.823,0.333-1.318-0.434
							c-0.1-0.685,0.588,0.039-0.197-1.015c0.43,0.061,0.912,0.146,0.847,0.875c0.164-0.035,0.412,0.089,0.577,0.06
							c-0.044-0.382-0.261-0.767-0.498-1.103c-0.25-0.328-0.536-0.597-0.679-0.793c0.096,0.162,0.205,0.357,0.216,0.489l-1.67-1.159
							c-0.033-0.353,0.222-0.25,0.476-0.144c-0.136-0.142-0.288-0.233-0.45-0.342c-0.144-0.086-0.299-0.191-0.457-0.376
							c0.401-0.114,0.667-0.433,1.252,0.061c0,0-0.088-0.074-0.219-0.185c-0.113-0.088-0.264-0.206-0.414-0.324
							c-0.308-0.241-0.615-0.481-0.615-0.481c0.062-0.171-0.009-0.897,0.209-0.809c-0.209-0.772-1.668-1.351-1.774-2.512
							c-0.091-0.025-0.199-0.104-0.336-0.302c-0.28-1.014-0.023-1.97-0.779-3.068l0.609-0.782c-0.28-0.928-0.76,1.057-1.225-0.529
							c-0.289-1.158,0.573-0.475,0.746-0.886c-0.203-0.27-0.476-0.655-0.618-1.119c-0.161-0.46-0.169-1,0.163-1.518
							C209.872,116.323,209.736,116.596,209.779,116.929z M212.741,104.724c-0.022,0.27,0.062,0.852-0.271,0.903
							C212.083,105.141,212.409,105.04,212.741,104.724z M214.66,85.566c0.269-0.065,0.605,0.159,0.893,0.483
							C215.263,85.967,214.972,85.824,214.66,85.566z M205.391,134.341l-0.034-0.007
							C205.186,133.782,205.24,133.982,205.391,134.341z M205.959,135.479c0.133,0.069,0.182,0.022,0.203-0.064
							c-0.154-0.004-0.335-0.241-0.509-0.538C205.609,135.033,205.64,135.223,205.959,135.479z M216.8,152.234l0.13-0.227
							C217.06,152.523,216.938,152.378,216.8,152.234z"></path>
							<path fill="#504B4D" d="M83.983,225.87l-5.57-2.968c1.325,0.48,2.575,0.955,3.699,1.389c0.561,0.219,1.091,0.426,1.584,0.618
							c0.123,0.049,0.244,0.096,0.362,0.143c0.116,0.046,0.264,0.105,0.242,0.09c0.036,0.003,0.069,0.006,0.102,0.009l0.078-0.025
							l0.034-0.013c0.077-0.004,0.152-0.008,0.225-0.012c0.312-0.018,0.585-0.032,0.813-0.045c0.456-0.029,0.734-0.059,0.796-0.094
							c0.062-0.036-0.09-0.078-0.496-0.133c-0.203-0.023-0.469-0.054-0.802-0.093c-0.162-0.017-0.339-0.034-0.534-0.055
							c-0.003-0.02-0.003-0.04,0-0.062c-0.004,0.018-0.008,0.036-0.019,0.088c-0.09,0.126,0.139,0.356-0.842,0.009
							c-0.761-0.247-1.733-0.622-2.842-1.081c-2.219-0.919-4.985-2.181-7.719-3.442c-5.471-2.52-10.801-5.055-11.479-4.648
							l-3.637-2.098c1.071,0.542,1.278,0.555,2.337,1.088c-7.004-4.193-5.887-1.754-15.113-6.747
							c-3.183-1.793-5.301-3.197-3.05-2.15c-0.66-0.325-1.319-0.651-1.964-1.004c-0.373,1.436-0.747,2.872-1.12,4.318l5.949-0.255
							c2.379,0.026,1.798,0.262-0.571,0.236l12.471-0.108l-0.092,0.04c1.779-0.213,5.811-0.543,7.779-0.683
							c3.168,0.194-1.59,0.144-0.778,0.313l6.904-0.329c2.813,0.353-2.909,0.693-7.679,0.644c6.449,1.355,5.73-0.342,19.646,0.449
							l-6.519,0.173c4.203,0.771,9.291,0.491,16.663,0.972c-1.749-0.251-14.758-1.211-7.264-1.549
							c2.113,0.103,4.896,0.151,8.939-0.122c0.037,0.483,3.984,0.364,8.924,0.337l-0.337,0.64c5.34-0.185,4.918-0.511,8.061-0.798
							c5.952,0.062,7.187,0.559,8.587,0.976c9.532,0.102-6.582-0.794,4.699-0.915c7.928,0.244,13.494-0.017,22.978-0.399
							c5.548,0.22-0.971,0.392,1.02,0.574l4.918-0.511c1.205,0.013,0.815,0.17,0.619,0.248c4.143-0.197,0.341-0.639,6.856-0.812
							c1.757-0.705,13.376,1.029,21.44,0.229c1.986,0.182-0.96,0.392-0.353,0.64c11.063-0.525,9.484-0.381,18.568-1.088l7.738,0.42
							c-5.686-0.48,1.579-1.049,7.942-1.516c-2.017-0.232-3.739-0.436-4.896-0.531l10.154-0.344c1.227,0.105,0.204,0.324-1.46,0.592
							c0.692-0.057,1.349-0.111,1.86-0.153c3.632,0.236,1.749,0.605-0.853,0.963c-1.237-0.134-2.464-0.266-3.658-0.395
							c-2.509,0.389-4.854,0.819-4.332,1.193c0.659-0.073,1.931-0.138,3.328-0.173c-0.656,0.105-1.075,0.199-0.771,0.264
							c0.344,0.067,1.404-0.074,3.064-0.237l2.309,0.713l0.56-0.283l13.287,0.446c9.506-0.718,17.774-1.774,32.862-2.068
							c-3.743,0.522-0.804,0.854-1.008,1.473c-4.118-0.655-11.686,0.279-19.506,0.146c4.081,0.068,3.184,0.363,2.146,0.467
							l13.946-0.597c-0.315,0.507,2.961,0.38,6.604,0.589c-2.753-1.001,10.396-0.666,16.07-0.974
							c0.353,0.337-1.008,0.68-7.932,0.599c3.819,0.377,6.287,0.083,8.736-0.226c1.226-0.154,2.446-0.312,3.829-0.391
							c0.346-0.014,0.701-0.028,1.069-0.043c0.185-0.003,0.372-0.006,0.563-0.009c0.229-0.003,0.472-0.013,0.713-0.04
							c0.97-0.103,2.009-0.426,2.997-1.074c-1.739,1.258-3.058,1.179-3.81,1.374c1.19-0.025,2.988-0.512,4.273-1.771
							c1.327-1.215,2.053-3.132,1.97-4.782c-0.042-1.675-0.778-2.985-1.257-3.652c-0.5-0.665-0.65-0.872-0.065-0.387
							c0,0.001,0.382,0.413,0.678,0.893c0.308,0.471,0.517,0.996,0.517,0.996c-0.669-1.735-2.324-3.412-4.588-3.913
							c-0.279-0.063-0.564-0.108-0.854-0.133c-0.284-0.029-0.607-0.026-0.796-0.027c-0.439-0.001-0.887-0.002-1.338-0.003
							c-0.903,0.001-1.829,0.001-2.768,0.002c-3.755,0.007-7.728,0.036-11.401,0.096c-7.347,0.119-13.501,0.359-14.339,0.785
							c-0.111-0.109,1.472-1.025,2.149-1.197l-20.024,2.861c1.765-0.73-5.007-2.47,4.3-2.883c-2.673-0.104-5.979-0.225-11.611,0.033
							c1.823,0.104,4.543,1.056,2.053,1.123c-6.838-0.814-4.747-0.436-13.175-1.129c2.731,0.156-0.305,1.303-4.622,1.266
							c0.675-0.172-0.359-1.131,1.22-1.25l-10.748,1.125c2.683-0.203,0.475-0.953-1.931-1.271c1.115,0.221-9.292-0.021-12.156,0.091
							l4.555,0.261c-12.134-0.17-11.986,1.582-24.023,1.522c1.457-0.232,3.599-1.43-2.524-1.571
							c-2.806,0.576-12.423,2.771-23.075,3.214l-2.042-0.329l-8.172,0.375c5.088-0.867,19.368-2.69,27.166-3.4
							c-4.54-0.26-1.264-0.388-8.064-0.357c-2.402-0.309,3.706-0.469,5.708-0.486l-15.833-0.199
							c0.704,0.672-12.108,0.674-11.504,1.234l17.197-0.697c0.697,0.671-9.944,1.908-21.162,1.789
							c-2.854-0.268,2.135-1.196,1.901-1.42c-1.457,0.23-10.648,0.441-11.678,0.277l4.759-0.359
							c-6.245-0.253-10.192,0.891-17.697,0.25c-2.59-0.043-7.734-0.866-8.183-0.469c4.225,0.768,5.052,3.141,2.235,3.717
							c-0.908-0.052-13.602-0.733-16.559-1.112c-4.266-0.602,6.404-1.434,2.772-1.95c-0.156,0.184-2.513,0.41-3.495,0.482
							c-2.72-0.156,1.126-0.568-4.785-0.485c-0.986,0.682-12.023-0.058-2.794,0.576c-5.782,0.194-6.145-0.14-12.935-0.11
							c2.161,0.44-6.097,1.499-11.889,1.693c0.341-0.174-0.96-0.398-1.59-0.502c-11.867-0.047-18.185-0.405-29.299-0.343
							c-0.526-0.064-2.226,0.067-3.447,0.622c-0.611,0.251-1.087,0.558-1.301,0.659c-0.209,0.107-0.195-0.031,0.309-0.497
							c-0.734,0.605-1.329,1.348-1.796,2.4c-0.227,0.524-0.426,1.143-0.52,1.857c-0.104,0.704-0.135,1.559,0.084,2.508
							c0.146,0.937,0.389,1.467,0.48,1.738c0.1,0.272,0.077,0.296-0.034,0.145c-0.222-0.286-0.805-1.354-0.924-2.637
							c-0.139-1.273,0.168-2.532,0.358-3.149c0.089-0.304,0.119-0.45,0.012-0.355c-0.098,0.101-0.353,0.433-0.633,1.195
							c0.077,0.161-0.057,0.877,0.055,2.03c0.09,1.148,0.658,2.646,1.644,3.843c1.97,2.406,4.903,4.104,7.021,5.331
							c-0.455-0.694-2.904-2.092-5.362-4.336c-1.197-1.115-2.416-2.66-2.66-4.518c-0.248-1.812,0.301-3.55,1.16-4.689
							c0.179,0.132-0.088,0.717-0.299,1.729c-0.191,0.992-0.326,2.521,0.424,4.036c0.744,1.512,2.327,2.862,4.284,4.155
							c1.961,1.298,4.303,2.576,6.827,3.938c3.999,2.179,4.831,2.732,4.794,2.895c-0.029,0.152-0.894-0.139-0.168,0.188
							c7.539,4.139,11.024,5.39,14.107,6.592c3.1,1.182,5.835,2.255,12.159,5.602c4.898,2.913-0.228,1.077,0.744,1.966
							c-6.846-3.021-10.203-5.27-14.748-7.503l5.483,2.984c-2.218-0.877-6.755-2.968-9.107-4.343
							c1.83,1.179,7.381,4.005,14.043,7.212c6.67,3.162,14.393,6.823,20.562,9.747c0.154,0.073,0.306,0.146,0.453,0.216
							c0.105,0.131,0.192,0.281,0.285,0.415c0.527,0.803,1.026,1.561,1.499,2.279c1.503,1.834,3.994,5.071,3.065,3.365l-2.475-3.407
							c-1.862-3.419,5.033,6.15,2.145,1.667c1.744,2.228,3.621,4.569,5.606,7.187c0.492,0.658,0.995,1.33,1.509,2.018l0.383,0.521
							c0.108,0.146,0.194,0.248,0.3,0.364c0.21,0.221,0.45,0.416,0.713,0.579c0.529,0.331,1.148,0.513,1.812,0.525
							c0.945,0.02,1.913,0.039,2.907,0.06l1.494,0.613c-0.085-0.09-1.384-0.181-2.941-0.227c-0.389-0.008-0.795-0.017-1.201-0.024
							c-0.22-0.001-0.388-0.006-0.535-0.015c-0.156-0.013-0.31-0.032-0.46-0.059c-0.604-0.107-1.13-0.351-1.515-0.571
							c0.285,0.165,0.636,0.344,1.057,0.485c0.211,0.067,0.438,0.131,0.681,0.169c0.248,0.039,0.474,0.054,0.843,0.065
							c1.354,0.063,2.889,0.137,4.432,0.21c3.087,0.141,6.214,0.216,8.03-0.186l-5.574-0.425c5.67-0.308,12.679-0.959,19.724-0.766
							c-3.206-0.605-1.623,0.069-6.63-0.64c4.34,0.882-18.023-0.037-11.052,0.89c-2.568-0.411-4.792-0.498-7.211-0.57
							c-0.605-0.019-1.222-0.037-1.861-0.056l-0.223-0.01l-0.114-0.012c-0.075-0.014-0.151-0.022-0.226-0.044
							c-0.15-0.037-0.298-0.091-0.439-0.162c-0.283-0.145-0.538-0.362-0.722-0.638c-0.308-0.543-0.631-1.113-0.974-1.719
							c-0.047,0.286,1.047,2.172-2.262-2.733c-0.202-0.186-0.625-0.658-0.89-0.962c-0.099-0.152-0.133-0.205-0.217-0.336
							c0.061,0.102,0.106,0.179,0.167,0.28c-0.171-0.192-0.189-0.207,0.063,0.105c0.734,1.205,1.302,2.201,1.475,2.646
							c-0.951-0.986-2.607-3.158-4.307-5.445c-0.847-1.146-1.711-2.314-2.5-3.382c-0.845-1.128-1.608-2.147-2.192-2.926
							c-0.223-0.215-0.38-0.377-0.537-0.512c-0.205-0.118-0.342-0.197-0.47-0.271c-0.076-0.052-0.148-0.102-0.164-0.112
							c-0.774-0.367-0.942-0.465-1.092-0.554c-0.125-0.078-0.094-0.088,0.017-0.062c0.111,0.025,0.301,0.084,0.495,0.143
							c0.243,0.081,0.551,0.189,0.727,0.235c0.213,0.101,0.293,0.113,0.057-0.093c-0.013-0.026-0.161-0.113-0.387-0.236
							l-4.551-1.678c-0.243-0.601-8.137-4.577-0.537-1.357l-6.728-3.142c-3.854-2.077-9.233-4.751-12.645-6.204
							c-3.104-1.611-8.142-3.459-5.258-2.419c0,0-2.626-1.24-5.252-2.481c-2.606-1.272-5.213-2.545-5.213-2.545l-0.042-0.149
							c-2.518-1.348-5.081-2.695-7.635-4.112c-2.542-1.427-5.153-2.89-7.374-4.601c-1.091-0.851-2.07-1.8-2.576-2.729
							c-0.258-0.464-0.387-0.899-0.42-1.355c-0.011-0.23-0.008-0.467,0.033-0.721c0.046-0.272,0.096-0.509,0.183-0.728
							c0.352-0.919,1.024-1.553,2.043-1.89c0.508-0.171,1.102-0.261,1.738-0.277c0.333-0.009,0.615,0.003,1.016,0.025l1.231,0.071
							c3.876-0.113,7.883-0.252,14.369-0.124l1.264,0.389c4.978-0.136,14.947,0.389,17.085-0.017
							c5.37,1.046,24.157,0.229,32.911,0.414l0.33-0.508c6.026,0.029,11.804-0.115,19.283-0.318l-0.46-0.448
							c6.449-0.368,16.578,0.319,26.777,0.272c-0.693,0.172-3.28,0.127-5.111,0.023c12.186,1.013,25.709-0.736,36.761,0.001
							c2.753-0.163,4.748-0.107,6.678,0.005c-0.256,0.002-0.485,0.01-0.682,0.023c0.281,0.002,0.7,0.004,1.131,0.006
							c1.215,0.076,2.469,0.154,3.824,0.238c-1.152-0.108-2.257-0.198-3.217-0.24c2.123-0.009,5.344-0.064,8.502-0.177l1.345,0.481
							c0.256-0.005,0.464-0.009,0.73-0.014c3.099,0.178,2.49-0.229,0.838-0.59c1.59-0.08,3.046-0.175,4.177-0.291
							c2.517,0.777,8.283-0.262,11.719,0.567c2.127-0.404,15.873-0.304,17.556-1.155c0.107,0.111,1.038,0.164-0.667,0.171
							c3.521,0.097,7.038,0.194,10.196-0.046l1.493,0.612l7.687-0.823c4.67,0.373,6.604,0.59,1.968,1.061
							c11.196-0.725,9.084-0.272,18.605-0.99l-0.464,0.396c3.402-0.015,8.843-0.546,10.896-0.218
							c1.903,0.188,5.209,0.288,9.402,0.344c2.098,0.018,4.416,0.036,6.893,0.057c0.31,0.001,0.621,0.002,0.936,0.004l0.474,0.001
							c0.151,0.003,0.225,0.004,0.34,0.015c0.422,0.037,0.838,0.157,1.22,0.359c0.769,0.399,1.381,1.147,1.609,2.015
							c0.238,0.867,0.083,1.857-0.436,2.62c-0.515,0.773-1.381,1.307-2.31,1.397c-0.116,0.013-0.234,0.017-0.352,0.019l-0.534-0.002
							l-1.071-0.004l-2.146-0.011c-1.431-0.01-2.861-0.021-4.282-0.03c-5.685-0.049-11.228-0.14-16.113-0.314
							c3.791,1.166-9.084-0.522-9.858,0.381c-1.138-0.275-3.862-0.432-0.697-0.671c-9.973,0.271-14.983-0.437-21.87,0.325
							c-1.141-0.277,2.135-0.404,1.12-0.568c-0.801,0.06-3.169,0.24-4.207,0.075c-1.016-0.164,1.46-0.231,3.039-0.352
							c-10.188,0.046-11.219,0.896-11.96,1.693c-5.162-0.378-7.738-0.324-11.467,0.198c-1.797-0.26-4.796-0.533,1.534-0.627
							c-3.562-0.038-21.755-0.383-22.118,0.257c-1.115-0.162-4.978-0.048-5.915,0.026c-7.99-0.038-8.694-0.096-16.541-0.035
							l2.176,0.104c-3.098,0.771-6.523,0.172-12.849,0.265l0.182-0.079c-14.506-0.556-6.264,0.267-20.573-0.368l0.778,0.479
							c-1.334,1.032-12.679-0.608-20.984-0.214l2.998,0.273c-4.536,0.354-12.679-1.402-17.233-1.531
							c-0.994-0.09,1.567-0.145,2.954-0.211c-11.926-0.607-1.545,0.629-10.433,0.775c-1.638-0.34,2.112-0.862-3.87-0.926
							c-2.979-0.273-17.348,1.101-25.509,0.451c1.797,0.261,3.584,0.521-0.545,0.718c-6.326,0.093-17.104-0.987-22.819-0.164
							c-0.804-0.071-1.108-0.14-1.141-0.204c-0.868,0.029-1.929,0.066-3.144,0.109l-7.14,0.248l6.242,3.231
							c4.785,2.477,11.794,5.849,14.103,6.589c1.627,1.751,8.478,4.914,14.859,7.689c6.378,2.788,12.282,5.216,11.917,5.889
							c1.413,0.632,2.825,1.263,4.235,1.902l11.048-0.066l-0.389,0.156c9.51,0.101,12.872-0.266,16.214-0.633
							c2.198,0.104,0.593,0.247,0.411,0.327c13.895,0.308,15.277,0.243,26.925-0.519l1.212,0.496
							c3.158-0.288,20.087,0.777,33.715,0.199c-0.133,0.057-0.415,0.152-1.497,0.223c15.333-0.582,36.706,1.375,42.325-0.431
							c0,0,2.529-0.111,5.059-0.223c0.632-0.027,1.265-0.056,1.857-0.081c0.589-0.021,1.188-0.065,1.483-0.049
							c0.709,0.039,1.153,0.251,1.153,0.251c-0.562-0.271-1.096-0.363-1.572-0.375c-0.609-0.017-1.122-0.031-1.548-0.043
							c-0.853-0.031-1.359-0.069-1.617-0.111c-0.515-0.085-0.03-0.188,0.694-0.296c1.451-0.216,3.864-0.451,1.172-0.602
							c0.642,0.004,1.342-0.056,2.021,0.046c0.683,0.106,1.346,0.385,1.896,0.776c1.123,0.785,1.689,2.003,1.799,2.869
							c0.123,0.881-0.061,1.407-0.118,1.359c-0.106-0.032,0.035-0.671-0.482-1.917c0.024-0.007-0.312-0.791-0.336-0.783
							c-0.518-0.244-0.108,0.284,0.147,1.34c0.116,0.527,0.157,1.22-0.035,1.928c-0.183,0.704-0.613,1.418-1.24,1.927
							c-0.623,0.514-1.419,0.804-2.182,0.816c-1.012-0.018-1.963-0.034-2.775-0.048c-1.657-0.048-2.753-0.13-2.665-0.29
							c-25.758,0.047-50.863-0.475-74.991-0.515l2.78,0.731l-8.417-0.042c-2.209-0.171-2.965-0.572,3.039-0.542
							c-3.157-0.414-10.069,0.348-10.24,0.506c-11.756-0.296,4.592-0.853,0.986-0.87l-4.896,0.055l1.104,0.085
							c-3.969,0.299-4.321,0.616-11.537,0.58c-4.566-0.146-2.342-0.451-4.14-0.479c0.006-0.026-0.144-0.045-0.564-0.051
							c-0.421-0.006-1.113,0.002-2.193,0.03l-12.901-0.062c0,0,1.734,0.144,3.469,0.288c1.636,0.145,3.221,0.289,3.069,0.289
							c-3.152,0.143-6.653,0.135-8.356,0.174c-0.86,0.019-1.275,0.05-0.993,0.116c0.274,0.067,1.266,0.17,3.017,0.334
							c-0.921-0.09-2.126-0.167-3.581-0.232c0.719,1.162,1.66,2.621,2.771,4.305c1.14,1.701,2.396,3.576,3.73,5.568
							c3.317,0.023,6.976,0.049,10.652,0.075c3.404-0.003,6.823-0.006,9.957-0.009c6.268-0.014,11.394-0.024,12.966,0.088
							c6.582-0.422,13.079-0.414,21.129-0.363c-2.001-0.12-3.199-0.77,3.743-0.689c-2.539,1.34,12.712,0.581,18.323,1.545
							c-5.015-0.639,19.735-0.158,11.867-1.065c5.793,0.108,0.353,0.501,4.748,0.817c13.787-0.52,30.383,0.337,47.424,0.162
							c0.267-0.176-2.587-0.445,1.067-0.707l8.999,0.879c1.66-0.042,2.437-0.29,3.537-0.457c0.551-0.083,1.182-0.146,2.046-0.153
							c0.432-0.003,0.922,0.007,1.489,0.036c0.776,0.029,1.735,0.076,2.851,0.146c0.062-0.07,0.136-0.154,0.212-0.239
							c-0.07,0.072-0.145,0.147-0.22,0.225c-1.232-0.137-2.403-0.313-0.188-0.378c0.056-0.077,0.152-0.209,0.257-0.355
							c2.553-3.251,5.114-6.514,7.688-9.791c-4.859-0.037-9.738-0.075-14.634-0.112c-1.266-0.104-2.417-1.062-2.756-2.288
							c-0.37-1.228,0.082-2.635,1.115-3.416c0.507-0.394,1.125-0.628,1.768-0.664l2.841-0.019c1.953-0.011,3.908-0.021,5.865-0.031
							c4.024-0.019,8.055-0.038,12.087-0.057l10.985-5.018c3.552-1.646,7.103-3.289,10.648-4.932
							c3.545-1.649,7.085-3.298,10.619-4.942c1.768-0.826,3.534-1.652,5.298-2.477l1.323-0.621c0.459-0.218,0.787-0.362,1.573-0.754
							l4.157-2.076c-3.396,1.647-3.914,1.791-3.119,1.317c0.811-0.484,2.948-1.652,5.223-2.905
							c-1.559,0.806-1.676,0.744-1.563,0.538c0.118-0.211,0.437-0.553-0.017-0.44l1.471-0.741l0.372-0.188
							c0.104-0.046,0.008-0.022-0.004-0.028h-0.087c-0.104-0.01-0.203-0.026-0.271-0.068c-0.135-0.084-0.209-0.222-0.05-0.505
							c0.075-0.139,0.209-0.314,0.449-0.55c0.1-0.106,0.298-0.27,0.445-0.403c0.238-0.185,0.418-0.336,0.385-0.508
							c-2.862-0.234-4.291-0.45-5.268-0.672c-0.24-0.055-0.493-0.105-0.62-0.19c-0.188-0.064-0.271-0.175-0.354-0.285
							c-0.142-0.19-0.158-0.286-0.217-0.418c-0.195-0.504-0.253-1.031-0.188-1.549c0.128-1.034,0.796-1.928,1.662-2.353
							c0.123-0.172,0.364-0.374,0.722-0.52c0.369-0.159,0.739-0.195,1.629-0.211c1.57-0.045,3.438-0.05,5.271-0.054
							s3.632-0.007,5.064-0.048c0.664-0.021,1.243-0.038,1.701-0.052c0.431-0.009,0.738-0.006,0.911-0.055
							c0,0.001-0.945-0.163-1.988-0.116c-1.124,0.028-2.248,0.057-2.248,0.057c5.978-0.746-8.365-1.659-7.49-2.617
							c-0.459,0.059-0.938,0.103-1.437,0.135c-0.262,0.015-0.527,0.03-0.797,0.045c-0.314,0.022-0.633,0.062-0.951,0.132
							c-1.271,0.269-2.547,0.961-3.498,2.078c-0.955,1.104-1.559,2.664-1.466,4.315c0.043,0.824,0.263,1.669,0.656,2.437l0.21,0.39
							c0.055,0.092,0.112,0.181,0.175,0.264c0.123,0.168,0.262,0.318,0.411,0.449c0.246,0.214,0.521,0.376,0.812,0.478
							c0.146,0.05,0.295,0.085,0.445,0.104c0.075,0.012,0.151,0.017,0.228,0.02c0.012,0.007,0.134-0.013,0.056,0.017l-0.125,0.061
							c-0.664,0.323-1.28,0.632-1.878,0.954l-0.894,0.5l-1.288,0.749c-1.061,0.619-2.115,1.268-3.153,1.949
							c-2.243,0.922,1.697-1.21,0.443-0.821c-2.284,1.624-5.24,3.22-10.91,5.777l0.587-0.398c-5.085,2.513-9.272,4.471-13.235,6.262
							c-1.987,0.881-3.913,1.734-5.866,2.6c-0.98,0.424-1.967,0.851-2.972,1.285c-0.504,0.215-1.012,0.432-1.525,0.651l-0.775,0.33
							l-0.418,0.169c-2.215-0.048-4.601-0.099-7.247-0.155c-2.795-0.045-5.867-0.095-9.312-0.15l1.457,0.474
							c-2.113-0.031-3.392-0.085-4.39-0.145c-0.124-0.008-0.245-0.016-0.361-0.022c-0.14-0.005-0.313-0.013-0.464-0.009
							c-0.31,0.003-0.608,0.029-0.906,0.07c-0.594,0.091-1.186,0.245-1.825,0.542c-0.719,0.484-0.946,0.796-0.937,0.844
							c0.017,0.056,0.287-0.129,0.775-0.389c0.487-0.258,1.212-0.577,2.097-0.735c0.421-0.081,0.96-0.114,1.36-0.105
							c0.365,0.002,0.742,0.005,1.12,0.007c3.021,0.02,6.095,0.048,3.886,0.444c-0.622-0.107-1.474-0.19-2.5-0.256
							c-0.515-0.026-1.071-0.055-1.666-0.085c-0.297-0.011-0.604-0.021-0.919-0.033c-0.383-0.012-0.838,0.013-1.267,0.087
							c-1.745,0.277-3.54,1.418-4.536,3.216c-1.019,1.781-1.127,4.156-0.141,6.103c0.952,1.952,2.943,3.357,5.081,3.605
							c0.266,0.035,0.531,0.049,0.795,0.053l0.59,0.004c0.389,0.002,0.774,0.005,1.156,0.007c0.664,0.008,1.314,0.016,1.944,0.022
							c1.565,0.038,2.84,0.112,3.352,0.265c-0.388,0.382-0.717,0.653-1.007,0.832c-0.649,0.847-0.417,0.767-0.121,0.605
							c0.291-0.156,0.646-0.395-0.337,0.888c0,0-0.188,0.124-0.376,0.248c-0.175,0.106-0.349,0.214-0.349,0.214
							c-0.036,0.129-0.071,0.258-0.132,0.337c-0.114,0.094-0.254,0.188-0.417,0.281c-0.39-0.014-0.756-0.025-1.098-0.037
							c-0.467-0.021-0.9-0.042-1.303-0.062c-0.804-0.047-1.477-0.107-2.021-0.173c-1.09-0.132-1.667-0.287-1.747-0.413
							c1.034,0.03,2.938-0.07,4.047-0.092c-5.525-0.349-15.58,0.119-17.478,0.005l6.244,0.184
							c-17.737,0.277-39.396-0.112-56.533,0.49l1.301,0.224c-13.086,0.413-10.48-0.245-24.85-0.054l0.523-0.054
							c-2.876,0.223-6.716,0.335-10.648,0.31c3.628-0.262-6.827-0.509-2.068-0.799c-14.191,0.444-7.02,0.35-16.393,1.18
							l-2.161-0.371c-3.195,0.336-3.461,0.513-10.637,0.609c5.885-0.318-4.581-0.565,2.013-0.986
							c-5.985-0.322-10.746-0.259-14.742-0.141c-1.998,0.065-3.805,0.124-5.479,0.179c-0.837,0.015-1.641,0.029-2.418,0.043
							c-0.257-0.001-0.509-0.002-0.758-0.003c-0.21-0.009-0.417-0.018-0.622-0.025c-0.227-0.373-0.441-0.759-0.589-1.092
							c-0.139-0.32-0.23-0.613-0.244-0.846c-0.783-0.64-1.107-0.811-0.889-0.314c0.201,0.471,0.84,1.457,1.573,2.538
							c1.39,0.005,2.752,0.01,3.583,0.013c1.001,0.006,1.362,0.021,0.476,0.07c1.069,0.111,0.813,0.232-0.181,0.341
							c-0.497,0.055-1.179,0.106-1.971,0.151c-0.682,0.035-1.459,0.075-2.269,0.116c-0.939-1.241-1.965-2.673-2.665-3.742
							c-0.479-0.699-0.834-1.324-1.088-1.864c1.781,0.177,3.572,0.462,5.238,0.701c0.228,0.029,0.376,0.059,0.667,0.087
							c0.358,0.026,0.728,0.053,1.112,0.081c0.769,0.042,1.591,0.088,2.479,0.137c1.775,0.077,3.808,0.123,6.174,0.119
							c-1.205-0.005-1.286,0.072-2.487,0.068c4.529,0.262,8.873-0.354,14.428,0.07c3.113-0.62,7.212,0.036,8.109-0.756l-11.1,0.184
							c6.293-0.207,12.193-1.133,22.56-0.684c-0.808,0.159-3.892,0.369-6.011,0.486c3.032,0.233,5.837-0.154,8.98,0.085
							c-0.897,0.792-13.49,0.173-20.232,0.776c3.254,0.334,12.753-0.574,9.365,0.284c4.87-1.091,11.923,0.138,20.117-0.695
							l-0.541,0.475c1.297-0.075,3.984-0.299,6.371-0.286l-4.321,0.615c6.634-0.525,12.79,0.459,19.153,0.173
							c-13.323,0.015-2.991-0.571-8.624-0.918c16.434-0.636,9.451,1.241,27.848,1.014c-2.49,0.067-9.351-0.285-5.455-0.505
							c3.502,0.098,8.128,0.279,10.277,0.529c12.189-0.1-1.872-0.488,3.316-0.78c4.151,0.578,5.986-0.235,11.33-0.421l0.037,0.482
							c3.473,0.078,5.439,0.054,6.631-0.021c0.597-0.036,0.998-0.086,1.299-0.142c0.415-0.06,0.687-0.147,0.931-0.242
							c0.479-0.215,0.928-0.347,2.091-1.002c0.562-0.35,1.31-0.861,2.051-1.84c0.713-0.962,1.461-2.497,1.267-4.554
							c0,0,0.109,0.423,0.146,1.083c0.037,0.657-0.042,1.568-0.345,2.437c-0.29,0.871-0.795,1.672-1.256,2.209
							c-0.46,0.539-0.842,0.837-0.842,0.837s0.498-0.327,1.09-0.981c0.596-0.644,1.233-1.659,1.543-2.792
							c0.325-1.13,0.307-2.309,0.139-3.159c-0.162-0.855-0.414-1.382-0.415-1.382c0,0.001,0.308,0.39,0.557,0.842
							c0.254,0.447,0.44,0.948,0.44,0.948c-0.401-2.722-2.051-4.521-3.716-5.456c-0.848-0.477-1.735-0.758-2.606-0.878
							c-0.219-0.029-0.436-0.05-0.65-0.061c-0.212-0.009-0.455-0.01-0.571-0.007c-0.292,0.002-0.58,0.003-0.869,0.005
							c-2.308,0.006-4.597-0.06-8.071-0.136c1.616,0.34-0.908,0.875-7.061,0.891c-4.195-0.287,2.35-0.459-6.37-0.391
							c1.968-0.301,4.124-0.68,7.92-0.236c0.389-0.156,1.941-0.303,2.342-0.457c-4.518-0.33-11.355-0.076-14.513-0.071
							c1.215,0.019,2.668,0.044,3.413,0.112l-12.642,0.669c-1.99-0.181-0.412-0.327,1.152-0.47
							c-2.561,0.053-4.332,0.274-8.098,0.316c0.975-0.393,0.741-0.797,6.07-0.982l-12.045,0.436
							c-0.804-0.17-6.182-0.469-4.618-0.613c-6.679-0.23-16.381,0.762-25.235,0.457c-0.459,0.076-1.382,0.148-3.265,0.205
							c-8.32-0.089-15.692-0.57-25.554-0.032l-5.597-0.703c-7.724,0.159,7.576,0.886-5.285,1.151
							c-9.106,0.224-3.399-0.6-6.593-0.796c-1.491,0.112-3.346,0.251-5.459,0.41c-1.059,0.058-2.182,0.119-3.357,0.184
							c-1.024,0.035-2.094,0.071-3.198,0.109l-0.47-0.2c-0.303-0.136-0.607-0.272-0.915-0.411c-0.609-0.286-1.228-0.576-1.853-0.869
							c-1.244-0.601-2.501-1.244-3.754-1.93C79.712,223.875,81.712,224.901,83.983,225.87z M85.396,208.847
							c-1.846,0.101-5.526,0.413-6.875,0.129C80.622,208.423,82.249,208.688,85.396,208.847z M230.203,207.686
							c-1.372,0.159-3.495,0.08-5.89-0.103C226.052,207.543,228.02,207.562,230.203,207.686z M63.73,227.379
							c-0.074-0.024-0.127-0.042-0.187-0.062C59.916,225.381,61.198,226.075,63.73,227.379z M71.365,231.195
							c0.807,0.3,0.781,0.214,0.48,0.001c-0.591-0.141-2.333-0.94-4.293-1.898C68.048,229.67,69.008,230.218,71.365,231.195z
							 M108.699,236.286l1.664,0.126C106.605,236.551,107.657,236.426,108.699,236.286z"></path>
</g>
</svg>