<?xml version="1.0" encoding="utf-8"?>
<!-- Generator: Adobe Illustrator 16.0.0, SVG Export Plug-In . SVG Version: 6.00 Build 0)  -->
<!DOCTYPE svg PUBLIC "-//W3C//DTD SVG 1.1//EN" "http://www.w3.org/Graphics/SVG/1.1/DTD/svg11.dtd">
<svg version="1.1" id="Layer_1" xmlns="http://www.w3.org/2000/svg" xmlns:xlink="http://www.w3.org/1999/xlink" x="0px" y="0px"
	 width="344.982px" height="298.485px" viewBox="0 0 344.982 298.485" enable-background="new 0 0 344.982 298.485"
	 xml:space="preserve">
<g>

		<path fill="#504C4D" d="M270.298,280.876c-1.859-0.007-3.357-1.519-3.35-3.377l0.104-27.868l-55.778-0.208l-0.104,27.867
			c-0.008,1.859-1.517,3.359-3.377,3.352c-1.859-0.007-3.359-1.519-3.352-3.375l0.104-27.87l-9.213-0.034l-0.103,27.868
			c-0.007,1.859-1.521,3.359-3.376,3.352c-1.861-0.007-3.359-1.517-3.353-3.376l0.018-4.494l-25.182-0.096l-0.017,4.496
			c-0.007,1.857-1.517,3.358-3.375,3.352c-1.857-0.008-3.36-1.518-3.353-3.377l0.104-27.868l-7.925-0.029l-0.104,27.868
			c-0.006,1.857-1.518,3.358-3.377,3.352c-1.853-0.008-3.359-1.519-3.352-3.377l0.104-27.868l-55.768-0.208l-0.104,27.867
			c-0.007,1.859-1.526,3.358-3.378,3.352c-1.861-0.007-3.357-1.519-3.35-3.375l0.581-155.455l-15.93-0.06
			c-1.398-0.006-2.645-0.878-3.139-2.186c-0.488-1.311-0.121-2.787,0.934-3.711l113.495-99.563c1.273-1.118,3.183-1.111,4.454,0.017
			l112.748,100.409c1.045,0.93,1.405,2.41,0.906,3.716c-0.504,1.305-1.756,2.168-3.154,2.163l-16.08-0.061l-0.581,155.454
			C273.668,279.384,272.158,280.883,270.298,280.876L270.298,280.876z M163.361,265.888l25.182,0.096l0.025-6.835l-25.182-0.096
			L163.361,265.888z M163.412,252.325l25.183,0.096l0.01-3.081l-25.181-0.096L163.412,252.325z M260.793,242.878l6.284,0.022
			l0.451-120.855l-6.285-0.022L260.793,242.878z M242.801,242.811l11.264,0.042l0.451-120.856l-11.263-0.042L242.801,242.811z
			 M224.811,242.745l11.263,0.042l0.452-120.857l-11.264-0.042L224.811,242.745z M211.299,242.693l6.784,0.026l0.45-120.856
			l-11.264-0.043l-0.105,27.975l1.118,0.005c1.858,0.006,3.357,1.517,3.352,3.377L211.299,242.693z M148.796,242.46l55.774,0.208
			l0.322-86.154l-55.774-0.208L148.796,242.46z M134.846,242.409l7.222,0.025l0.334-89.517c0.007-1.862,1.523-3.36,3.376-3.353
			l0.676,0.003l0.105-27.975l-11.262-0.042L134.846,242.409z M116.847,242.34l11.271,0.043l0.452-120.856l-11.27-0.043
			L116.847,242.34z M98.855,242.273l11.263,0.042l0.452-120.855l-11.264-0.043L98.855,242.273z M86.298,242.226l5.829,0.021
			l0.452-120.855l-5.829-0.022L86.298,242.226z M189.168,149.726l11.269,0.042l0.103-27.973l-11.268-0.042L189.168,149.726z
			 M171.177,149.661l11.263,0.042l0.104-27.975l-11.263-0.042L171.177,149.661z M153.183,149.592l11.265,0.042l0.104-27.974
			l-11.264-0.042L153.183,149.592z M271.349,115.332l10.122,0.038L177.583,22.846L73.009,114.59l9.969,0.037
			c0.138-0.019,0.282-0.025,0.432-0.024l187.508,0.701C271.062,115.304,271.205,115.311,271.349,115.332L271.349,115.332z
			 M271.349,115.332"/>
		<g>
			
						<path fill="#504B4D" d="M270.79,112.869c0.045,0.001,0.086,0.001,0.123,0.002c0.041,0,0.08,0,0.118,0l0.049-0.003
							c0.076-0.005,0.08-0.021,0.183-0.032c0.181-0.023,0.275-0.063,0.327-0.113c0.105-0.099,0.03-0.232,0.168-0.253
							c-0.188-0.017-0.356-0.025-0.509-0.025c-0.098,0.004-0.126,0.014-0.184,0.023l-0.035,0.007l-0.017,0.004l-0.009,0.002
							l-0.002,0l-0.075-0.001l-0.004,0.001l-0.06,0.018c-0.037,0.012-0.069,0.025-0.096,0.04c-0.107,0.055-0.139,0.12-0.133,0.178
							C270.647,112.832,270.805,112.924,270.79,112.869z"/>
						<polygon fill="#504B4D" points="258.925,113.777 259.136,113.606 257.386,114.019 						"/>
						<path fill="#504B4D" d="M247.833,113.728c1.046,0.718,4.02-0.1,5.995,0.161l0.325,0.164l0.894-0.571
							C252.645,113.564,249.523,113.934,247.833,113.728z"/>
						<path fill="#504B4D" d="M241.925,112.163c0.363,0.279-1.28,0.234,1.379,0.092c-0.134-0.031-0.172-0.048-0.25-0.071
							C242.814,112.187,242.485,112.185,241.925,112.163z"/>
						<path fill="#504B4D" d="M243.054,112.183C244.223,112.167,242.29,111.947,243.054,112.183L243.054,112.183z"/>
						<path fill="#504B4D" d="M237.659,112.323l1.539-0.242c-0.32-0.166-1.69-0.208-1.181-0.325
							C236.438,111.886,236.763,112.05,237.659,112.323z"/>
						<path fill="#504B4D" d="M236.198,112.838l0.798-0.102C236.856,112.667,236.646,112.642,236.198,112.838z"/>
						<path fill="#504B4D" d="M238.688,112.521l-1.691,0.215c0.223,0.116,0.245,0.348,0.776-0.077
							C237.634,112.87,237.969,112.668,238.688,112.521z"/>
						<path fill="#504B4D" d="M239.645,112.633c0.862,0.158,1.978,0.26,0.432,0.501
							C243.021,113.047,242.589,112.544,239.645,112.633z"/>
						<path fill="#504B4D" d="M247.265,114.464l1.152,0.213l0.999-0.236C248.917,114.559,247.193,114.241,247.265,114.464z"/>
						<path fill="#504B4D" d="M228.075,111.918c-0.097,0.151,0.516,0.407,0.63,0.602l1.138-0.17
							C229.259,112.243,228.152,112.143,228.075,111.918z"/>
						<path fill="#504B4D" d="M228.705,112.52l-1.701,0.254C228.522,112.81,228.801,112.687,228.705,112.52z"/>
						<polygon fill="#504B4D" points="235.921,113.63 238.716,113.092 235.383,113.635 						"/>
						<polygon fill="#504B4D" points="221.581,111.875 222.546,111.527 220.827,112.052 						"/>
						<path fill="#504B4D" d="M217.273,111.921c0.714-0.289-0.977-0.497-0.222-0.673c-1.171,0.047-2.171,0.294-3.071,0.516
							C214.937,111.642,215.956,111.678,217.273,111.921z"/>
						<path fill="#504B4D" d="M212.469,112.086c0.478-0.068,0.973-0.191,1.512-0.322
							C213.473,111.829,212.973,111.924,212.469,112.086z"/>
						<path fill="#504B4D" d="M224.107,112.688c-0.131-0.092-0.384-0.333-1.337-0.438l0.667,0.43
							C223.642,112.682,223.873,112.685,224.107,112.688z"/>
						<path fill="#504B4D" d="M223.461,112.693l-0.023-0.014c-0.726-0.015-1.229-0.025-1.444-0.029
							C222.179,112.655,222.62,112.668,223.461,112.693z"/>
						<path fill="#504B4D" d="M224.276,112.69c-0.062-0.001-0.108-0.001-0.169-0.002C224.172,112.73,224.21,112.745,224.276,112.69z
							"/>
						<path fill="#504B4D" d="M231.465,113.227c-1,0.235-3.084,0.484-1.069,0.855C231.113,113.792,229.96,113.581,231.465,113.227z"
							/>
						<path fill="#504B4D" d="M225.104,113.228l1.806,0.104c-0.034-0.113-0.36-0.279,0.136-0.396L225.104,113.228z"/>
						<polygon fill="#504B4D" points="224.22,113.36 225.104,113.228 224.436,113.189 						"/>
						<path fill="#504B4D" d="M215.561,112.497c-0.78,0.183-1.634,0.196-2.598,0.222c1.032,0.088,2.101,0.137,3.115,0.14
							C216.222,112.725,216.668,112.486,215.561,112.497z"/>
						<path fill="#504B4D" d="M219.4,112.63c-0.055,0.007-0.123,0.017-0.174,0.023C219.333,112.69,219.419,112.702,219.4,112.63z"/>
						<path fill="#504B4D" d="M203.471,112.681c0.053,0.026,0.1,0.051,0.152,0.078c0.012-0.025,0.021-0.049,0.036-0.074
							L203.471,112.681z"/>
						<path fill="#504B4D" d="M216.251,112.939c0.776,0.085,1.241-0.018,1.684-0.147c-0.58,0.041-1.196,0.066-1.856,0.067
							C216.014,112.919,216.001,112.959,216.251,112.939z"/>
						<path fill="#504B4D" d="M209.82,112.276c0.404,0.091,0.862,0.168,1.344,0.24C210.77,112.379,209.963,112.165,209.82,112.276z"
							/>
						<path fill="#504B4D" d="M218.966,112.535c0.038-0.006,0.074-0.012,0.116-0.019
							C218.827,112.423,218.859,112.468,218.966,112.535z"/>
						<path fill="#504B4D" d="M218.966,112.535c-0.4,0.06-0.715,0.164-1.031,0.257c0.473-0.032,0.912-0.076,1.292-0.138
							C219.131,112.623,219.034,112.577,218.966,112.535z"/>
						<path fill="#504B4D" d="M200.586,115.414c0.139-0.396,2.182-0.754,3.943-0.323c1.734-0.29,0.605-1.597-0.906-2.331
							c-0.055,0.173-0.055,0.333-1.84,0.56c0.623,0.219,3.958,0.521,2.451,0.874c-2.365,0.195-1.938-0.147-3.086-0.361
							c0.975,0.497-3.011,0.707-2.498,1.435l2.074-0.248C200.763,115.131,200.01,115.309,200.586,115.414z"/>
						<path fill="#504B4D" d="M207.024,112.812l0.734-0.047c-0.837-0.072-1.437-0.232-2.538-0.546
							c-1.223,0.189-1.477,0.335-1.562,0.466l3.616,0.069L207.024,112.812z"/>
						<path fill="#504B4D" d="M211.057,112.776c-0.575,0.429-2.34,0.605-1.262,1.076c2.156-0.022,1.513-0.354,2.801-0.537
							c-3.479,0.094,1-0.237-1.513-0.49c0.685-0.071,1.299-0.091,1.88-0.107c-0.626-0.054-1.23-0.122-1.799-0.203
							c0.031,0.011,0.054,0.018,0.08,0.027l0.017-0.001l-0.004,0.007c0.149,0.054,0.199,0.087,0.03,0.055
							c-0.012,0.005-0.054,0.007-0.073,0.008c-0.023,0.06-0.088,0.112-0.157,0.162c-1.008-0.093-0.158-0.112,0.157-0.162
							c0.012-0.021,0.039-0.041,0.043-0.063l-0.013-0.006l-3.485,0.223C208.496,112.829,209.419,112.82,211.057,112.776z"/>
						<path fill="#504B4D" d="M228.533,115.002c-0.107-0.039-0.103-0.069-0.111-0.101
							C228.196,114.954,228.111,114.99,228.533,115.002z"/>
						<path fill="#504B4D" d="M227.101,114.737c0.254-0.059,0.466-0.231,1.289-0.184c0.714,0.132-0.005,0.207,0.032,0.349
							c0.497-0.113,1.738-0.303,0.183-0.518l-0.246,0.058c-1.402-0.153-3.203-0.697-2.958-0.755
							C225.809,114.075,226.169,114.353,227.101,114.737z"/>
						<path fill="#504B4D" d="M218.979,113.866l-2.902,0.201l1.476,0.378l-0.074-0.225
							C219.128,114.315,218.772,114.038,218.979,113.866z"/>
						<polygon fill="#504B4D" points="203.141,112.465 203.527,112.012 201.849,112.648 						"/>
						<polygon fill="#504B4D" points="199.369,112.506 199.511,112.111 198.514,112.346 						"/>
						<path fill="#504B4D" d="M136.403,55.814l0.567-0.647C136.689,55.459,136.52,55.659,136.403,55.814z"/>
						<path fill="#504B4D" d="M131.746,59.865l0.015,0.246C131.905,59.841,131.941,59.705,131.746,59.865z"/>
						<path fill="#504B4D" d="M106.769,112.211c-1.241-0.374-2.626-0.953-2.478-0.506l0.38,0.435
							C105.54,112.065,106.204,112.116,106.769,112.211z"/>
						<path fill="#504B4D" d="M95.245,94.95c-0.117,0.046-0.239,0.094-0.36,0.141c-0.128,0.311-0.249,0.603-0.356,0.865
							C94.744,95.652,94.988,95.31,95.245,94.95z"/>
						<path fill="#504B4D" d="M94.719,93.022l1.416-0.87C95.793,92.322,95.336,92.6,94.719,93.022z"/>
						<path fill="#504B4D" d="M161.44,33.237l0.456-0.988C160.728,33.277,161.39,32.993,161.44,33.237z"/>
						<path fill="#504B4D" d="M160.753,112.524c-1.071-0.173-1.924-0.248-2.673-0.271
							C159.37,112.507,160.41,112.884,160.753,112.524z"/>
						<path fill="#504B4D" d="M137.614,60.877c0.34-0.403,0.45-0.617,0.375-0.679C137.633,60.608,137.46,60.871,137.614,60.877z"/>
						<path fill="#504B4D" d="M154.985,112.243c0.189,0.044,0.374,0.066,0.566,0.104c0.784-0.07,1.572-0.125,2.529-0.094
							C157.127,112.064,156.036,111.945,154.985,112.243z"/>
						<path fill="#504B4D" d="M256.346,89.678c0.054,0.074,0.127,0.152,0.172,0.223C256.577,89.875,256.487,89.791,256.346,89.678z"
							/>
						<path fill="#504B4D" d="M280.031,116.635c-0.279-0.213-0.707-0.594-1.114-0.948
							C279.094,115.884,279.425,116.175,280.031,116.635z"/>
						<path fill="#504B4D" d="M184.199,112.261C185,112.236,184.326,112.214,184.199,112.261L184.199,112.261z"/>
						<path fill="#504B4D" d="M188.082,113.991c-0.17,0.048-0.299,0.11-0.319,0.21C187.828,114.097,187.94,114.031,188.082,113.991z
							"/>
						<path fill="#504B4D" d="M147.01,114.914c-0.023,0-0.042-0.001-0.069-0.001C147.178,114.998,147.137,114.982,147.01,114.914z"
							/>
						<path fill="#504B4D" d="M185.402,112.463c-0.301-0.054-0.646-0.1-1.022-0.132
							C184.545,112.365,184.855,112.408,185.402,112.463z"/>
						<path fill="#504B4D" d="M185.241,112.257c0.276,0.018,0.492,0.031,0.698,0.044
							C186.041,112.23,185.952,112.184,185.241,112.257z"/>
						<path fill="#504B4D" d="M183.086,112.281c0.457-0.005,0.884,0.017,1.294,0.05c-0.157-0.03-0.223-0.055-0.181-0.069
							C183.965,112.265,183.635,112.271,183.086,112.281z"/>
						<path fill="#504B4D" d="M206.656,46.979c0.031,0.045,0.066,0.095,0.102,0.145C207.479,47.525,207.195,47.311,206.656,46.979z"
							/>
						<path fill="#504B4D" d="M85.94,116.64c0.038-0.005,0.057-0.016,0.091-0.021c-0.038-0.005-0.084-0.012-0.118-0.016
							L85.94,116.64z"/>
						<path fill="#504B4D" d="M82.982,116.953c0.288-0.067,0.366-0.124,0.521-0.174c0.138-0.049,0.27-0.09,0.396-0.123
							c0.252-0.067,0.482-0.105,0.704-0.122c0.442-0.035,0.848,0.012,1.311,0.07l-0.945-1.255c0,0-0.476,0.401-0.951,0.802
							C83.55,116.552,83.075,116.953,82.982,116.953z"/>
						<path fill="#504B4D" d="M147.43,45.974l-1.773,1.038c1.407-2.088,2.877-3.083,1.092-2.247c0.681,1.209-5.802,5.275-5.118,6.48
							l-1.188,0.662c0.295-0.242,0.288-0.342,0.58-0.58c-2.373,1.217-0.796,2.005-3.429,4.057c-0.941,0.688-1.68,1.074-1.191,0.431
							l-1.724,1.958c-0.583,0.477-0.6,0.178-0.02-0.297l-2.895,2.684l-0.004-0.049c-0.282,0.532-1.024,1.621-1.4,2.137
							c-0.882,0.515,0.283-0.44-0.022-0.398l-1.425,1.688c-0.901,0.322,0.235-1.128,1.403-2.086
							c-2.428,0.327-1.138,1.453-4.97,3.762l1.437-1.49c-1.508,0.298-2.534,1.57-4.604,2.747c0.582-0.177,4.309-2.17,2.75-0.352
							c-0.57,0.364-1.265,0.908-2.046,1.958c-0.328-0.355-1.188,0.558-2.345,1.609l-0.341-0.551
							c-1.149,1.253-0.833,1.41-1.391,2.283c-1.458,1.195-2.078,1.08-2.687,1.058c-2.334,1.913,2.09-0.776-0.514,1.668
							c-2.047,1.471-3.199,2.829-5.203,5.096c-1.465,0.992-0.027-0.497-0.621-0.219l-0.833,1.41
							c-0.294,0.242-0.305,0.043-0.311-0.058c-0.855,1.014,0.34,0.552-1.095,2.042c0.047,0.896-3.861,2.018-5.251,4.302
							c-0.592,0.278-0.03-0.495-0.338-0.554c-2.286,2.703-2.004,2.266-3.699,4.693l-2.118,1.299c1.669-0.825,0.316,1.118-0.89,2.797
							c0.632-0.246,1.176-0.453,1.515-0.622l-2.189,2.377c-0.361,0.177-0.263-0.202-0.043-0.75
							c-0.127,0.187-0.247,0.364-0.342,0.503c-1.02,0.58-0.815-0.09-0.432-0.902c0.38-0.157,0.76-0.314,1.13-0.467
							c0.34-0.815,0.615-1.628,0.244-1.801c-0.108,0.193-0.369,0.506-0.678,0.825c0.086-0.216,0.124-0.375,0.009-0.359
							c-0.126,0.021-0.285,0.349-0.572,0.818l-1.02-0.054l0.054,0.33l-3.455,2.438c-1.788,2.523-3.058,5.043-6.452,8.413
							c0.545-1.174-0.372-0.81-0.732-1.318c1.412-0.366,2.596-2.648,4.544-4.18c-1.016,0.8-0.998,0.391-0.818,0.097l-2.924,3.359
							c-0.259-0.447-0.955,0.332-1.959,0.935c0.658,0.089,0.149,0.757-0.667,1.579c-0.208,0.202-0.43,0.418-0.656,0.639
							c-0.309,0.288-0.625,0.582-0.932,0.868c-0.613,0.574-1.177,1.118-1.529,1.529c-0.524,0.012-0.452-0.508,2.063-2.606
							c-1.625,0.923-2.353,1.953-2.768,2.728c-0.471,0.824-0.638,1.399-2.343,2.468c0.521-0.469,0.884-0.718,0.833-0.9
							c-0.408,0.557-1.416,1.461-2.366,2.217c-0.941,0.748-1.859,1.376-1.812,1.141l0.554-0.495
							c-0.498,0.424-1.06,0.902-1.665,1.417c-0.43,0.451-1.878,1.307-0.375,1.062c1.716-0.002,3.581-0.027,5.307-0.083
							c3.486-0.11,6.24-0.344,6.675-0.769c0.032,0.11-1.026,1.023-1.489,1.193c0,0,0.72-0.177,1.633-0.442
							c0.456-0.134,0.954-0.289,1.435-0.455c0.453-0.167,0.791-0.344,1.206-0.521c1.586-0.709,3.173-1.419,3.173-1.419
							c-0.561,0.728,1.575,2.476-1.371,2.878c0.845,0.106,1.891,0.232,3.674-0.02c-0.577-0.105-1.434-1.061-0.646-1.125
							c2.161,0.821,1.5,0.44,4.165,1.144c-0.864-0.16,0.101-1.302,1.467-1.26c-0.214,0.17,0.11,1.131-0.39,1.248l3.405-1.111
							c-0.85,0.199-0.154,0.952,0.606,1.272c-0.352-0.221,2.94,0.031,3.847-0.076l-1.44-0.267c3.839,0.185,3.798-1.567,7.607-1.494
							c-0.462,0.23-1.144,1.426,0.793,1.574c0.89-0.573,3.941-2.756,7.313-3.187l0.645,0.332l2.587-0.366
							c-1.613,0.861-6.139,2.667-8.609,3.369c1.436,0.266,0.398,0.39,2.551,0.367c0.759,0.312-1.174,0.464-1.808,0.48l5.009,0.217
							c-0.221-0.673,3.833-0.66,3.645-1.221l-5.444,0.677c-0.218-0.672,3.153-1.896,6.703-1.765c0.902,0.271-0.68,1.194-0.607,1.418
							c0.462-0.229,3.371-0.429,3.696-0.264l-1.507,0.354c1.975,0.261,3.229-0.879,5.601-0.229c0.82,0.046,2.444,0.874,2.588,0.477
							c-1.334-0.771-1.587-3.146-0.693-3.718c0.287,0.053,4.301,0.749,5.235,1.131c1.348,0.606-2.032,1.426-0.884,1.947
							c0.05-0.184,0.797-0.407,1.108-0.479c0.86,0.16-0.359,0.568,1.512,0.492c0.314-0.681,3.804,0.071,0.886-0.573
							c1.83-0.188,1.944,0.147,4.093,0.125c-0.682-0.442,1.935-1.492,3.768-1.679c-0.108,0.173,0.302,0.4,0.501,0.503
							c3.75,0.075,5.763,0.393,9.26,0.411c0.322,0.166,2.009,0.372,1.289,0.663c0.503-0.119,0.966-0.348,2.045-0.36
							c2.085,0.597-2.406,0.083-0.817,0.797c0.137-0.396,2.792-0.536,4.329-0.778c-0.47-0.613-3.549-0.13-5.089,0.111
							c-0.004-0.844,2.678-1.718,6.334-2.095c2.906-0.199,1.258,0.55,1.762,0.432c5.457,0.167,4.654-1.457,9.184-0.831
							c1.796,0.544,0.077,1.07,0.474,1.459c-2.367,0.195-3.632-0.354-5.236-0.339l1.974,0.261c-0.753,0.176-2.333,0.306-3.194,0.147
							c1.505,0.489,9.219,0.126,13.427,0.588c0.749-0.178,2.04-0.359,1.431-0.578l-1.333,0.07c-1.223-0.438,2.51-0.59,0.824-0.799
							c1.788-0.298,3.793-0.77,6.308-0.515l0.471,0.615c-0.054-0.179-1.643-0.371-2.352-0.187c1.051-0.268,3.855,0.844,5.007,0.045
							l-1.763-0.431c1.796-0.302,4.016-0.944,6.244-0.743c-1.012-0.609-0.514,0.067-2.096-0.647c1.371,0.886-5.702-0.058-3.5,0.876
							c-1.622-0.828-2.812-0.359-4.935-1.068c0.065,0.202,0.752,0.389-1.12,0.283c-0.084,0.059-0.283,0.133-0.41,0.177
							c-0.058-0.007-0.078-0.009-0.127-0.016c0.037,0.009,0.066,0.016,0.104,0.024c-0.082,0.03-0.089,0.036,0.038,0.008
							c0.445,0.09,0.806,0.198,0.952,0.311c-0.93,0.461-3.906,0.436-4.914,0.672c-1.11-0.101,0.465-0.23-0.141-0.449l-1.504,0.354
							c-0.147-0.45-2.948-0.757-0.331-1.01l-2.355-0.029c-1.385-0.257-3.292-0.364-4.469-0.18c-1.11-0.101-2.807,0.487-1.838,0.139
							l-3.694,0.265l-0.034-0.113c-3.644-0.07-7.503,0.716-11.667-0.109c-1.227,0.109-2.495,0.243-4.547,0.108l-0.398-0.39
							c-1.576,0.13-4.729-0.406-5.407-0.004c-1.695-1.052-7.643-0.256-10.413-0.452l-0.106,0.507
							c-1.907-0.036-3.736,0.102-6.103,0.296l0.144,0.449c-2.042,0.361-5.244-0.338-8.472-0.304c0.22-0.17,1.038-0.123,1.617-0.017
							c-3.853-1.027-8.138,0.707-11.633-0.044c-0.872,0.16-1.502,0.102-2.113-0.013c0.081,0,0.154-0.008,0.216-0.022
							c-0.089-0.001-0.221-0.004-0.357-0.007c-0.384-0.079-0.78-0.17-1.209-0.243c0.364,0.11,0.713,0.202,1.017,0.244
							c-0.672,0.007-1.691,0.059-2.691,0.167l-0.424-0.483c-0.081,0.005-0.146,0.008-0.231,0.013
							c-0.98-0.182-0.789,0.225-0.268,0.589c-0.503,0.077-0.964,0.17-1.323,0.286c-0.793-0.78-2.622,0.252-3.706-0.581
							c-0.675,0.402-5.024,0.286-5.56,1.134c-0.034-0.111-0.328-0.165,0.212-0.169c-1.114-0.102-2.227-0.202-3.227,0.034
							l-0.47-0.614l-2.436,0.814c-1.476-0.378-2.087-0.598-0.619-1.063c-3.476,0.712-3.138,0.26-5.326,0.974l0.305-0.396
							c-0.333,0.007-0.868,0.142-1.41,0.234c-0.532,0.092-1.052,0.142-1.044-0.021c-0.151-0.188-0.617-0.29-1.278-0.348
							c-0.169-0.011-0.348-0.023-0.534-0.036c-0.096-0.004-0.194-0.008-0.293-0.013c-0.04-0.006-0.126,0.005-0.128-0.015
							l0.138-0.115c0.354-0.301,0.729-0.622,1.119-0.954c0.758-0.652,1.571-1.355,2.375-1.995c0.467-0.36,0.928-0.715,1.374-1.059
							c0.677-0.527,1.341-1.021,1.98-1.465c-1.671-0.085,2.505-1.503,2.094-2.344c0.452-0.03,1.203-0.481,0.608,0.359
							c2.194-2.285,3.853-2.799,4.988-4.808c0.454-0.03-0.241,0.75,0.108,0.66c0.151-0.212,0.595-0.841,0.951-0.934
							c0.35-0.089-0.195,0.479-0.491,0.898c2.393-2.161,2.078-3.015,1.728-3.769c1.477-0.793,2.054-1.371,2.596-2.542
							c0.6-0.179,1.493-0.6,0.049,0.792c0.873-0.714,5.427-4.252,5.092-4.809c0.372-0.111,1.215-1.003,1.39-1.254
							c1.926-1.639,2.131-1.742,3.958-3.425l-0.586,0.375c0.229-1.226,1.438-1.49,2.882-2.88l0.009,0.097
							c3.817-2.609,1.314-1.507,5.136-4.016l-0.501-0.198c-0.363-1.054,3.417-2.188,5.133-4.218l-0.894,0.42
							c0.846-1.212,3.941-1.591,5.109-2.445c0.295-0.14-0.278,0.436-0.563,0.775c3.238-2.032-0.047-0.795,1.971-2.759
							c0.613-0.087,0.066,1.088,1.53-0.112c0.89-0.416,3.401-4.447,5.771-5.662c-0.6,0.179-1.197,0.355-0.344-0.653
							c1.443-1.391,4.72-2.827,5.536-4.639c0.238-0.114,0.356-0.126,0.407-0.084c1.01-1.169,3.506-3.545,3.904-4.489
							c2.156,0.312,6.621-6.88,7.603-5.709l3.485-3.166l0.01,0.198c2.329-1.909,2.887-2.885,3.44-3.858
							c0.591-0.381,0.303,0.062,0.313,0.16c3.508-2.668,3.794-3.005,6.063-6.008l0.615,0.12c0.561-0.875,5.291-3.608,8.151-6.886
							c0.005,0.07,0.002,0.201-0.209,0.479c1.073-1.195,2.481-2.32,3.893-3.382c0.354-0.264,0.707-0.526,1.055-0.784
							c0.217-0.166,0.233-0.156,0.325-0.214l0.222-0.127c0.283-0.163,0.511-0.298,0.713-0.468c0.418,0.387,0.76,0.456,1.437,0.229
							l2.657,1.771c-3-2.86,0.982-0.175-0.092-1.532c1.287,1.004,2.783,3.208,1.226,1.945l-0.174-0.276
							c-1.175,0.214,3.622,3.672,3.113,4.077c6.117,5.386,11.703,11.059,17.378,16.167l-0.171-1.131l1.961,1.802
							c0.409,0.592,0.32,1.052-1.078-0.235c0.471,0.975,2.61,1.86,2.757,1.777c2.581,2.695-1.653-0.33-0.812,0.442l1.192,0.99
							l-0.204-0.296c1.137,0.612,1.431,0.45,3.111,1.995c0.982,1.07,0.254,0.83,0.66,1.229c-0.037,0.036,0.09,0.183,0.638,0.596
							l2.464,2.278l-0.618-1.323c1.3,0.776,2.336,2.121,1.615,0.603c1.026,2.265,9.105,8.594,9.939,9.756
							c1.835,1.071,3.365,2.444,5.234,4.176c-0.394-0.511-0.244-1.248,1.343,0.272c-1.491,0.466,2.617,3.11,3.302,5.01
							c-0.76-1.533,4.769,4.036,3.514,1.702c1.297,1.3-0.251,0.448,0.578,1.609c3.604,2.514,6.955,6.646,11.099,10.102
							c0.18-0.075-0.315-0.877,0.723-0.303l1.541,2.551c0.853,0.644,1.407-0.106,2.454,1.644c-0.106-0.293-0.265-0.732,0.307-0.299
							c7.318,7.666,16.587,13.833,23.527,22.171c-0.858-1.221-0.112-0.603,0.725,0.126c-0.484-0.54,0.302-0.313,0.354-0.586
							c0.395,0.471,0.788,0.941,1.241,1.345c0.321-0.869,0.644-1.738,0.965-2.578l-2.669-0.434
							c-0.821,0.659-4.815,0.027-5.287,0.658l1.423-0.108c-1.895,0.739,2.641,1.669,2.36,2.626c1.092-0.433,2.539-0.081,4.161,0.197
							l3.455,0.595l-2.493-3.106c-0.97-1.208-2.1-2.472-3.75-3.153c-0.443-0.656,0.693,0.205,0.535-0.234
							c-0.931-0.279-1.782-0.923-3.132-2.372l0.234,0.072c-4.202-3.608-5.707-5.49-10.174-9.829l0.029,0.66
							c-0.956-0.937-1.067-1.234-1.456-1.739c-1.623-0.484,2.777,2.527,1.207,2.189c-0.684-1.899-7.031-6.281-7.197-7.896
							c-1.532-1.373,0.085,0.811-1.446-0.562l-0.21-0.584l-0.642-0.061c-0.966-0.944-1.227-1.673-1.098-1.894
							c0.225,0.24,0.741,0.566,1.018,0.783c-1.074-1.424-3.761-3.19-4.134-3.674l1.354,1.45c-4.376-3.525-9.235-8.375-13.686-11.531
							l0.158,0.441c-3.367-2.445-2.313-2.389-5.836-5.271l0.159,0.07c-0.828-0.439-1.81-1.163-2.723-2.01
							c1.032,0.568-1.274-1.816,0.043-1.031c-3.648-2.655-1.891-1.217-4.658-2.569l-0.264-0.731
							c-0.979-0.422-1.159-0.346-2.919-1.784c1.603,1.001-0.706-1.386,1.132-0.312c-3.02-3.775-5.828-4.094-6.672-6.434
							c-2.317-0.689,2.7,3.168,1.639,2.517c0.543,0.933-1.858-0.628-2.907-1.7c-1.121-1.03-1.06-2.702-3.932-5.234
							c0.281,0.257,0.353,0.216,0.633,0.472c-0.896-1.148-2.332-1.603-3.361-3.089c-1.148-0.192-1.682-1.544-2.42-1.142l2.745,2.199
							c-1.625-1.17-3.636-1.72-5.786-4.237c0.297,0.051,1.166,0.543,1.744,0.901c-0.561-0.812-1.482-1.113-2.064-1.953
							c0.738-0.403,3.302,2.71,5.297,3.678c-0.547-0.935-3.396-2.256-2.024-2.184c-1.876-0.21-2.726-2.612-5.216-3.714l0.443-0.241
							c-0.356-0.217-1.141-0.615-1.696-1.126l1.431,0.45c-1.917-1.004-2.717-3.034-4.411-4.16c3.158,2.793,0.327,1.057,1.428,2.5
							c-4.306-2.984-1.407-2.916-5.907-6.618c0.634,0.474,2.021,2.181,0.954,1.525c-0.763-0.81-1.734-1.919-2.077-2.558
							c-2.945-2.492,0.117,0.758-1.303-0.116c-0.596-1.305-1.57-1.084-2.957-2.07l0.312-0.368c-3.076-3.155-1.539-0.024-4.245-2.936
							l1.694,0.613l-1.656-1.243l0.684-0.126c-0.975-0.595-1.574-1.028-2.123-1.509c-0.273-0.241-0.535-0.494-0.825-0.785
							c-0.144-0.146-0.296-0.302-0.46-0.469c-0.088-0.09-0.18-0.184-0.276-0.281c-0.147-0.143-0.301-0.292-0.461-0.448
							c0.212,0.416-0.03,0.494-0.544,0.275c-0.521-0.225-1.289-0.725-2.297-1.612c-1.036-1.211-0.038-0.524-0.763-1.213
							c-0.239,0.196-0.677,0.583-1.439,1.274c0.371-0.565,0.815-1.231,1.441-1.838c0.409,0.326,0.902,0.825,1.422,1.528
							c0.177-0.053,0.815,0.32,1.038,0.311c-0.671-0.776-1.572-1.629-2.458-2.415c-1.327,1.169-2.592,2.4-3.342,3.062
							c0.499-0.414,1.093-0.9,1.408-1.085c0,0-0.295,0.314-0.738,0.786c-0.214,0.229-0.463,0.497-0.73,0.783
							c-0.13,0.14-0.264,0.284-0.4,0.431c-0.133,0.144-0.288,0.308-0.345,0.386c-0.641,0.785-1.283,1.57-1.283,1.57
							c-0.593,0.279-0.313-0.16-0.036-0.593c-0.575,0.574-0.85,1.11-1.718,1.927c-0.026-0.498-0.349-0.753,0.797-2.004l-2.578,2.841
							c-0.304,0.04-1.779,0.938-1.502,0.503c-1.741,1.22-3.395,3.99-5.702,5.609c-0.059,0.153-0.23,0.4-0.642,0.835
							c-2.038,1.669-4.108,2.846-6.1,5.309l-1.795,0.639c-1.732,1.732,2.386-0.915-0.498,1.968
							c-2.019,2.069-1.204,0.258-2.093,0.778c-0.844,1.211-2.241,3.396-4.608,4.712C146.264,46.928,146.85,46.553,147.43,45.974z
							 M124.977,66.087c0.373-0.461,1.042-1.464,1.55-1.531C126.392,65.41,125.83,65.55,124.977,66.087z M91.297,97.179
							c0.221-0.406,0.778-0.79,1.468-1.152C92.378,96.419,91.898,96.817,91.297,97.179z M175.433,112.622
							c-0.025,0.008-0.042,0.014-0.062,0.023C174.069,112.452,174.53,112.528,175.433,112.622z M178.138,112.841
							c0.272-0.066,0.254-0.134,0.139-0.201c-0.189,0.121-0.796,0.127-1.488,0.09C176.98,112.858,177.33,112.946,178.138,112.841z
							 M210.875,55.084l-0.309-0.444C211.547,55.327,211.215,55.199,210.875,55.084z"/>
						<path fill="#504B4D" d="M94.768,93.257c0.178-0.048,0.271-0.01,0.361,0.032C95.248,93.077,95.189,93.003,94.768,93.257z"/>
						<path fill="#504B4D" d="M161.355,33.42l0.072-0.056c0.019-0.055,0.02-0.095,0.012-0.126L161.355,33.42z"/>
						<path fill="#504B4D" d="M136.215,116.778c-0.557-0.071-0.868-0.161-1.074-0.253
							C135.11,116.643,135.363,116.744,136.215,116.778z"/>
						<path fill="#504B4D" d="M192.478,112.074l-1.733,0.119c0.838-0.021,1.137,0.086,1.561,0.164
							C192.266,112.244,191.936,112.08,192.478,112.074z"/>
						<path fill="#504B4D" d="M207.509,115.115c0.253-0.059,0.537-0.005,0.787-0.063l-0.068-0.225
							C207.148,114.837,206.394,115.015,207.509,115.115z"/>
						<path fill="#504B4D" d="M194.076,113.683c0.136,0.406,1.224,0.273,2.438,0.202c-0.072,0.001-0.143,0.004-0.215-0.001
							C196.658,113.317,195.365,113.5,194.076,113.683z"/>
						<path fill="#504B4D" d="M196.795,113.872c0.375-0.018,0.757-0.027,1.123-0.006
							C198.061,113.639,197.463,113.817,196.795,113.872z"/>
						<path fill="#504B4D" d="M181.57,112.584c0.576,0.107,0.363-0.518,0.688-0.351C182.903,111.719,178.418,112.845,181.57,112.584
							z"/>
						<polygon fill="#504B4D" points="195.055,115.023 194.621,114.521 193.939,114.922 						"/>
						<path fill="#504B4D" d="M185.471,114.621l1.939,0.146c-0.029-0.084,0.217-0.132,0.52-0.169
							C186.734,114.576,185.426,114.472,185.471,114.621z"/>
						<path fill="#504B4D" d="M187.93,114.597c0.623,0.012,1.215,0.003,1.562-0.077C189.154,114.524,188.43,114.538,187.93,114.597z
							"/>
						<polygon fill="#504B4D" points="192.402,115.164 191.829,115.057 190.459,115.016 						"/>
						<path fill="#504B4D" d="M164.619,114.447l-2.117,0.136c-0.216,0.171,0.36,0.278,1.148,0.213
							C164.158,114.678,164.943,114.614,164.619,114.447z"/>
						<path fill="#504B4D" d="M171.017,115.843c-0.572-0.106-0.61-0.219-0.932-0.385l-0.067,0.621L171.017,115.843z"/>
						<path fill="#504B4D" d="M164.842,115.965c-0.211,0.172-3.074,0.483-0.391,0.454
							C164.667,116.25,166.788,116.114,164.842,115.965z"/>
						<polygon fill="#504B4D" points="132.948,115.063 133.486,115.057 133.412,114.038 						"/>
						<path fill="#504B4D" d="M104.824,117.396c2.508,0.253,0.598-0.626,2.864-0.313c0.589-0.238-1.852-0.255-1.248-0.461
							C104.926,116.87,104.131,116.723,104.824,117.396z"/>
						<path fill="#504B4D" d="M106.441,116.622c0.243-0.039,0.5-0.087,0.773-0.152C106.775,116.532,106.569,116.58,106.441,116.622z
							"/>
						<polygon fill="#504B4D" points="275.804,112.899 274.19,112.681 275.231,113.027 						"/>
						<path fill="#504B4D" d="M272.704,113.643l-0.378-0.65l-0.971,0.583C271.72,113.549,272.428,113.495,272.704,113.643z"/>
						<path fill="#504B4D" d="M120.746,68.06l0.011,0.198c0.299-0.038,0.591-0.277,1.177-0.756L120.746,68.06z"/>
						<polygon fill="#504B4D" points="137.512,53.997 137.22,54.235 138.136,54.212 						"/>
						<path fill="#504B4D" d="M150.821,41.324c-0.58,0.476-1.155,1.155-1.738,1.633C150.242,41.8,151.457,41.741,150.821,41.324z"/>
					
				</g>
			</g>
		</svg>