<?xml version="1.0" encoding="utf-8"?>
<!-- Generator: Adobe Illustrator 16.0.0, SVG Export Plug-In . SVG Version: 6.00 Build 0)  -->
<!DOCTYPE svg PUBLIC "-//W3C//DTD SVG 1.1//EN" "http://www.w3.org/Graphics/SVG/1.1/DTD/svg11.dtd">
<svg version="1.1" id="Layer_1" xmlns="http://www.w3.org/2000/svg" xmlns:xlink="http://www.w3.org/1999/xlink" x="0px" y="0px"
	 width="344.982px" height="298.485px" viewBox="0 0 344.982 298.485" enable-background="new 0 0 344.982 298.485"
	 xml:space="preserve">
<g>
<path fill="#504C4D" d="M74.885,257.356c35.076,0,63.542-28.464,63.542-63.543c0-22.369-11.569-41.999-29.025-53.328l11.02-20.428
			c1.409-2.632,3.51-2.552,4.68,0.24l26.625,63.439c-2.793,4.17-4.442,9.198-4.442,14.597c0,14.315,11.437,25.907,25.633,26.305
			l4.369,22.158h23.566c2.998,0,5.426-2.447,5.426-5.45c0-3.009-2.428-5.452-5.426-5.452H186.25l-2.606-13.195
			c9.603-3.938,16.356-13.353,16.356-24.365c0-7.523-3.197-14.277-8.277-19.093c0.139-0.162,0.326-0.292,0.459-0.482l38.641-61.146
			c1.629-2.552,3.862-2.37,5.006,0.423l7.9,19.07c-20.72,10.48-34.951,31.896-34.951,56.707c0,35.079,28.461,63.543,63.543,63.543
			c35.104,0,63.568-28.464,63.568-63.543c0-35.108-28.465-63.568-63.568-63.568c-5.373,0-10.592,0.749-15.559,2.021l-9.742-34.447
			c-0.658-2.391-2.893-4.173-5.373-4.567c1.736-3.81,4.229-7.558,7.588-8.484c0.478-0.139,0.871-0.43,1.189-0.776
			c0.326,0.21,0.619,0.43,0.965,0.638l8.831,4.972v3.623c0,1.514,1.216,2.737,2.739,2.737h9.389c1.489,0,2.706-1.224,2.706-2.737
			V62.713c0-1.493-1.217-2.71-2.706-2.71h-9.389c-1.523,0-2.739,1.217-2.739,2.71v3.404l-8.538,3.567
			c-4.895,2.071-5.806,5.21-5.879,6.886c-0.054,0.823,0.073,2.049,0.744,3.405c-3.005,1.197-5.372,3.538-7.188,6.2l-3.139-10.109
			c1.337-0.587,2.373-1.144,2.932-1.438c2.607-1.461,3.539-4.788,2.076-7.394c-1.463-2.631-4.768-3.591-7.395-2.124
			c-3.305,1.83-7.768,3.19-8.723,2.948c-0.588-0.662-1.1-1.384-1.631-2.127c-3.166-4.42-7.067-8.565-15.793-8.749
			c-1.814-1.493-4.201-2.261-6.701-1.811l-25.854,4.63c-4.448,0.796-7.394,5.05-6.595,9.494c0.69,3.961,4.143,6.731,8.033,6.731
			c0.479,0,0.95-0.026,1.436-0.136l25.874-4.63c2.214-0.395,4.049-1.648,5.246-3.351c2.846,0.482,3.989,2.049,5.498,4.153
			c0.778,1.064,1.523,2.099,2.4,3.058c2.289,2.554,5.312,3.432,8.398,3.432c0.086,0,0.167-0.025,0.246-0.025l4.734,15.29
			l-96.522,9.362c-0.692,0.081-1.331,0.056-1.916-0.027L121.85,83.804c9.609-4.388,18.998-2.26,16.604-16.196
			c0,0,0.445-4.997-15.46-4.097c-15.878,0.905-46.273-1.356-43.561,18.622c2.706,19.972,21.777,24.042,33.134,9.07
			c0.166-0.214,0.353-0.376,0.505-0.589l5.912,11.387c-2.419,1.49-4.894,4.093-5.958,6.405l-12.501,27.265
			c-7.852-3.485-16.517-5.426-25.641-5.426c-35.082,0-63.542,28.46-63.542,63.543C11.316,228.893,39.777,257.356,74.885,257.356
			L74.885,257.356z M249.633,151.368l13.799,33.323l0.025,0.028c-2.361,2.312-3.824,5.532-3.824,9.094
			c0,7.021,5.693,12.688,12.715,12.688c7.015,0,12.68-5.696,12.68-12.688c0-7.021-5.665-12.714-12.68-12.714
			c-0.611,0-1.17,0.081-1.762,0.16l-9.656-34.148c3.671-0.906,7.48-1.409,11.418-1.409c26.564,0,48.108,21.543,48.108,48.111
			c0,26.569-21.544,48.119-48.108,48.119c-26.599,0-48.115-21.55-48.115-48.119C224.232,175.436,234.518,159.477,249.633,151.368
			L249.633,151.368z M143.853,116.281l72.208-4.735c3.012-0.208,4.103,1.703,2.479,4.23l-36.998,57.557
			c-2.499-0.798-5.139-1.356-7.898-1.356c-3.856,0-7.533,0.905-10.825,2.396l-22.262-52.722
			C139.385,118.888,140.868,116.472,143.853,116.281L143.853,116.281z M74.885,145.702c6.81,0,13.3,1.436,19.171,3.989
			l-14.782,32.233c-1.39-0.503-2.846-0.825-4.415-0.825c-7.022,0-12.687,5.692-12.687,12.688c0,7.018,5.665,12.714,12.687,12.714
			c7.015,0,12.707-5.696,12.707-12.714c0-2.924-1.03-5.615-2.707-7.765l17.176-31.92c12.64,8.675,20.938,23.219,20.938,39.685
			c0,26.574-21.524,48.118-48.115,48.118c-26.572,0-48.115-21.544-48.115-48.118C26.77,167.245,48.287,145.702,74.885,145.702
			L74.885,145.702z M74.885,145.702"></path>
			</g>
</svg>