<?xml version="1.0" encoding="utf-8"?>
<!-- Generator: Adobe Illustrator 16.0.0, SVG Export Plug-In . SVG Version: 6.00 Build 0)  -->
<!DOCTYPE svg PUBLIC "-//W3C//DTD SVG 1.1//EN" "http://www.w3.org/Graphics/SVG/1.1/DTD/svg11.dtd">
<svg version="1.1" id="Layer_1" xmlns="http://www.w3.org/2000/svg" xmlns:xlink="http://www.w3.org/1999/xlink" x="0px" y="0px" width="344.982px" height="298.485px" viewBox="0 0 344.982 298.485" enable-background="new 0 0 344.982 298.485" xml:space="preserve">
	<g>
<path fill="#504C4D" d="M253.683,70.049L142.482,43.983c-22.252-5.216-44.626,8.66-49.843,30.918L66.021,188.45
			c-5.221,22.274,8.658,44.633,30.912,49.848l111.201,26.067c22.273,5.222,44.645-8.639,49.865-30.912l26.617-113.551
			C289.833,97.646,275.957,75.272,253.683,70.049L253.683,70.049z M247.458,230.981c-3.859,16.462-20.395,26.713-36.856,22.854
			L99.401,227.768c-16.461-3.858-26.713-20.389-22.855-36.851l26.617-113.551c3.859-16.461,20.39-26.714,36.851-22.855
			L251.215,80.58c16.462,3.858,26.718,20.392,22.86,36.851L247.458,230.981z M141.509,66.602
			c-10.975-2.573-21.986,4.271-24.558,15.245c-2.573,10.976,4.253,21.982,15.228,24.554c10.975,2.573,21.999-4.248,24.571-15.224
			C159.323,80.203,152.483,69.174,141.509,66.602L141.509,66.602z M134.647,95.871c-5.162-1.208-8.377-6.394-7.167-11.556
			c1.213-5.179,6.399-8.394,11.561-7.184c5.161,1.21,8.377,6.396,7.163,11.573C144.994,93.867,139.808,97.083,134.647,95.871
			L134.647,95.871z M128.473,122.211c-10.975-2.572-21.981,4.254-24.553,15.229c-2.573,10.974,4.249,21.999,15.224,24.571
			c10.974,2.573,22.003-4.269,24.575-15.242C146.292,135.795,139.448,124.784,128.473,122.211L128.473,122.211z M121.616,151.465
			c-5.162-1.21-8.377-6.396-7.168-11.558c1.21-5.161,6.396-8.376,11.557-7.166c5.162,1.208,8.377,6.395,7.167,11.556
			C131.962,149.459,126.777,152.675,121.616,151.465L121.616,151.465z M115.442,177.803c-10.975-2.571-21.985,4.27-24.558,15.247
			c-2.572,10.973,4.254,21.979,15.229,24.55c10.975,2.573,21.999-4.247,24.571-15.221
			C133.256,191.405,126.416,180.375,115.442,177.803L115.442,177.803z M108.58,207.074c-5.162-1.21-8.376-6.395-7.167-11.556
			c1.21-5.162,6.396-8.379,11.557-7.17c5.162,1.211,8.377,6.396,7.167,11.559C118.927,205.068,113.742,208.285,108.58,207.074
			L108.58,207.074z M243.536,92.365c-10.975-2.573-22.002,4.267-24.574,15.242c-2.572,10.973,4.266,22,15.242,24.573
			c10.973,2.572,21.984-4.271,24.557-15.245C261.333,105.959,254.511,94.937,243.536,92.365L243.536,92.365z M236.675,121.635
			c-5.178-1.214-8.395-6.401-7.185-11.561c1.21-5.161,6.396-8.379,11.575-7.166c5.16,1.21,8.377,6.398,7.167,11.559
			S241.837,122.845,236.675,121.635L236.675,121.635z M230.502,147.973c-10.976-2.572-22.003,4.266-24.575,15.24
			c-2.572,10.976,4.271,21.986,15.246,24.559c10.974,2.573,21.98-4.253,24.553-15.229
			C248.299,161.568,241.476,150.545,230.502,147.973L230.502,147.973z M223.64,177.245c-5.178-1.216-8.395-6.4-7.184-11.562
			c1.213-5.181,6.398-8.396,11.578-7.183c5.16,1.209,8.377,6.396,7.163,11.575C233.987,175.238,228.802,178.454,223.64,177.245
			L223.64,177.245z M217.466,203.583c-10.975-2.572-21.998,4.249-24.57,15.224c-2.572,10.976,4.267,22.001,15.242,24.575
			c10.973,2.571,21.984-4.271,24.557-15.247C235.267,217.161,228.44,206.155,217.466,203.583L217.466,203.583z M210.609,232.834
			c-5.179-1.214-8.396-6.398-7.186-11.561c1.21-5.161,6.396-8.379,11.575-7.163c5.16,1.208,8.377,6.394,7.167,11.556
			S215.771,234.044,210.609,232.834L210.609,232.834z M210.609,232.834"></path>
	</g>
</svg>