<?xml version="1.0" encoding="utf-8"?>
<!-- Generator: Adobe Illustrator 16.0.0, SVG Export Plug-In . SVG Version: 6.00 Build 0)  -->
<!DOCTYPE svg PUBLIC "-//W3C//DTD SVG 1.1//EN" "http://www.w3.org/Graphics/SVG/1.1/DTD/svg11.dtd">
<svg version="1.1" id="Layer_1" xmlns="http://www.w3.org/2000/svg" xmlns:xlink="http://www.w3.org/1999/xlink" x="0px" y="0px"
	 width="344.982px" height="298.485px" viewBox="0 0 344.982 298.485" enable-background="new 0 0 344.982 298.485"
	 xml:space="preserve">
<g>
<path fill="#504C4D" d="M312.883,218.203h-1.086v-29.316h1.086c1.766,0,3.199-1.43,3.199-3.199c0-1.766-1.434-3.199-3.199-3.199
			h-1.176c-1.445-24.746-21.496-44.574-46.34-45.66V81.113c0-22.719-17.461-41.43-39.664-43.434v-7.289
			c0-4.355-3.551-7.902-7.914-7.902h-78.382c-4.359,0-7.906,3.547-7.906,7.902v7.285c-22.207,2.004-39.672,20.715-39.672,43.438
			v55.715c-24.84,1.086-44.896,20.914-46.34,45.66h-1.177c-1.765,0-3.198,1.434-3.198,3.199c0,1.77,1.434,3.199,3.198,3.199h1.087
			v29.316h-1.087c-1.765,0-3.198,1.434-3.198,3.199s1.434,3.199,3.198,3.199h1.087v9.809c0,11.527,9.379,20.906,20.905,20.906
			h25.524v1.949c0,14.68,11.94,26.621,26.621,26.621h120.296c14.68,0,26.621-11.941,26.621-26.621v-1.949h25.52
			c11.527,0,20.906-9.379,20.906-20.906v-9.809h1.086c1.77,0,3.203-1.434,3.203-3.199S314.648,218.203,312.883,218.203
			L312.883,218.203z M305.395,218.203h-40.027v-29.316h40.027V218.203z M305.289,182.488h-39.922V143.23
			C286.68,144.301,303.859,161.27,305.289,182.488L305.289,182.488z M258.926,79.527c-6.145,15.934-16.785,29.57-30.824,39.457
			c-4.707,3.312-9.688,6.113-14.875,8.398v-11.695h3.586c1.766,0,3.199-1.434,3.199-3.199v-13.57c0-1.77-1.434-3.199-3.199-3.199
			h-3.586V43.891h8.516C241.738,43.891,258.094,59.734,258.926,79.527L258.926,79.527z M150.754,102.117v7.172h-7.172v-7.172
			H150.754z M153.954,115.688c1.769,0,3.203-1.434,3.203-3.199v-13.57c0-1.77-1.435-3.199-3.203-3.199h-3.582V43.891h56.453v51.828
			h-3.586c-1.766,0-3.199,1.43-3.199,3.199v13.57c0,1.766,1.434,3.199,3.199,3.199h3.586v14.203
			c-8.992,3.121-18.5,4.742-28.227,4.742c-9.726,0-19.234-1.621-28.226-4.742v-14.203H153.954z M206.441,109.289v-7.172h7.172v7.172
			H206.441z M139.407,28.887h78.382c0.836,0,1.512,0.676,1.512,1.504v7.098h-81.398v-7.098
			C137.903,29.562,138.579,28.887,139.407,28.887L139.407,28.887z M135.45,43.891h8.519v51.828h-3.585c-1.766,0-3.2,1.43-3.2,3.199
			v13.57c0,1.766,1.435,3.199,3.2,3.199h3.585v11.695c-5.187-2.285-10.167-5.086-14.878-8.398
			c-14.036-9.887-24.676-23.52-30.821-39.457C99.101,59.734,115.458,43.891,135.45,43.891L135.45,43.891z M91.829,143.23v39.258
			H51.907C53.336,161.27,70.515,144.301,91.829,143.23L91.829,143.23z M51.801,188.887h40.027v29.316H51.801V188.887z
			 M66.304,248.918c-7.996,0-14.503-6.508-14.503-14.508v-9.809h40.027v24.316H66.304z M258.969,257.266
			c0,11.148-9.074,20.223-20.223,20.223H118.45c-11.148,0-20.224-9.074-20.224-20.223V94.336
			c6.703,11.773,15.923,21.953,27.185,29.879c5.832,4.109,12.055,7.496,18.558,10.125v15.637c0,1.766,1.435,3.199,3.204,3.199
			c1.765,0,3.199-1.434,3.199-3.199v-13.328c9.039,2.891,18.531,4.383,28.226,4.383c9.695,0,19.191-1.492,28.227-4.383v13.328
			c0,1.766,1.434,3.199,3.203,3.199c1.766,0,3.199-1.434,3.199-3.199v-15.641c6.504-2.625,12.727-6.012,18.562-10.121
			c11.254-7.926,20.477-18.094,27.18-29.863V257.266z M305.395,234.41c0,8-6.508,14.504-14.508,14.504h-25.52v-24.312h40.027V234.41
			z M305.395,234.41"></path>
			<path fill="#504C4D" d="M230.184,176.059H127.011c-3.453,0-6.257,2.805-6.257,6.254v46.426c0,17.41,14.168,31.578,31.582,31.578
			h52.527c17.41,0,31.578-14.168,31.578-31.578v-46.426C236.441,178.867,233.633,176.059,230.184,176.059L230.184,176.059z
			 M178.598,197.488c-1.766,0-3.199,1.434-3.199,3.199v10.371H149.29c-12.203,0-22.133-9.93-22.133-22.133v-6.465h102.882v6.465
			c0,12.203-9.93,22.133-22.137,22.133h-26.105v-10.371C181.797,198.922,180.363,197.488,178.598,197.488L178.598,197.488z
			 M230.039,228.738c0,13.883-11.293,25.18-25.18,25.18h-52.527c-13.883,0-25.176-11.297-25.176-25.18v-21.832
			c5.233,6.434,13.211,10.555,22.133,10.555h26.109v17.512c0,1.77,1.433,3.203,3.199,3.203s3.199-1.434,3.199-3.203v-17.512h26.109
			c8.922,0,16.898-4.121,22.133-10.555V228.738z M230.039,228.738"></path>
</g>
</svg>