<?xml version="1.0" encoding="utf-8"?>
<!-- Generator: Adobe Illustrator 16.0.0, SVG Export Plug-In . SVG Version: 6.00 Build 0)  -->
<!DOCTYPE svg PUBLIC "-//W3C//DTD SVG 1.1//EN" "http://www.w3.org/Graphics/SVG/1.1/DTD/svg11.dtd">
<svg version="1.1" id="Layer_1" xmlns="http://www.w3.org/2000/svg" xmlns:xlink="http://www.w3.org/1999/xlink" x="0px" y="0px"
	 width="98.5px" height="94px" viewBox="0 0 98.5 94" enable-background="new 0 0 98.5 94" xml:space="preserve">
<g>

 <path d="M76.891,62.96L76.5,62.483c-3.041-3.865-5.592-5.863-7.789-6.127c-1.881-0.259-3.72,1.046-5.661,2.393l-2.084,1.299
			c-0.25,0.12-0.492,0.219-0.728,0.293c-1.216,0.344-4.281,0.548-6.022-1.046c-2.012-1.853-5.151-5.238-7.597-8.194
			c-2.331-3.067-4.897-6.875-6.225-9.291c-1.132-2.027-0.188-4.88,0.449-5.938c0.13-0.205,0.29-0.403,0.463-0.607l1.839-1.694
			c0.029-0.029,0.043-0.06,0.058-0.085c0.028-0.014,0.055-0.014,0.069-0.029c1.654-1.39,3.358-2.839,3.609-4.677
			c0.275-2.172-1.086-5.112-4.141-8.962l-0.362-0.478c-1.9-2.43-4.763-6.094-8.875-5.485c-1.607,0.23-3.058,0.782-4.545,1.719
			c-0.015,0-0.015,0.031-0.029,0.031c-0.019,0.015-0.033,0.015-0.047,0.015l-2.067,1.548c-0.015,0-0.029,0.029-0.062,0.045
			c-0.015,0.015-0.029,0.029-0.054,0.044c-0.232,0.2-0.478,0.403-0.709,0.622c-2.1,1.865-6.664,7.31-3.547,17.371
			c1.994,6.5,6.134,14.088,11.973,21.979l-0.058,0.04l3.229,4.024l0.029-0.025c6.327,7.498,12.784,13.291,18.69,16.794
			c3.934,2.346,7.383,3.127,10.221,3.127c3.735,0,6.396-1.349,7.745-2.217l0.84-0.563c0.098-0.074,0.159-0.159,0.231-0.247
			l1.839-1.376c0.014-0.014,0.025-0.045,0.054-0.06c0-0.011,0.015-0.011,0.034-0.011c1.303-1.205,2.214-2.45,2.836-3.925
			C81.723,68.998,78.816,65.362,76.891,62.96L76.891,62.96z M77.919,71.862c-0.478,1.146-1.202,2.128-2.233,3.069l-2.733,2.058
			c-2.461,1.603-7.764,3.59-15.433-0.972c-5.911-3.501-12.411-9.425-18.82-17.141l-1.723-2.186
			C30.94,48.699,26.712,41.042,24.7,34.556c-2.595-8.442,0.681-12.96,2.881-14.914c0.213-0.204,0.435-0.389,0.652-0.577l0.014-0.016
			l1.983-1.475c1.217-0.756,2.332-1.189,3.634-1.378c2.748-0.418,4.995,2.491,6.627,4.592l0.395,0.492
			c3.417,4.314,3.746,6.352,3.631,7.194c-0.112,0.927-1.518,2.114-2.762,3.168l-0.192,0.145c0,0,0,0.014-0.014,0.014
			c0,0.017-0.011,0.017-0.011,0.017L39.64,33.57c-0.014,0.017-0.029,0.031-0.029,0.045c-0.014,0.015-0.046,0.025-0.061,0.04
			c-0.29,0.32-0.533,0.653-0.735,1.003c-1.072,1.777-2.071,5.458-0.497,8.308c1.39,2.49,4.025,6.426,6.446,9.599
			c2.53,3.069,5.758,6.556,7.861,8.469c1.563,1.435,3.746,1.913,5.628,1.913c1.018,0,1.943-0.13,2.653-0.333
			c0.362-0.102,0.753-0.26,1.144-0.449c0.025-0.015,0.025-0.031,0.054-0.046c0.018-0.014,0.033-0.014,0.047-0.014l2.201-1.375
			c0.069-0.06,0.116-0.114,0.174-0.173l0.025,0.028c1.365-0.941,2.899-2.041,3.865-1.881c0.858,0.103,2.809,0.926,6.229,5.241
			l0.391,0.507C76.703,66.522,78.99,69.372,77.919,71.862L77.919,71.862z M77.919,71.862"></path>

</g>

</svg>