<?xml version="1.0" encoding="utf-8"?>
<!-- Generator: Adobe Illustrator 16.0.0, SVG Export Plug-In . SVG Version: 6.00 Build 0)  -->
<!DOCTYPE svg PUBLIC "-//W3C//DTD SVG 1.1//EN" "http://www.w3.org/Graphics/SVG/1.1/DTD/svg11.dtd">
<svg version="1.1" id="Layer_1" xmlns="http://www.w3.org/2000/svg" xmlns:xlink="http://www.w3.org/1999/xlink" x="0px" y="0px"
	 width="792px" height="612px" viewBox="0 0 792 612" enable-background="new 0 0 792 612" xml:space="preserve">
<path fill="#FFFFFF" d="M146.272,406.443c21.047-17.684,16.836-16,29.473-28.633c12.629-12.633,16.836-14.316,30.316-26.945
	c13.469-12.633,19.367-18.531,19.367-21.055s7.578-23.578,12.629-21.897c5.055,1.687,21.895,3.37,27.792,14.319
	c5.891,10.945,23.579,41.262,24.418,46.316c0.844,5.051,14.316,22.738,14.316,22.738s10.946-0.844,19.368-19.367
	c8.425-18.531,14.316-32.844,22.738-45.477c8.421-12.633,26.104-21.055,41.265-46.316c15.156-25.265,28.629-41.262,28.629-41.262
	s21.055-23.578,40.422-21.055c19.367,2.527,38.738,17.688,45.474,31.16c6.737,13.473,21.058,32.84,21.897,36.208
	c0.841,3.367,4.211,3.367,10.105,4.211c5.892,0.843,11.789-1.684,13.473,1.683c1.687,3.371-2.524,16.841,9.266,37.055
	c11.788,20.211,0.84,35.367,26.104,49.684c25.263,14.316,38.736,25.266,54.735,32.844c10.998,5.206,47.06,52.595,69.082,85.814
	c5.518-23.494,8.445-47.985,8.445-73.164c0-176.169-142.81-318.98-318.979-318.98c-176.166,0-318.976,142.811-318.976,318.98
	c0,27.716,3.543,54.603,10.185,80.241C103.568,472.137,131.631,418.737,146.272,406.443z"/>
</svg>
